<svg width="364" height="27" fill="none" xmlns="http://www.w3.org/2000/svg"><path d="M0 0h22v20.913l-.081.162v.403l-.081.162-.082.242v.162l-.08.161-.082.162-.081.161-.162.161-.082.162-.08.161-.163.081-.163.162-.08.161-.163.08-.162.162-.163.081-.162.08-.162.082-.244.08-.162.081-.244.08-.162.082h-.244l-.243.08h-.731l-.244.081h-3.571l-.163.08h-.243l-.163.082h-.162l-.162.08h-.082l-.162.081h-.162l-.082.08-.162.082h-.081l-.163.08-.08.081-.082.08h-.162l-.081.081-.082.081-.08.081-.163.08-.081.081-.082.081-.08.081-.082.08-.081.081-.244.162-.162-.162-.081-.08-.081-.081-.082-.08-.08-.082-.082-.08-.162-.081-.081-.08-.082-.082-.162-.08h-.081l-.081-.08-.163-.082-.08-.08h-.082l-.162-.081-.163-.08h-.08l-.163-.082h-.081l-.163-.08h-.162l-.163-.081h-.243l-.162-.08H4.303l-.244-.082h-.731l-.243-.08H2.84l-.162-.081-.244-.08-.162-.082-.243-.08-.163-.081-.162-.08-.163-.082-.162-.161-.162-.08-.163-.162-.08-.162-.163-.08-.081-.162-.163-.162-.08-.161-.082-.162-.081-.161-.081-.161v-.162l-.082-.242-.08-.162v-.161L0 21.075V0z" fill="#171412"/><path d="M0 0h22v20.604c0 2.207-1.395 3.76-4.187 3.76H15.27c-1.97 0-3.284.655-4.187 1.636-.903-.9-2.216-1.635-4.186-1.635h-2.71C1.397 24.365 0 22.81 0 20.604V0z" fill="#A8002B"/><path d="M4.104 1.219c-.16 0-.16.159-.16.238L4.82 2.73c0 .08.08.159.08.159-.08.238-.08.318.08.477l.317.318c0 .238.08.397.16.477-.08.159 0 .238.159.397 0 0 .08.08.08.16l.079.397c-.398.318-.637.636-.716.795v.238l.557-.08c.08 0 .08.08.159.08.08.239 0 .557-.318.557-.796.159-1.353.397-1.115.874.24.318.16.636-.318.954a.607.607 0 00-.16.398c-.158.079-.238.318-.317.476-.08.239-.08.318.08.239 1.034-.318 2.068-.477 2.785.08.318.397.238.556.795.556-.08.238 0 .397.24.397v.239c-.24.08-.478.08-.717.08-.239.079-.478.158-.716.158-.16-.159-.398-.238-.557-.318-.955-.556-1.672-.636-2.388.16-.318.397-.716.953-.955 1.828-.08.159-.159.238-.398.08-.477-.398-.557-.716-.318-.955.318-.318.477-.159.318.08v.08c.239 0 .398.158.478.397.238-.557.08-.954-.239-1.272h-.08v.477c-.557-.08-.795.318-.875.715 0 .398.16.716.637.954.238.08.318.398.159.716-.557.795-.478 1.59 0 2.623h.08c.079-1.192.318-1.828.716-1.908.159-.08.238-.159.318-.238.08-.16.16-.16.239 0 .238.477.159.954-.08 1.43-.637 1.113-.716 1.908.239 2.544v.08l-.239.318c-.08.159 0 .318.239.477.159.159.239.477.318.874-.08.16-.08.318-.08.477.16.239.478.318.956.239.08 0 0-.08 0-.08.08-.238-.08-.397-.24-.636-.477-.397-.556-.795-.397-1.192l.08-.08c.397.16.875.318 1.273.318-.16.398-.16.875 0 1.113.318.557.636.795 1.273.716.796-.08 1.194-.716.955-1.67.318-.159.478-.159.557 0 0 .398.16.318.16.716-.478.397-.637.795-.16 1.033.239.239.16.398-.239.398-.398-.08-.636-.08-.716.238-.318 0-.477.239-.398.556.08-.238.319-.238.398-.238.16 0 .398.08.557 0 .16-.08.319-.08.478 0 .08 0 .159.08.238.159.24.238.24 0 .717.318.159 0 .318 0 .398.239l.08-.16c.079-.079 0-.159-.08-.238-.16-.238.08-.238.557-.159.238.08.477.159.636.159.24-.238.24-.08.319.239.159-.398.08-.636-.398-.636.08-.239.08.08.239-.16.159-.079.238 0 .397.16 0-.239-.08-.318-.318-.398-.08-.159-.16-.159-.398 0-.796-.238-.875-.636-.398-.795.239-.08.319.16.478.239.159.08.239 0 .398.08.238 0 .397.079.557.158l.159.08c.08-.08.159-.08.239.08.08.158.238.158.318.079.318-.239.796-.239.716-.08 0 .239 0 .318.08.318s.08.08.08.239c-.319 0-.478.08-.478.238-.239.08-.239.238-.16.556 0-.477.399-.079.796-.318h.319c0 .16.159.239.398.16.08-.08.239-.08.318-.08.478-.159.875-.08 1.194.318.08-.159.08-.238 0-.398.318-.238.716-.159.477.239.239-.08.398-.636.16-.636.079-.318.556-.08.397.159.16-.08.24-.238 0-.477 0-.159-.159-.238-.398-.159-.159-.238-.318-.238-.557-.08-.238.08-.398.16-.557-.079-.159-.238-.08-.318.08-.238.08 0 .159-.08.239-.318.08-.08.159-.16.159-.318.239-.08.477-.239.716-.716.16-.08.318-.477.318-1.033.08.08.16 0 .319-.08-.08 0-.16-.08-.16-.238h.398c.08-.08.16-.08.16-.16 0-.079-.08 0-.16-.158a.437.437 0 00-.238-.398l-.319-.636c-.159-.556-.398-.874-.636-.636l-.08-.079a6.99 6.99 0 01-.477-.795c0-.397-.398-.397-.637-.08l-.08-.317-.08.159-.636-.954c.08 0 .16-.08.239-.08.796-.08 1.591-.318 2.387-.715l.557-.16c.24-.079.319 0 .478.08l.557.557a.6.6 0 01.08.318c-.08.159.08.318.318.477.159.238.239.477.08.794-.08.239-.08.398.079.398l.398.318c.239.238.398.159.398-.238 0-.16-.08-.398-.16-.557a1.28 1.28 0 01-.238-.715c0-.477-.08-.716-.239-.875-.239-.238-.398-.477-.557-.715-.08-.16-.08-.239-.16-.318 0-.477-.397-.716-.556-.557a.68.68 0 01-.557 0v-.08a6.022 6.022 0 001.114-1.033c.16-.238.239-.159.398.08l.637.636c0 .318 0 .556.238.477.16.238.239.477.08.636-.16.159-.239.238-.239.397 0 .239.318.477.637.636 0 0 .08 0 .08-.08a1.108 1.108 0 000-.715l-.24-.238v-.398c0-.318.08-.477-.238-.715a8.026 8.026 0 01-1.035-1.272c0-.557-.477-.716-.796-.08l-.557.477c-.159.08-.238-.08-.238-.238-.08-.795-.557-1.352-1.114-1.908-.319-.954-.717-1.67-.876-2.385.557.08 1.035.16 1.194.318.239.239.557.398.636.239 0-.08-.159-.16-.238-.239.08 0 .238.08.398.239.238 0 .318-.16.238-.477 0-.239 0-.398-.08-.477l-.238-.16c-.318-.397-.637-.794-.875-1.192 0-.08-.08-.08-.08-.159 0-.159-.08-.318-.239-.477l.08-.08V4.24l.16.08-.16-.318c-.08-.239-.398-.318-.955-.16-.08 0-.16-.079-.239-.158-.318-.318-.636-.477-.557-.239 0 .08.16.16 0 .16l-.557-.08c-.16 0-.16 0-.08.08.08.079.24.238.24.317l-.717.08c-.16 0-.239.08-.398.08-.398-.319-.875-.08-1.353.317h-.08v-.556h.08l-.08-.398h.08c0-.556-.08-.953-.318-1.192-.08-.159.16-.159.16-.238a.857.857 0 00.158-.557c0-.238-.08-.318-.238-.238h-.08c-.16 0-.239-.08-.318-.16a.508.508 0 00-.478 0c-.796.08-.875.637-1.75.319-.08 0-.16 0-.08.08.159.238.398.317.557.397-.08.08-.239.08-.478.08.16.238.398.317.876.317.159.08.398.08.557 0 .159-.08.159 0 .08.159-.24.159-.399.556-.399 1.272-.08 0-.159.159-.159.318-.318-.08-.636-.16-.716-.08h-.16c-.317-.159-.636-.159-.875 0l-.477.398c-.16.159-.318.159-.398 0l-.239-.477c0-.318-.08-.477-.318-.477-.08-.08-.16-.239-.16-.318l-.158-.239c.08-.158 0-.238-.16-.238-.159 0-.238 0-.318-.08L4.104 1.22zm-.717 12.56c.717.874.876 1.749.24 2.861-.24.557-.16.875.079 1.034.08-.16.159-.477.159-.795.08-.477.318-.398.716-.795.398-.397.318-.874.239-1.59-.08-1.51.239-2.385.716-2.862-1.034-.318-1.75.557-2.149 2.147zm2.945 5.962c.16.08.16.238-.08.318-.08-.08-.08-.16.08-.318zm2.547 1.033c-.08.08-.16.16-.08.318l.239.16a.241.241 0 000-.319c-.08 0-.08 0-.16-.159zm5.332.477c-.16.08-.24.16-.08.318.08.08.16.08.16 0 .238 0 0-.159-.08-.318zm-5.73-3.26c-.398-.397-.398-.715 0-.953.238-.159.557-.556 1.034-1.113.319 0 .557-.08.796-.159 1.114-.159 2.228-.397 3.024-.874.16-.08.318 0 .318.08l.637.873-.16.08.478.398c-.08.079 0 .159.08.159-.08.079 0 .159.08.159.08.159.159.317-.16.079-.159-.08-.159 0-.08.238l.24.398c0 .159.08.318.238.477l.239.477c0 .08.08.159.08.238 0 .16.08.239.238.318-.159.239-.318.557-.636.716-.557.318-1.035.159-1.035-.557 0-.397.08-.795.16-1.192.159-.716 0-1.034-.558-1.034-.318 0-.557 0-.716.16-.16.079-.398.079-.716-.08-.637-.477-1.035-.716-1.353-.716.318.319.398.636.16 1.034.238.08.238.238 0 .318-.558 0-1.274-.08-1.91-.318-.24-.08-.24 0-.08.159.477.238.795.477.795.954-.318 0-.557 0-.716.08-.16-.24-.318-.24-.477-.398zm-4.139 0c.16-.635.557-.953 1.115-1.033.557-.079 1.273-.397 1.99-.794.317-.239.317-.16.158.317l-.318.398c-.16.238-.239.397 0 .636.318.159.477.318.398.477-.398-.08-.716-.08-1.035.238-.238-.08-.477 0-.796.16-.159-.08-.397-.08-.636-.08-.08-.16-.239-.16-.557-.16 0-.079-.16-.079-.319-.158z" fill="#171412"/><path d="M19.202 15s.16 0 .16.083c.16.084.16.167 0 .167 0 0-.16 0-.16-.083V15zm.32.833s.159.084.159.167 0 .167-.16.167-.16-.084-.16-.167 0-.167.16-.167zm-.48.75l.16-.25c.16-.083.16-.083.32 0l.478.25c-.16.084-.32.084-.479.084l.16.166-.16.084V17c-.319-.167-.638-.25-.479-.417zm1.418-2.249l.135-.27c0-.089 0-.089.135 0 .135.09.27.27.27.448 0 .09 0 .09-.135.18-.135 0-.135 0-.27-.09-.134-.179-.134-.268-.134-.268zm-.134-.985c-.135-.09-.135-.18.134-.18-.27-.178 0-.268.27 0 .135.09.135.27.135.538 0 .09-.135.09-.135 0-.27-.18-.27-.269-.404-.358zm0 1.074h-.135c-.135.18-.27.269-.135.358l.404.18c.135.089.27 0 .135 0l-.134-.09c.134 0 .134.09.27.09.134 0 .134-.09 0-.09-.136-.09-.136-.09-.136-.18v-.089l-.27-.179zM17.73 12.27c0-.155.082-.385.165-.54 0-.076.082-.076.165-.076.164-.308.164-.154.082.077h.082c.248-.385.165-.077.083.077-.165.23-.247.23-.33.077l-.082.23c-.082.231-.082.308-.165.154zm-1.153-.309c-.083-.153 0-.23.082-.076.082.23.165.538.165 1 0 .154-.165.154-.165 0 0-.308 0-.616-.082-.924zm-.165-.615c.082 0 .165.077.165.154 0 .154 0 .23-.083.23-.082 0-.165-.076-.165-.153-.082-.077 0-.23.083-.23zm-.247.462s.082 0 .082.077v.154s-.082 0-.082-.078c-.083-.076-.083-.153 0-.153zm.906.077s.082 0 .082.076v.078s-.082 0-.082-.078v-.076zm1.565-.693c-.082-.077-.082-.153 0-.23.083-.077.165-.077.248 0 .082 0 .082.077.082.077l-.165.076.165.077c.082.077 0 .231-.082.077-.083-.077-.165-.154-.248-.077.083.077 0 .077 0 0zm-1.153 1.231l.082-.384-.082.153c-.082 0-.082-.077-.082-.153 0-.154 0-.154.082-.154l.082.154.083-.078c.082-.076.082 0 .082.154v.385c-.165 0-.165.077-.247-.077zM16 11.346c.082-.077.082-.077.082 0l.165.154v.077h-.165l-.082-.23c0 .076 0 .076 0 0zm.989 1.462c.082 0 .082 0 0 0zm-.577-1.616c0-.384.082-.769.082-1.077 0-.153.083-.153.083 0 0 .308 0 .693-.083 1 0 .077-.082.154-.082.077zm-12.114 8.66c-.084.245-.42.163-.252-.082.42-.654.756-1.227.84-2.127 0-.327.252-.408.42-.572.587-.327.755-.736.755-1.309C5.977 13.39 6.65 12.41 7.657 12v.082c-.924.572-1.344 1.636-1.344 3.026v.982-.082c0-.818 0-1.554.168-2.045.084-.49.252-.9.42-1.063.084-.082.084-.164.168-.246.084-.082.168-.082.252-.163v.082c-.336.327-.672.817-.756 1.39-.168.654-.168 1.39-.084 2.208 0 .082 0 .246-.084.328h.084c.084-.164.084-.246.084-.41-.084-.981 0-1.88.336-2.617.252-.49.42-.654 1.091-.981v.082c-.587.409-1.091.817-1.259 2.371.084-1.145.504-2.044 1.343-2.29.252-.409.588-.409.924-.409l-.084.082c-.588-.082-1.007.164-1.427.573h.084c.42-.41.84-.573 1.427-.491l-.084.082c-.42-.082-.756.082-1.091.327v.082a1.642 1.642 0 011.007-.328c.084 0 .168.082.084.246l-.084.572c0 .573 0 1.064-.168 1.554l-.084.082.084-.981-.084 1.145c0 .163-.084.082-.084 0a2.98 2.98 0 00.168-.982c-.084 0-.084 0-.084.082-.084.49-.168.9-.252 1.063.084-.327.084-.654.168-.981l-.084.082-.168.9c.084.081 0 .163-.084.081l.084-.49-.252.817.084-.572-.335.572h-.084l.084-.49-.336.818c-.084 0-.084 0 0-.164l.168-.573h-.084c-.168.41-.252.737-.42.818h-.084c.252-.409.252-.572.252-.736-.084.327-.252.655-.42.818 0 0 0-.163.168-.327l.084-.327c-.084-.082-.084-.082-.084.082a3.938 3.938 0 01-.252.572l.168-.49v-.082a1.572 1.572 0 01-.42.736l.084.081c.336-.163.756-.163 1.092-.327.084-.081.168-.081.252 0l-.084.164-.084-.082c0 .164-.084.327-.168.327v-.245c-.168.327-.252.572-.336.409v-.245c-.168.163-.252.245-.252.408-.084 0-.084-.163-.084-.327v.491c-.084 0-.084-.082-.084-.327-.084.245-.168.327-.168.409-.084-.082-.084-.164 0-.327l-.084.163c0 .164-.084.164-.084.164v-.246l-.168.328c-.084 0-.084-.082-.084-.246-.168.164-.168.327-.252.49-.084-.08-.084-.163-.084-.244-.083.163-.083.245-.167.327v-.327c0 .163-.084.245-.168.409l-.084-.246-.084.245c-.084.082-.168 0-.168-.163 0 .327-.084.572-.252.736 0 .082-.084.327-.168.573l.336-.491c.084 0 .084 0 .084.163l-.336.573c-.084.082-.084.082-.168 0-.084.245-.168.49-.336.654.168-.081.252-.327.336-.572 0-.082.084 0 .084.163l-.084.082v.164h-.084v.163l-.084-.081c.084.163 0 .327-.252.245zM6 12.082h.325l.08-.082-.405.082zm-3.889 2.935c.082-.162.163-.323.325-.566.081-.161.081-.08.081.081-.162.242-.243.404-.406.485z" fill="#fff"/><path d="M6.333 11.71c-.65-.565-1.3-.888-1.786-.807-.893.242-1.38 1.05-1.624 1.857.163-.242.325-.404.487-.484a4.774 4.774 0 00-.812 2.26c0 .081-.08.162-.162.243-.325.242-.243.403-.325.565.082-.08.163-.162.244-.323.162-.162.243-.323.325-.565.08-.323.162-.727.243-.97.081-.322.244-.565.406-.887.325-.485.73-.97 1.218-1.212v.081c-.487.242-.812.646-1.218 1.211l-.244.485a1.515 1.515 0 00-.162.646c-.081.565-.162.888-.325 1.13-.162.242-.324.404-.324.485 0 .08-.081.161-.081.242.324-.646.487-.646.649-1.13.244-.727.081-1.535 1.055-2.584h.163c-.487.565-.812 1.05-.974 2.18 0 .161-.082.403-.163.565-.162.242-.406.404-.487.646h.081c.163-.162.406-.404.487-.565.325-.566.163-1.373.569-1.938.487-.808.893-1.211 1.46-1.454h.082c-.812.404-.974.727-1.38 1.212-.162.161-.244.322-.325.646-.081.242-.162.646-.243.969-.081.403-.244.645-.406.888l-.244.242a.615.615 0 00-.162.404h.081c.244-.566.325-.485.487-.646.081-.162.244-.404.244-.646.08-.566.162-1.05.406-1.454.243-.403.568-.888.974-1.21.162-.162.324-.243.568-.324h.081c-.243.162-.487.242-.65.404-.324.323-.649.807-.892 1.211-.163.404-.244.807-.325 1.292 0-.08.081 0 .081 0 .244-1.05.65-1.776 1.137-2.26.243-.243.568-.485.893-.566h.162c-.487.161-.893.323-1.218.807h.082c.405-.403.811-.646 1.217-.726h.081c-.243.08-.487.161-.649.323v.08c.244-.161.73-.323 1.218-.323zm-4.06 4.438c-.082-.08-.082-.162-.082-.242 0-.162.082-.081.163 0-.081.161-.081.161-.081.242zM3.41 17.28l.081-.08c.082 0 .082-.08.163 0 0 0-.081.08-.244.08zm-.082.325l.162-.162c.082-.08.163-.08.244 0-.081 0-.244.081-.406.162zm0 .156l.162-.161c.082-.081.163-.081.244 0 0 .08-.162.08-.406.161zm.082.166l.163-.161h.162c0 .08-.162.08-.325.161zm.08.158l.081-.08c.082 0 .082-.081.163 0 0 0-.163 0-.244.08zm.324-1.532l.244-.08c.081 0 .162 0 .244.08-.082.081-.244.081-.488 0zm.165-.401l.08-.082h.163c0 .082-.081.082-.243.082zm.08-.246h.162c.081 0 .162 0 .162.082-.08 0-.162 0-.324-.082zm-.325 2.746l.082-.082h.08c.082.082 0 .082-.162.082zm.326-.324h-.243c-.082.08-.163.162-.163.162.081.08.244 0 .406-.162z" fill="#fff"/><path d="M3.979 18.25h-.162c-.082 0-.163.08-.163.162l.325-.162zm.812.805l.081-.162c.081-.08.163-.08.244-.08 0 0-.163.161-.325.242zm.404-.162l.163-.08c.08 0 .162 0 .243.08 0 .081-.162.162-.325.242l.082-.161.08-.08c-.08.08-.162.08-.243.16v-.16c.081.08.081 0 .081 0h-.08zm.895.002c.08 0 .243 0 .243.08 0 .081-.163.162-.325.242l.081-.161.081-.08c-.08.08-.08.08-.243.16l.081-.16h.081-.08c0 .08-.082.08-.163.16l.08-.08c0-.08.082-.08.163-.162zm1.377.001c0-.162.162-.242.406-.323.324-.08.65 0 .568.161l-.081.162v-.08s-.081 0-.163-.082h-.08l-.163.162.162-.242.081-.081h-.324l-.081.08-.163.162.081-.242v-.08h-.08l-.082.16v-.16c0 .241-.081.322-.081.403zm-.973.162l.244-.162c.162-.08.406-.08.324 0l-.08.081v.162l-.082-.162h.081v.242l-.081-.242h-.081v.323l-.162-.323c0 .081 0 .162-.082.162v-.242c0 .08-.08.161-.08.323v-.162zm-2.922-6.943l.406-.404c-.162 0-.325.161-.406.404zm2.354 7.995c-.081-.081-.081-.162 0-.404.162-.242.244-.323.325-.323.081.08 0 .242 0 .484l-.163-.161.082.242-.163-.162-.08.323zm1.542.479l-.08-.081c-.082 0-.082 0 .08.08 0 .081 0 .162.082.162-.082-.08-.082-.161-.082-.161zm-.16.16c0-.081-.081-.081-.081-.081s0 .08.08.08v.081c.082 0 .082-.08 0-.08zm-.082.163c0-.081-.081-.162-.081-.162v.162c0 .08.08.161.08.161.082 0 .082-.08 0-.162zm-1.219-.08c.081 0 .081 0 .081.082.081 0 0 0-.081-.082-.081.082-.081 0-.081 0h.081zm.001-.164c.081 0 .162.082.162.082h-.162c-.081 0-.162-.082-.162-.082h.162zm-.082-.16c.081 0 .162.08.162.08s-.08.081-.162 0c-.081 0-.162-.08-.162-.08h.162zm2.68-1.697c-.081-.242.162-.242.406-.161.162.08.406.08.73.08h.487c.163.081.163.162 0 .162-.324.323-.568.646-.65.969-.08-.162.163-.565.488-1.05-.244.162-.406.404-.65.646.082-.161.163-.403.325-.646-.406.323-.65.727-.65 1.535-.162-.485-.08-.97.244-1.454l-.406.485.406-.646-.243.08v-.08l-.163.08v-.08l-.243.161.081-.161c0-.081-.081 0-.162.08zm.242 1.134c0 .162 0 .242.08.404 0 0 .082 0 .082-.08-.081-.081-.162-.162-.162-.324z" fill="#fff"/><path d="M9.335 20.023s.081.081.081.162c0 .08 0 .161-.08.161 0 0-.082-.08-.082-.161 0-.08.081-.162.081-.162zm.488-.563v.082c0 .08-.08.08-.08.08v-.08l.08-.081zm.082-.241v.08c0 .081-.08.081-.08.081v-.08c.08 0 .08-.081.08-.081zm3.898.402c.162.08.162.323.08.565 0-.161 0-.403-.08-.565zm-.896 1.291c0-.081 0-.081-.08-.162 0 .08 0 .162.08.162zm-2.028-3.068h.081l.081.161h-.08l-.082-.161zm-.164.89l.081.081v.08l-.081-.08v-.08zm.164 0s.081 0 .081.081v.08s-.081 0-.081-.08v-.08zm.161-.086s.08.081.08.162v.08c-.08 0 0 0-.08-.08v-.162zm.163-.078s.081.081.081.162v.161s-.08-.08-.08-.161v-.162zm.243 0s.08.081.08.162v.161s-.08-.08-.08-.161c-.082-.08-.082-.162 0-.162zm.164.078s.08.081.08.162v.161c-.08 0-.08 0-.08-.161v-.162zm.16-.078s.082.081.082.162v.161s-.082-.08-.082-.161c0-.08-.08-.162 0-.162zm.163 0s.08.081.08.242c0 .162 0 .243-.08.243 0 0-.081-.081-.081-.242 0-.162.08-.243.08-.243zm.244 0s.081.081.081.162c0 .08 0 .161-.081.161 0 0-.081-.08-.081-.161 0-.08 0-.162.08-.162zm.162 0s.081.081.081.242c0 .162 0 .243-.081.243 0 0-.081-.081-.081-.242 0-.162 0-.243.081-.243zm.164-.078s.081.08 0 .242c0 .081-.081.243-.081.243v-.243c0-.161.081-.242.081-.242zm.242 0v.242c0 .162-.08.243-.08.243v-.243c0-.161.08-.242.08-.242zm.161-.08s.081.161.081.323c0 .161-.08.242-.08.242v-.565zm-1.054 1.128c.08 0 .08 0 0 0l.08.16s-.08 0-.08-.08v-.08zm.164-.08l.08.082v.08c-.08 0 0 0-.08-.08v-.081zm1.379-.405c0 .08.08 0 .08 0v-.485c0 .162 0 .323-.08.485z" fill="#fff"/><path d="M13.315 19.3c-.081.242-.081.323-.162.404.081-.162 0-.323 0-.323h-.081c0 .08 0 .242-.081.403 0-.161.08-.242.08-.403h-.08v.161c0 .081-.082.242-.082.242s.082-.322 0-.322h-.08v-.081h-.082v.08l-.081-.08h-.081v.08c-.082 0-.082 0-.082-.08h-.08v.08l-.082-.08h-.081v.08l-.081-.08v-.243s.08 0 .08.081v.081h.082v-.242s.081.08.081.161v.081h.081v-.161s.082.08.082.161h.08v-.242s.082.08.082.161h.081v-.161.161h.081v-.161s0 .08.082.08h.08v-.161.162h.082v-.162.162h.081c.081-.323.162-.646.162-1.05 0-.081-.08-.081-.08-.081 0 .404-.082.727-.163.969.081-.323.081-.646 0-1.05 0 .404 0 .808-.081.97.08-.324 0-.727-.081-1.131h-.082c.082.08.082.404 0 .484-.08-.161 0-.242-.162-.403h-.081c.08.08.08.242.08.403-.08-.08-.161-.242-.243-.323h-.08c.162.162.162.162.08.323-.08-.161-.243-.242-.324-.323h-.082c.082.081.244.242.163.323-.081-.08-.244-.161-.325-.242h-.081v.162c-.081 0-.162 0-.244-.162h-.08s.08.08.08.162l-.243-.162h-.081s.08.162.08.242c0 0-.162-.161-.162-.242h-.162l-.081-.161c.487 0 .974 0 1.624-.081l.568-.08c.162-.082.324.08.406.322v.323c.162.162.162.404.08.727.082.242.163.404.326.565.162.161.162.404 0 .646-.163.484-.406.727-.65 1.05v-.162c0 .08 0 .08.081.08 0-.08.081-.08.081-.16v-.162c0 .08.082.08.082.08 0-.08.08-.08.08-.16 0-.082 0-.082-.08-.162 0 .08.08.08.08.161 0-.08.082-.08.082-.161v-.162s0 .08.081.08c0-.08.081-.16.081-.241l-1.055.646c.081-.081.163-.162.325-.243v-.161c0 .08.081.08.081.161l.081-.08v-.243c.081.081.081.162.081.243l.081-.081v-.323c.082.08.082.161.082.242l.08-.08c0-.162 0-.324-.08-.485.08.161.162.242.162.404 0 0 .081 0 .081-.081 0-.162 0-.323-.08-.485.08.162.161.323.161.404 0-.161 0-.404-.08-.565.08.161.162.404.162.484l.08-.08a1.36 1.36 0 00-.243-.808l-.08.162v-.242c0 .242-.082.403-.163.403l-.244-.242z" fill="#fff"/><path d="M12.421 19.945c0 .082 0 .082-.081.082 0 0 0-.082.081-.082z" fill="#fff"/><path d="M12.501 19.781v.081c0 .08 0 .162-.08.162-.082 0-.082-.081 0-.162.08 0 .08-.08.08-.08zm.162.082c0 .081 0 .162-.081.162 0 0 0-.081.081-.162z" fill="#fff"/><path d="M12.746 19.703v.162c0 .08 0 .161-.082.161-.08 0-.08-.08 0-.161l.082-.162zm-.65-2.988c.243.08.487.242.812.484.08.081 0 .081-.082.081-.162-.08-.487-.323-.73-.565zm.974.645c0 .08.08.08 0 0 0 .08 0 .163 0 0zm-2.597.406h.243l.081.08s.082.323-.08 0c0-.08-.082 0-.163-.08h-.081zm-1.298 4.437c.081 0 .081 0 .081.082l-.081-.082-.081.082c0-.082 0-.082.08-.082zm.161.242H9.5s-.082.082-.163 0c0 .082-.081.082-.162.082 0 0 .081-.082.162-.082zm.08.086h.244c-.081 0-.081.082-.244 0-.08.082-.162.082-.162.082s0-.082.162-.082zm.084.079h.162s-.082.08-.163 0c0 .08-.081.08-.081.08s0-.08.081-.08zm.08.078c.08 0 .08 0 .08.081.082 0 0 0-.08-.081 0 .081-.082.081-.082.081l.081-.081zm1.137-.403h.162l-.162.162h-.162c0-.081.08-.081.162-.162zm-.163-.082h.162s0 .082-.081.082h-.162s0-.082.08-.082zm-.162-.16h.08c.082 0 0 .082-.08 0 0 .082 0 .082 0 0zm-1.463-.889c0-.08-.081-.08-.081 0 0 .081 0 .162.08.242.082.081.082-.08.082-.08-.081-.08-.081-.08-.081-.162zm-.162-.081c0-.08-.081-.08-.081-.08-.081.08-.081.16 0 .241.081.081.162 0 .081-.08v-.081zm7.225-4.602c-.08.081-.08.404.244.889.081.161 0 .242.162.242.082 0 .081-.08.081-.162l-.08-.08h.162l-.163-.081h.163c0-.08-.163-.08-.244-.08l.162-.082c0-.08-.08-.08-.243-.161l.162-.08-.162-.082.162-.08-.243-.081.162-.08-.162-.082.162-.08c-.244.08-.244 0-.325.08zm-.242.325c-.082-.162-.082-.243-.082-.323.081-.162.162-.242.244-.242.162.161-.082.242-.163.322v.243zm-.083-.645c.081-.08.081-.08.162-.08 0 0 0 .08-.162.08 0 .162-.081.162-.081.162 0-.081 0-.081.081-.162zm-.081.646c.081 0 .081 0 0 0 .081.08 0 .161 0 .161v-.161zm.164.16c.08 0 .08.08 0 .08 0 .082-.082.082-.082.082-.08 0-.08-.081 0-.081l.082-.081zm.16.243c.082 0 .082.08 0 .16 0 .082-.08.082-.162.082-.08 0-.08-.081 0-.162 0-.08.082-.08.163-.08z" fill="#fff"/><path d="M16.074 17.438c0 .081 0 .081-.082.081h-.162s0-.081.081-.081h.163zm.73.165v-.08c-.08 0-.08 0-.08-.081 0-.162 0-.162.162-.243.08 0 .08 0 .08.081l-.08.08c.08 0 .162.082.162.082-.081 0-.081 0-.081.08.162 0 .162.242 0 .162-.081 0-.163 0-.081.161.08.242.162.242.162.08 0-.08.325-.16.406.082l-.163-.081c0 .161.163.08.163.242h-.081c.162.08.243.242.324.323-.162 0-.162-.161-.324-.161.162.242.405.161.487.403-.163 0-.325-.161-.487-.323.162.243.324.485.243.566-.243-.081-.325-.485-.406-.566 0 .162.163.323.081.485a1.246 1.246 0 01-.162-.646c.081 0 .162-.08.162-.242 0-.162-.08-.162-.08 0 0 .161-.082.161-.407 0-.08.08 0 .08.163.161v.162l.08-.162v.404c0 .08-.08.08-.08 0v-.242c0 .161 0 .242-.081.242l-.082-.404-.08.162v-.243l-.082.081v-.242c-.081.08-.162 0-.244-.08.082 0 .163 0 .244-.082-.081-.08 0-.161.162-.161zm-2.434 1.211c0-.08 0-.161-.082-.242-.081-.08-.081-.08-.081 0 0 .081.081.162.162.242zm-.163-.646c.162.08.162.08.244.242 0 .08 0 .162-.082.08-.08-.08-.08-.241-.162-.322zm0-.402c.162.161.244.161.325.403 0 .081 0 .162-.081.081-.082-.08-.163-.323-.244-.484zm.08-.246c.162.08.325.323.325.484 0 .08-.081.162-.081.08a.87.87 0 00-.244-.564zm.083-.16c.162.08.324.16.324.403 0 .08 0 .162-.081.08 0-.16-.082-.322-.244-.484zm1.216 5.09c.081-.082.162-.243.406-.162.081 0 .081.161.081.161-.081-.08-.081-.08-.162-.08-.163 0-.244 0-.325.08zm-.568-.005c.082 0 .082 0 0 0 .082.081.082.081 0 .081 0 .08-.08 0 0-.08zm-.324 0s.08 0 .08.081v.08s-.08 0-.08-.08c-.082 0-.082-.08 0-.08z" fill="#fff"/><path d="M14.773 22.445c.082.081.082.162 0 .162v-.162zm.082-1.285c-.081 0-.081 0 0 0l-.081.08v-.08c0-.081 0-.081.081 0l-.081-.081-.081.08v-.161l.08-.08c-.161.08-.243.08-.243.08v-.242h-.08v-.161c.08-.082.08 0 .162.16v.081c0 .081.08.081.08.081.082.08.082.242.082.242.081.081.081.081.081 0z" fill="#fff"/><path d="M14.857 21.238s0 .081-.081.162c-.082.08-.082.08-.163.08v-.161c.163-.08.163-.08.244-.08zm1.218-.652v.161c0 .081-.08.081-.08.081v-.161c.08 0 .08-.081.08-.081zm-.165 0v.161c-.08.081-.08.162-.162.162v-.162c.081-.161.162-.161.162-.161zm-.323-.156v.161c0 .08-.081.162-.081.08v-.16c0-.081.081-.081.081-.081zM5.602 3.07c0-.161.162-.242.243-.242l.244.08c.08.082.08.082 0 .082-.244 0-.406 0-.406.161-.081.08-.081.08-.081-.08zm.728.48c.082.082 0 .162 0 .162-.08-.08-.08-.08 0-.161-.08 0-.08 0 0 0z" fill="#fff"/><path d="M5.52 3.313c-.081.08 0 .242.081.323l.162.242c.163.08.244.08.163-.081 0-.08 0-.161.081-.161s.081-.081.162-.081c0-.081 0-.162-.08-.162-.082.081-.163.162-.244.162.162-.081.243-.162.243-.162s.081-.08.163 0c0-.08 0-.08-.082-.161-.243 0-.324.08-.487.242a.447.447 0 01.406-.242c0-.08 0-.08-.081-.162-.081 0-.244 0-.325.081l-.162.162zm.894 1.292c.325.323.65.727.893 1.13v.405l-.162-.404v.404l-.163-.646-.08.323-.082-.404v.484c-.081-.08-.081-.323-.081-.646l-.163.323c-.08-.161 0-.323 0-.565 0-.08-.08.08-.08.323-.082-.161-.082-.323 0-.565l-.082.161v-.323zM8.93 1.698c.081.08.243.08.406.08v.081c.243 0 .487-.08.73-.323h-.08c-.163.081-.163 0 .162-.161h.406c-.163.161-.406.323-.569.484-.324.162-.568.243-.812.162-.162-.08-.243-.162-.405-.242 0-.081 0-.081.162-.081zm1.379.075c.08 0 .08 0 0 0 .08.082 0 .082 0 .082v-.082zm.326.571c.08 0 .08.081 0 0 0 .081.08.081 0 0 0 .081 0 .081 0 0zm.731-.242c.08 0 .08.081 0 .081v-.081c-.082.081-.082 0 0 0zm-.163-.164c.081 0 .081.08 0 0 0 .161 0 .161 0 0 0 .08 0 .08 0 0zm-1.137.242c.082 0 .082 0 0 0 .082.081.082.081 0 0 0 .081 0 .081 0 0zm.405.808c-.081.082 0 .082 0 0-.081 0-.081 0 0 0zm-1.297-.724c.081 0 .243-.08.487-.161l.243-.081c.082-.081.163-.081.082.08-.082.081-.244.162-.325.243-.081.08-.244.161-.487.08-.163-.08-.081-.161 0-.161z" fill="#fff"/><path d="M9.905 2.18c.162-.16.243-.16.405-.241.163-.081.325-.081.488-.081.162-.08.243.08.08.161 0 .081-.08.081-.162.081-.162.08-.243.162-.405.162-.163.08-.244 0-.082-.081.082-.08.082-.08.163-.08.08-.082.243-.082.324-.082-.08-.161-.405 0-.811.162-.082.08-.082.08 0 0z" fill="#fff"/><path d="M10.797 1.617h.243c.163.08.163.08.244.242a.174.174 0 01-.162.162c0-.162-.082-.242-.163-.323-.08 0-.08 0-.162-.08zm-.163.082c.08 0 .08 0 .08-.082V1.7h-.08zm-.162-.163c.08-.08.162-.161.324-.161h.406c.244.08.163.161 0 .08-.08-.08-.243-.08-.406 0 0 .162-.162.081-.324.081 0 .081-.082.081 0 0z" fill="#fff"/><path d="M11.203 1.617c.081 0 .163 0 .163.08 0 .082 0 .162-.082.243.082-.242-.08-.242-.08-.323zm.243-.082v.242l-.08.162c0 .08 0 .08.08.08.082-.08.163-.16.163-.242 0-.161 0-.242.081-.242-.162-.161-.244-.161-.244 0zm-.649.89c0 .08.243.161.243 0 .082-.162-.08-.243 0-.323-.162.08-.243.161-.243.323zm-.082.322c.081-.08.162-.161.243-.08.082 0 .163 0 .163.08v.242c0 .081 0 .081-.163.081-.08 0-.162-.08-.243 0 .081-.162 0-.242 0-.323zm.487-.404c-.081-.08 0-.161 0 0 .081 0 .162 0 .162.081 0 .08-.08.161-.162.08-.081-.08 0-.08 0-.16zm.001.324c0-.081 0-.081.163-.081a.25.25 0 01.08.161c.082.081.082.162 0 .323-.08-.08-.08 0-.162-.08 0-.081-.08 0 0-.162 0 0 0-.08-.08-.161zm.163.883c.082 0 .082 0 .082.082 0 .08 0 0-.082 0-.08 0-.08 0-.08-.081h.08zm-.65-.077c.081 0 .081 0 .081.08l-.081.081c-.081 0-.081 0-.081-.08 0-.081.08-.081.08-.081z" fill="#fff"/><path d="M10.878 4.281h.162v.081c-.081 0-.081 0-.162-.08zm-.163-.08h.325c.162.08.162.08 0 .161h-.325c.082-.08.082-.08 0-.161zm.812-.888c-.081-.081-.243-.162-.406-.243-.162 0-.325 0-.568.081-.081.162-.162.323-.162.565h.08l-.08.081h.08l-.08.08h.08l-.08.162.08.081v.08h.082v.081h.081v.081h.081c0 .081.082.081.163.162h.162c.162-.081.162-.162.244-.323 0 0 .08-.081.08-.162 0 .081.082 0 .082 0l.081-.08v-.243h-.162l-.163-.08-.08.323c0 .08 0 .161-.082.161l-.162-.08c-.082 0 0-.081 0-.081h.08v-.323c-.08 0-.243.08-.324 0h-.162c0-.081.081-.081.081-.162v-.161h.325l.08.08v-.08c0-.081.082-.081.163-.081v.242l.406-.161z" fill="#fff"/><path d="M11.04 3.474c.08-.162.08-.162.08-.081l-.08.08zm0 .481c0-.162 0-.243.08-.404h.081c-.08.08-.08.242-.162.404 0 .08 0 .08 0 0zm-.812-.726c0-.081.081-.081.081 0 0 .161 0 .242-.08.323-.082 0-.163 0-.082-.081s.081-.162.081-.242zm-.08.566c0-.08.082-.08 0 0 .163.242.244.484.569.807.08.081 0 .162-.082.081-.324-.242-.405-.565-.487-.888zm1.055.887c0-.08 0-.162.081-.242.082-.081.082 0 .082.08-.082.081-.163.081-.163.162zM8.525 5.813c0-.081 0-.162.081-.162 0 0-.081 0-.081-.08-.081.08-.163.242-.244.322.081-.242.163-.403.325-.565 0 .08-.081.162-.081.162l.081.08.081-.08v.08c-.081.162-.162.162-.162.243z" fill="#fff"/><path d="M8.363 5.974c0-.08 0-.08.081-.162 0 .081 0 .162-.08.162zm.567.081v-.161l.08-.082c0 .162 0 .162-.08.243zm0 .324c0-.08 0-.162.162-.242-.081.161-.081.161-.162.242zm.244-.085c.081-.242.081-.323.081-.646.081.243.081.323-.081.646zm1.622.891c.082-.242.082-.404.082-.646h-.082c0 .081-.08.242-.08.404 0-.162.08-.242.08-.404h-.08c0 .081 0 .162-.082.323V6.54h-.081c0 .162 0 .242-.081.485V6.54h-.082c0 .162 0 .323-.08.485V6.46h-.082c0 .161 0 .322-.081.565V6.46h-.081c0 .161-.081.322-.081.484v-.565h-.082c0 .242 0 .403-.08.565 0-.242-.082-.484 0-.646l-.082.162c-.081.242-.081.484-.081.726-.081-.323-.081-.484 0-.726l-.081-.081c0 .08-.082.161-.163.242.081-.08.081-.242.081-.323l-.08-.08c0 .16-.082.242-.163.484.162-.323.162-.646.162-1.05 0 .162.081.242.081.404.082 0 .082 0 .082.08V5.57c.08.243.08.404 0 .566h.08s0-.081.082-.081v.08h.081c0-.08 0-.161.081-.242v.243h.082v-.162.162h.08v-.081c0 .08 0 .161.082.242h.162v-.242c0 .08 0 .161.081.242h.082v-.323c0 .08.08.242.08.323h.082v-.242c.081.08.081.161.081.242h.081c0-.08 0-.161-.08-.323.08.08.08.162.08.242h.082c0-.161 0-.323-.082-.484.244.646.244.888 0 1.453zm.324-.645l.081.08.082-.162c.08 0 .08 0 .162.081v-.161c.081 0 .081 0 .162.08v-.403c-.08-.162-.162-.242-.243-.242v.242c0-.162-.081-.242-.163-.242 0 .08.082.161 0 .242l-.08-.081v.161l-.082.081.081.323zm.977-.727c-.081.081-.081 0-.081 0h.08zm-.082-.165c0 .081.081.081.081.162h-.081l-.081-.08h.08v-.082zm-.245-.234l.162.162h-.162v-.162zm0 .399s.08 0 .08.08c0 .081.082.081 0 .162 0 0-.08 0-.08-.081v-.162zm-.243-.079l.082.081c0 .08.08.162 0 .162l-.082-.081v-.162zm-3.33-.406c.081.08.081 0 .163 0 0 .08 0 .08-.082.162 0 0 0-.081-.08-.162zm-.97 10.336v.082l.08-.082h-.08zM4.14 20.188c.163-.08.163 0 .244.161.081.081.163.162.163.243.243.161.162.242-.163.242-.081 0-.162-.08-.162-.242l-.081-.404zm.001.724c-.081.162-.081.243.081.404.082.08.163.08.244.08l-.081-.08.162.08c0-.08-.081-.16-.162-.241l.162.08c0-.08-.081-.161-.162-.242h.08c-.161-.08-.243-.161-.324-.08z" fill="#fff"/><path d="M4.546 20.992c.081 0 .081.08.081.08 0 .082 0 .082-.081.162l-.081-.08c.081-.081.081-.162.081-.162zm2.11-7.023c0-.323.163-.646.325-.969a6.757 6.757 0 00-.325.969zm.731-1.854c-.081 0-.163-.081 0-.162.162-.161.406-.242.65-.242h.405c.162 0 .162.161 0 .161h-.325a1.31 1.31 0 00-.73.243z" fill="#fff"/><path d="M8.36 11.95c.082 0 .244 0 .244.08 0 0-.08.08-.243.08-.081 0-.244 0-.244-.08s.081-.08.244-.08zm.813-2.18l-.162.161c-.081.08-.081.162-.081.162l.162-.162c.081-.08.081-.161.081-.161zm-.729.726c-.081.08 0 .162.081.162.406.161.812 0 1.218-.243l.487-.242c.08-.08.08-.161-.081-.08l-.244.161.081-.242c-.162.08-.243.242-.243.323l-.082-.081c-.08.08-.08.161-.162.242l-.081-.08c-.081 0-.081.08-.162.16v-.16c-.082 0-.082.08-.163.242l.081-.162s-.08 0-.162.162l.162-.485c-.08 0-.162.162-.324.485-.081 0-.081 0-.081-.081l.162-.323c-.081 0-.162.161-.325.323l.163-.404-.163.323v-.161l-.162.161zm.08 6.622c-.08 0 0-.08 0 0l.163.08-.081.081-.082-.161zm.081-.082l.163.08s0 .081-.081.081l-.082-.161z" fill="#fff"/><path d="M8.686 16.958c-.08 0 0-.081 0 0l.163.08-.081.081-.082-.161zm.001-.164c-.081-.08.081-.162.081-.08l.162.16c.082.081-.08.162-.08.081l-.163-.161zm.243-.16c-.081-.081 0-.162.081-.081l.244.162c.081.08 0 .161-.081.08l-.244-.161z" fill="#fff"/><path d="M9.01 16.552c-.081-.081 0-.162.081-.081l.163.161c.08.081 0 .162-.081.081l-.163-.161zm.245-.079c-.081 0 0-.08 0 0l.243.081c0 .08 0 .08-.08.08l-.163-.16zm-.893-1.133c0-.08-.08 0-.08 0v.162c0 .08.08 0 .08 0v-.161zm-.244.244c0-.08-.08-.08-.08 0v.162c0 .08.08 0 .08 0v-.162zm-.324.162l-.081.162c0 .08.081.08.081 0v-.162zm.403-.246c.081.08 0 .08 0 .08v-.08zm-.242.246c.082.08 0 .162 0 .162-.08-.081-.08-.081 0-.162-.08 0-.08 0 0 0zm-.323.158c0-.08-.081-.08-.081 0v.162c0 .08.081.08.081 0v-.162zm2.271-7.748c.081.081 0 .162 0 .162s-.08-.081 0-.162zm.163.16v-.242s.082.081.082.162l-.082.08zm.164.004c.08 0 .08 0 .08.082 0-.082 0 0-.08-.082l-.082.082c0-.082 0-.082.082-.082zm.079.157c.08.081 0 .081 0 .081v-.081zm.162 0h.406c.162 0 .162.08.081.161.081.242-.243.323-.243 0 0-.08-.082-.08-.244-.08-.081 0-.081-.081 0-.081zm-.568 2.425c.081.082 0 .082 0 .082s-.08 0 0-.082zm-.163 0c.082.081 0 .162 0 .162-.08 0-.08-.08 0-.162-.08.081-.08 0 0 0zm.165.162c.163-.08.244-.162.325-.162 0 0-.081.162-.244.243-.162.08-.243.161-.243.08-.081 0 .081-.08.162-.161zm.488-.327c.081-.08.162-.08.162-.08.081 0 0 .08-.162.08 0 .162-.081.162-.163.162.082-.081.082-.162.163-.162zm-.245.731c0-.081.082-.162.082-.243 0-.161.08-.242.243-.242.081-.08.081-.08.162-.08 0 .08-.08.08-.08.16.08-.08.162-.16.243-.16-.081.08-.162.16-.162.242l.08.08c.082-.08.244-.161.325-.161l-.243.242.081.08c.081-.08.244-.16.325-.16l-.163.16h.244c-.162.082-.244.082-.325.162l.081.081c.082-.323.163-.323.325-.323-.081.08-.162.08-.243.162l.08.08c.082-.08.244-.08.325-.08-.08 0-.162.08-.243.08h.325c-.082 0-.163 0-.163.081l.244.162h-.081l-.325-.081h-.162c-.082 0-.082.08-.163.08 0-.08.081-.08.081-.08h-.08c-.082 0-.082.08-.163.08l.081-.08h-.081c-.081.08-.081.08-.162.08 0-.08.08-.08.08-.16l-.08-.082-.163.162c0-.08 0-.08.081-.162v-.161l-.162.161c0-.08.081-.161.081-.161l-.162-.08-.163.16zm-1.705 3.955c0-.162 0-.323.082-.485 0-.08.08-.08.243-.161l1.38-.243c.081 0 .081 0 .081.162 0 .161-.08.242-.08.323-.082.08-.082-.162-.082-.404-.081.242-.081.485-.244.565-.08-.08 0-.323.082-.484-.163.161-.082.323-.244.484-.081 0-.081-.161 0-.403-.081.242-.162.403-.243.403v-.403l-.163.484v-.404c-.081.243-.081.404-.162.485a.512.512 0 010-.485h-.081c-.082.162-.082.243-.163.323-.08 0-.162-.08-.162-.242 0 .242-.081.404-.244.485zm2.192-3.311c0-.08.081-.08 0 0 0 .485-.08.969-.08 1.615-.082-.646-.082-1.13.08-1.615zm.163 0c-.082.485-.082.807-.163 1.373l.081.08c0-.565.082-.968.163-1.453 0-.08-.081-.08-.081 0zm.08.323l.082-.323c.081-.08.081 0 .081.08l-.162.243zm-1.704-.404c-.081.727-.162 1.454-.081 2.019-.081-.969.081-2.019.243-2.18v.08c-.243.808-.243 1.454-.08 2.1-.082-1.05 0-1.696.162-2.019v.081c-.163.727-.163 1.373 0 1.857h.08c-.08-.807-.08-1.372.082-2.018h.081c-.162.807-.162 1.372-.081 1.937l.081-.08c-.081-.808-.081-1.373.081-1.857h.081c-.08.807-.162 1.372 0 1.857h.082c-.082-.889-.082-1.454.08-1.938l.082.08a7.101 7.101 0 000 1.858h.081c0-.727-.081-1.292 0-1.777l.081-.08c-.08.565-.08 1.13 0 1.857h.082c-.082-.808-.082-1.373 0-1.857v1.857h.08c-.08-.889 0-1.454.082-1.857.081 0 .081.08 0 .161a5.384 5.384 0 000 1.615h.081c-.081-.888 0-1.373.081-1.857.081-.08.081 0 .081.161-.08.566-.08 1.05-.08 1.696h-.082c.081 0 .081.08 0 .08l-1.461.243c-.081 0-.163-.08-.163-.162 0-.565.082-1.291.244-1.857zm-.244-.242c-.162.242-.243.646-.324 1.534a2.654 2.654 0 000 1.13c.08.243.162.243.243.243l1.543-.242c.08 0 .243-.081.162-.243l-.081-.161-.081.161-.082-.161-.08.161-.082-.242-.081.242-.081-.161-.081.242-.082-.161-.08.242v-.162.243l-.082-.243-.081.162-.081-.162-.081.162-.082-.08h-.243v.08l-.081-.08c-.082 0-.244-.082-.325-.082l.162-.08c0-.081-.08-.081-.162-.081l.162-.08h-.162l.162-.082c0-.08 0-.08-.162-.161l.162-.08v-.082h-.162l.162-.08c0-.081 0-.081-.162-.081l.162-.08c0-.082 0-.082-.162-.162l.162-.081-.162-.08.162-.082c0-.08 0-.08-.08-.08l.161-.081s-.08-.08-.162-.08l.162-.082-.162-.08.162-.081-.08-.08.162-.082s0-.08-.163-.08l.163-.081v-.08h-.163l.081-.081-.08.161.243-.08v-.081H8.93l.163-.081c0-.08-.081-.08-.163-.08zm2.274 3.716c-.081-.081 0-.081 0-.162h.406c.081 0 .162.08.162.162l.163.161c.08.08 0 .162-.082.162-.162-.162-.405-.243-.649-.323zm-.081 0c-.081-.081-.081 0 0 0 .081.161.243.242.325.322.162.081.324.081.487.081.08 0 .162-.08 0-.08a5.615 5.615 0 01-.812-.323zm-.65-.646c-.08-.081 0-.243.082-.162l.162.162c.081.08 0 .161-.081.08l-.163-.08zm-.162.242c-.081-.08 0-.242.081-.162l.325.243c.081.08 0 .161-.081.161l-.325-.242zm.812-2.584c-.081.08-.081.162.081.162-.081.08-.162.161 0 .242-.244.242-.244.323 0 .242-.244.323-.162.323-.081.242-.163.242-.163.242-.081.242-.163.162-.163.243 0 .243-.082.08-.163.161-.163.323-.08.161-.487.323-.08.484.08.08.243.242.243.485 0 .161.08.161.243.08.081 0 .244-.08.325-.08.162 0 .243-.162 0-.243 0-.08-.081-.161-.162-.08.08-.162 0-.081-.082-.162.082 0 .082-.08-.08 0v-.08c.08 0 .162-.081.162-.162l-.244.08c.081-.08.162-.16.081-.16l-.406.16c.244-.16.325-.242.244-.322l-.244.08c.163-.161.244-.242.244-.323l-.163.081c0-.08.082-.161.244-.161.162-.081.162-.162.162-.243l-.243.162.487-.485c0-.08-.244.081-.568.323v-.08c.324-.162.487-.404.649-.646l-.568.403.487-.565c0-.08-.162 0-.487.323v-.08l.243-.243a.975.975 0 00.406-.404c.081-.161-.162.081-.406.243-.08.08-.162.08-.243.161l.65-.646v-.08c.08-.162-.325.322-.65.484z" fill="#fff"/><path d="M12.502 13.971c.082-.08.082-.162 0-.162v.162zm-.162 0c.081 0 .081 0 0 0v-.162h-.081l.081.162zm-.081.08l.081-.242h-.081v.243zm-.081 0v-.242h-.082l.082.243zm.405-.403h.082s0 .08-.081.08v-.08zm-.324-.08c.081.08 0 .08 0 .08s-.081 0 0-.08zm-.406.242c-.081.08-.081.08 0 .161h.081v.08s.081 0 .081-.08h.082v.242h-.082v.081l.082.08.73-.16c.244 0 .244-.162.244-.405 0-.08 0-.08-.082-.08h-.162l.081-.081c.163-.08.163-.08 0-.08h-.243.162c.081 0 .081-.082 0-.082.081-.08.081-.161-.162-.161.08-.08.08-.161 0-.161 0-.081-.163-.162-.081 0l.08.646c0 .08 0 .161-.08.161l-.731-.162zm.325-.485c0-.08.08 0 .08.08v.162l-.08-.08v-.162zm.811.162c.082.08.082.161.082.242 0 .08-.082.161-.082.08v-.322c-.08-.081-.162 0 0 0zm.163.242l.081.08v.081s-.081 0-.081-.08c-.081 0-.081 0 0-.081zm0 .646v.08c-.081 0-.081 0 0-.08-.081 0-.081 0 0 0zm-.081.161zm0-.403c0-.081.162-.081.08 0l-.08.161v-.162zm-1.462.403c.082-.08.163-.161.325-.242.325-.08.73-.162 1.055-.242.082-.081.163-.081.163.08 0 .324-.081.566-.163.646v-.565h-.08c0 .243-.082.485-.163.566v-.485h-.081l-.081.484v-.403c0-.081 0-.081-.082-.081-.08.484-.162.727-.243.807.081-.323.081-.565.081-.726 0 .242-.081.484-.162.726-.082-.161.08-.403.08-.646l-.161.646c-.082 0-.082-.08 0-.242v-.323c-.082.162-.082.323-.163.485v-.485l-.162.323v-.242l-.163-.08zm1.218-9.693c.243-.161.487-.242.812-.161.162 0 .162.161.08.161-.324-.08-.649-.08-.892 0-.081.081-.081 0 0 0zm-.244.323c.163-.242.487-.323 1.137-.323.162 0 .08.162 0 .162-.082 0-.163 0-.325.08-.081 0-.243.081-.325.081-.243.081-.406.323-.568.566-.081 0-.081 0-.081-.081.243-.404.487-.565.73-.565-.162 0-.324 0-.568.242 0-.08-.081-.08 0-.162zm.65-.161c.08 0 .162.08.08.161-.243.081-.405.243-.649.485 0 .08 0 .161-.162.242 0 .162-.081.242-.244.242l-.162.323c.081.081 0 .162-.162.323-.081.081-.163.081-.163-.08.163-.323.325-.808.487-.808.082 0 .082 0 .082-.161 0-.081.08-.081.08 0 0 .08 0 .08.082 0 .244-.404.487-.646.73-.727zM11.447 7.75c0-.403.08-.565.243-.726.487-.323.65-.727.812-.727a5.67 5.67 0 01.65-.808c.243-.161.243-.08.162.081-.325.404-.568.888-.893 1.05-.162 0-.244.08-.325.161l.162-.08c.082 0 .082 0 .082.08-.163.081-.406.485-.487.243-.082.161-.244.161-.325.323v.242c0 .242-.081.242-.081.161zm1.38-2.1c.162-.16.325-.322.487-.403.162-.08.162.081.081.081s-.243.08-.487.404c-.162.08-.162 0-.081-.081zm-1.218 1.777s.081-.08.081 0c.081-.08.081 0-.081 0 .081.081 0 .081 0 .081v-.08zm0 .485c0 .08 0 .08 0 0l.162-.242c.082-.162.244-.243.406-.404.082.08.163 0 .325-.242.244-.081.325-.243.406-.485.081-.161 0-.242-.081-.08-.163.242-.325.322-.325.484-.162.08-.325.242-.568.404-.081.08-.081.08-.081.161-.163.08-.244.162-.244.404zm0 .323c.081-.242.162-.404.244-.485.08-.08.162-.08.08 0-.08.081-.162.243-.162.485s-.243.242-.162 0zm.325-.162l.162-.403c.081-.162.081-.243.244-.243l.243-.242c.081-.08.081 0 .081.08l-.162.243c0 .242-.081.404-.325.646-.08.08-.08.08-.08 0l.162-.404-.325.323c0 .162 0 .081 0 0zm.487 0l.081-.403c0-.162.081-.243.162-.404l.082-.323c0-.162.08-.08.08.08l-.08.243c.08 0 0 .08 0 .161s0 .162-.082.162c0 .242-.08.484-.162.565-.081.162-.081.162-.081-.08zm-.65.485c.163-.081.325-.162.406-.323.163-.242.244-.242.163 0-.082.161-.163.323-.406.484-.244.081-.325-.08-.163-.161zm-.487.565c.082-.162.325-.323.65-.404.243-.08.406-.242.568-.403.162-.081.162 0 .081.08-.081.081-.081.162-.243.162l-.487.242a1.66 1.66 0 00-.487.323c-.082.242-.082.161-.082 0zm.082.646c-.082.08-.082.161 0 .242.162-.08.162-.404.649-.646.081-.08.081-.08-.081-.08l-.487.322c.162-.242.324-.403.568-.484.162 0 .243-.08.406-.242.081-.081 0-.162-.081-.081-.244.161-.487.242-.731.404a2.456 2.456 0 00-.406.565h.163zm0 .323c-.082.08 0 .161 0 0 .324-.242.487-.485.73-.727a2.06 2.06 0 00.73-.888c.082-.242 0-.323-.08-.161-.163.403-.325.726-.569.888-.324.242-.65.484-.811.888zm.08.242c-.08.08-.08.08 0 0l.488-.484.325-.323c.243-.081.405-.323.487-.808v-.08c-.163.322-.325.565-.488.726l-.487.485c-.08.08-.08.161-.08.242l-.244.242zm.894-.727a1.12 1.12 0 00-.325.243c-.081.161 0 .161.081.08.081-.08.162-.161.244-.323.08.081.08 0 0 0zm-.487.808c0-.162.162-.404.324-.485.163-.08.163-.08.082.081-.082.162-.163.323-.244.404-.081.08-.162.161-.162 0zm0-.404v.162-.081c-.082 0-.082-.08 0-.08zm.73-.242s.081.08 0 .161c0 .081-.081.081-.081.081-.081 0-.081-.08 0-.161 0-.081 0-.081.081-.081zm1.461-5.49c-.893-.081-1.298.242-1.46.484-.163.242-.325.484-.325.807 0 .08.08-.08.243-.242h-.081c0-.08.081-.08.081-.162 0 0 0-.08.081-.08s.081-.081.081-.081h-.08c.243-.323.568-.323.973-.323h.487s.082-.08 0-.08c-.324-.081-.649 0-.974.08.244-.161.569-.161 1.056-.161.08-.081.162-.243-.082-.243zm.649-.159c-.082 0 0 .08.08.161.082.081.082 0 .082-.08-.081 0-.162-.081-.162-.081zm-.487-.162c-.082-.08 0-.161.08-.161.325.08.569.08.813.242.08.08 0 .162-.082.08l-.243-.08c0 .08-.081.08-.163-.08-.08.08-.162.08-.324-.081l.08.242c0 .08 0 .08-.08 0l-.082-.162zm1.136.485c-.081-.08 0-.08 0 0-.081-.162-.081-.242 0-.242.244 0 .487-.162.812 0l.162.161c.082.242 0 .323-.08.162-.082-.081 0-.162-.163-.243.08.162.162.323.162.485.244.242 0 .242-.081.161l-.081-.403v.323c-.081 0 0-.162-.081-.323 0-.081 0-.243-.082-.243-.162-.08-.324 0-.487 0 .244 0 .406 0 .406.081.081.08.081.242.081.323-.08.08-.08.08-.08-.08v-.162c0-.08-.082-.08-.244-.08-.082.08-.163.08-.244.08zm.326 7.346c-.08-.081.082-.162.163 0 .243.322.406.646.568.968.081.243 0 .243-.081.081-.163-.403-.406-.726-.65-1.05zm.325.08c-.081-.08 0-.161.081 0 .163.242.325.485.406.808.081.161 0 .161-.081.08-.081-.403-.244-.646-.406-.888zm-3.49.162c.324.565.73 1.05 1.136 1.534.081.08 0-.162.081-.08.081.16.243.403.325.403.08-.08-.163-.242-.163-.404l.569.646c.08-.08-.325-.484-.569-.807l.082-.081.649.888c-.081-.323-.406-.646-.65-.969v-.08c.163.16.325.403.407.565.162.242.405.484.405.565.244.08-.568-.808-.974-1.534v-.081c.487.727.893 1.292 1.3 1.615.08 0 .08 0 .08-.08-.406-.485-.893-.97-1.136-1.454v-.081c.406.484.65 1.13 1.461 1.615.081 0 .081.08.162.08.163-.16-.73-.322-1.38-1.534v-.08c.244.323.325.484.569.726.324.323.811.808.893.727.08-.08-.731-.646-1.218-1.292.325.485.812 1.05 1.542 1.454.081.08.081.08.163.08.324 0-.731-.484-1.218-1.05v-.08c.162.161.325.323.568.484l.73.485c.163.08.325.161.407.161.162-.08-.73-.403-.975-.646.163.081.244.162.406.162.406.161.65.323.731.242 0-.08-.162-.161-.487-.323-.081-.08 0-.08.081 0 .406.162.65.242.73.242.163-.08-.08-.161-.324-.323.325.162.568.243.73.243.082 0-.162-.162-.405-.323.243.161.974.403.325 0 .243.161.568.242.162-.081h.162c.244.161.325.323.163-.08.243.322.405.403.162 0l.325.241c-.082.081-.082.081 0 .162.243.161.324.161.243 0 0-.242-.081-.485-.243-.565-.244-.162-.163 0 .08.403l-.243-.242c-.08-.08-.162-.161-.243-.161-.487 0-.974.08-1.38.161-.325.08-.65 0-.73-.08-.163-.081-.163-.162-.082-.243.081-.08 0-.161-.081-.161l-.406-.727.162.162c.162.242.244.403.244.403a4.133 4.133 0 01-.325-.807c.243.484.487.807.568.807 0-.161-.243-.484-.406-.888.082.08.082.08.163.162l.162.161c-.162-.323-.325-.565-.487-.646-.325-.08-.487-.162-.406.08l-.162-.16h-.163c-.08 0 0 .08.163.242l-.163-.243c-.08 0-.162-.08-.162 0l.081.162-.162-.242c-.081-.081-.162-.081-.162 0l.324.484-.243-.242c-.082-.162-.244-.242-.325-.323-.162 0 .162.242.325.646l-.406-.646s-.244-.081-.244 0l.487.726c-.243-.242-.487-.484-.568-.726h-.162l.65.807c-.163-.08-.245-.242-.326-.323a1.687 1.687 0 01-.324-.484c0-.081-.163 0-.163 0-.08.08.487.565.73.888-.324-.323-.567-.565-.81-.888-.082-.081-.163-.081-.244 0 0 .08.649.726.893 1.13-.325-.404-.731-.726-.975-1.13-.08-.081-.162-.081-.162 0 0 .08.568.646 1.055 1.292-.324-.404-.73-.888-.893-.97-.08 0 .244.324.893 1.131-.324-.323-.65-.646-.893-.969-.08.081.244.485.812 1.13l-1.299-.968c-.08-.081-.08-.081 0 0z" fill="#fff"/><path d="M15.262 5.326v.403c0 .081.081.081.081.081v-.404c-.08 0-.08 0-.08-.08zm.081 0v.242c0 .08 0 .161.082.242v-.323c0-.08 0-.08-.082-.161zm.163 0v.323c0 .08 0 .242.08.323 0 .08.082.161.082.08 0-.242-.081-.403-.081-.565 0-.08-.081-.08-.081-.161zm.162.161v.323c0 .08 0 .162.081.242l.081.081c0-.242-.08-.404-.08-.565-.082 0-.082-.08-.082-.08zm.162.162v.242c0 .08 0 .161.082.242l.08.08c0-.16-.08-.322-.08-.484-.082 0-.082-.08-.082-.08zm.082.161v.242c0 .081 0 .162.08.243l.082.08c0-.161-.081-.323-.081-.403 0-.162 0-.162-.082-.162zm.162.162v.242c0 .08 0 .161.081.161l.081.081c0-.161-.08-.242-.08-.404 0-.08-.082-.08-.082-.08zm.162.161v.162c0 .08 0 .08.081.161l.082.08c-.082-.16-.082-.241-.163-.403zm.812 1.292c-.081-.08-.162 0 0 .162.162.161.244.08.244.08l-.244-.242zM14.37 4.68s.081.161.081.242c0 .08.082.242.082.242-.082-.161-.163-.323-.163-.484zm-1.38 2.018c.081.485.487 1.13 1.055 1.615-.08-.161-.487-.565-.73-.969-.163-.323-.244-.565-.325-.646zm.081-.161c.081.484.406 1.05.974 1.453-.08-.161-.405-.484-.65-.807-.161-.404-.243-.565-.324-.646zm.081-.242c.082.484.406.969.893 1.372 0-.08-.405-.403-.568-.807-.162-.242-.243-.485-.325-.565zm.082-.162c.08.404.324.888.811 1.292 0-.08-.324-.404-.568-.727-.081-.323-.162-.484-.243-.565zm.162-.242c0 .404.325.807.73 1.211 0-.08-.324-.404-.486-.646-.163-.323-.244-.484-.244-.565zm.081-.162c0 .323.244.808.65 1.05 0-.08-.325-.323-.406-.565-.163-.242-.163-.404-.244-.485zm.081-.161c0 .323.244.727.569.969 0-.08-.244-.323-.406-.565-.082-.243-.082-.404-.163-.404zm.163-.242c.08.08.08.161.162.403.081.243.325.404.325.485-.325-.242-.487-.565-.487-.888zm.162-.162c.081.081.081.162.162.323.082.162.244.404.244.404-.244-.162-.406-.485-.406-.727zm.162-.161l.163.323c0 .161.162.323.162.323-.243-.162-.406-.404-.325-.646zm-1.299 4.28V9.04c.325.484.812 1.05 1.3 1.534-.082-.242-.731-.807-1.137-1.292-.081-.161-.162-.242-.244-.404v-.161c.244.565.73 1.05 1.38 1.615-.08-.162-.73-.727-1.055-1.211-.162-.243-.244-.404-.244-.565v-.081c.244.565.731 1.13 1.3 1.615-.082-.162-.731-.727-1.056-1.212-.162-.242-.244-.403-.244-.565v-.08c.244.565.894 1.21 1.38 1.695-.08-.161-.811-.807-1.136-1.292-.162-.242-.244-.403-.244-.565V7.91c.244.565.812 1.21 1.38 1.695-.08-.161-.811-.727-1.055-1.211-.162-.242-.243-.484-.325-.565v-.162c.163.566.731 1.211 1.3 1.615-.082-.161-.731-.646-.975-1.13l-.325-.646v-.162c.163.566.65 1.212 1.218 1.615 0-.161-.65-.646-.893-1.05 0-.322-.081-.565-.081-.726V7.02c.081.566.568 1.212 1.218 1.696-.081-.161-.569-.646-.812-1.05-.325-.403-.325-.646-.406-.726.162-1.454.812-2.342 1.705-2.503 0 .161 0 .403.081.565 0-.081 0-.243-.081-.404v-.162h.081c0 .243.081.404.162.404-.08-.08-.08-.242-.08-.404h.08c0 .243.082.485.163.485-.081-.162-.081-.323-.081-.404 0 .081.08.162.08.242.082-.08 0-.161 0-.242.082-.08.244-.08.407.081.08.08 0 .08-.082.08h-.08l.162.081s0 .081-.082.081h.406c.082 0 .082.081.082.081l-.082.08c.163 0 .406.081.65.162 0 .081-.081.081-.244 0 .081.081.244.081.163.162 0 .08-.244 0-.406.161h.243c.081.08.081.08-.08.08.162.162.243.243.324.082 0-.081.081-.081.162 0 .163.08.244.08.081.161.082 0 .082.08 0 .08-.162 0-.162.082.082.082.08.08.162.08.08.161-.243 0-.243.08.082.08.081 0 .081.082.081.082-.162 0-.081.08.081.08 0 0 .081.081 0 .081-.162 0-.162.08.081.08 0 .082.163.082.163.162.162 0 .243.081.081.081.244 0 .325.08.325.242 0 .081-.325-.161-.244.404l.081.08c.082 0 0-.241.163-.241v.242c0 .08-.081.161-.244.08-.081-.08-.162-.16-.162-.242v-.161c-.081 0-.163-.08-.163-.162v-.08c-.162 0-.243 0-.324.161 0 .08-.081 0-.081-.08h-.082s0-.081-.08-.081h-.082s0-.081-.081 0c-.081.08-.081.08-.081 0 0-.081.08-.162-.082 0h-.08c-.082-.162-.082-.162-.163 0 0 .08-.081.08-.081 0-.082-.243-.082-.243-.082 0 0 .08-.08.08-.08 0-.082-.243-.082 0-.163-.081-.081-.162 0-.323-.162-.323l.08.323c0 .08-.08.08-.08 0 0-.242-.163-.646-.163-.485l.082.485c0 .08-.082 0-.163-.08l-.162-.647c0-.161 0 .323.08.565h-.08c0-.08-.081-.646-.163-.565-.08.08.163.646 0 .565l-.08-.565v.565c-.163-.242 0-.726-.082-.807l-.081.646c.081.484.487.565.487.727l-.325-.162c.081.162.244.323.325.485-.081 0 0 .161.081.242-.081 0-.081.08.081.242.082 0 .082.08.082.08-.244-.08-.244-.08.08.243-.243 0-.243 0 0 .162 0 0 .082.08.082.161 0 .08 0 0-.081 0-.082 0-.082-.08-.163-.08-.08 0 0 .08.244.322.081.081.081.081.081.162-.325-.243-.325-.162.081.161a.622.622 0 01.081.242c-.324-.242-.487-.403 0 .081.082.08.082.162.082.162-.569-.404-.244-.162.08.242v.08c-.486-.403-.568-.322 0 .243 0 .08.082.08 0 .161h-.08c-.406-.323-.325-.242.08.323.082.081.082.162 0 .162-.486-.485-.568-.646 0 .161.082.081.082.162 0 .162-.405-.565-.405-.485 0 .08v.081c-.405-.484-.486-.565 0 .081.082.162.082.162 0 .08-.486-.564-.486-.484 0 .082.082.08.082.08 0 .08-.568-.565-.568-.565 0 .081 0 .162 0 .162-.08.08-.082-.08-.082-.08-.082-.16-.324-.404-.405-.404 0 .16-.08.082-.08.082-.162 0-.325-.403-.406-.403-.081 0h-.162c0-.08-.082-.08-.082-.16-.324-.324-.406-.324-.08.08l-.326-.08c-.08 0-.08 0-.162-.081-.162-.243-.244-.404-.487-.646 0 .08.243.242.406.484.081.162-.163.08-.244.08-.08-.16-.162-.16-.324-.403-.487-.888-.975-1.453-1.38-1.938zm0 .241v-.161c.325.404.894 1.13 1.3 1.534.162.242.162.242.243.323 0 .08 0 0-.081 0-.081-.08-.081-.08-.163-.242a18.763 18.763 0 01-1.299-1.454zm-.08.243c.405.403.486.565.892 1.05l.325.322c.081.081.244.081.162 0-.08-.08 0 0-.08-.161-.325-.404-.894-1.05-1.219-1.454 0 .081-.08.162-.08.243zm-.082.242c.325.404.65.727 1.056 1.211h.162c0-.08-.325-.323-.325-.404-.325-.403-.487-.565-.812-.969 0 0 0 .081-.08.162zm-.081.242c.243.323.487.565.812.888.08.081.162.081.162 0a50.277 50.277 0 00-.893-1.13c0 .08 0 .161-.081.242zm0 .323c.243.242.406.323.568.565h.163c-.244-.323-.488-.484-.731-.807v.242zm0 .242c.081.081.243.162.325.243h.162c-.162-.162-.325-.243-.487-.485v.242zm.243.323c-.162 0-.162 0-.162-.161l.162.161zm1.787-6.62c-.082.16 0 .403.162.645 0-.08-.081-.161-.081-.323 0-.161 0-.323-.082-.323zm.162 5.651c0-.161-.081-.242-.244-.323 0 0 .082.081.163.243.08 0 .08 0 .08.08zm.081.323s-.081-.08-.162-.242c-.082-.161-.244-.242-.244-.323.244.242.406.404.406.565zm0 .404l-.162-.323c-.082-.161-.244-.323-.325-.404.325.243.487.485.487.727zm.081.323c0-.323-.162-.484-.487-.727 0 .081.244.243.325.485.081.161.081.242.162.242zm-.65-6.379c0 .162.082.404.325.565l-.162-.323c-.081-.08-.162-.242-.162-.242z" fill="#fff"/><path d="M6.574 4.116c-.162-.081-.162 0-.162.161 2.03 2.907 5.196 7.106 8.849 12.112v.08l.324.162-.162-.404-.081.081C12.5 12.352 9.253 7.668 6.574 4.116zm-.406.161c0 .081 0 .162-.08.081-.163-.162-.082-.323.08-.565.082-.162.325-.162.487 0 .082.08.082.08-.08.08-.325 0-.488.162-.407.404zM4.626 1.693c.325.323.568.727.893 1.13 0 .082 0 .082-.081.082-.325-.404-.569-.808-.812-1.212 0-.08-.081-.08 0 0z" fill="#E3B800"/><path d="M12.016 5.005c-.081 0-.081.08 0 0l.162-.162c.082-.161 0 .081.082 0 .08 0 .162-.242.162-.242l.162-.08c.082-.081.082-.081-.08-.081-.082.161-.244.323-.326.403l-.162.162zm-.325-.08v.08s-.08.08-.08 0v-.08h.08zM7.47 4.762c-.081 0-.081.08 0 .08h.162c.081 0 .081 0 .163.081.08.08.08.162.162.08 0 0-.162-.16-.081-.16h.081c.162.16.325.242.325.242l-.163-.243c0-.08.082 0 .082 0l.243.243c0 .08 0 0-.081-.162 0-.08.081-.08.081 0 .162.162.325.404.325.323v-.161c0-.081.081-.081.081 0l.162.161v-.08c0-.081 0-.081.082 0l.243.242c.081.08.081 0 .081 0l-.08-.081c0-.08 0-.08.08 0l.325.161c.081 0 .081 0 0-.08h.162c0 .08.081.08.163.161 0 0 .08 0 .08-.08l.326-.081c.08 0 .08-.081 0-.081-.406.08-.893-.08-1.38-.404-.65-.323-1.218-.323-1.624-.161zm.487-.404c0 .08 0 .08 0 0 .081 0 .162 0 .244.08 0-.16.08-.16.162.081 0-.161 0-.242.162.081 0-.161 0-.161.163.08 0 .082.08.082.08 0-.08-.241 0-.241.082 0 .081.082.081.082.081 0 0-.16.081-.16.244.082v.08c0-.161 0-.161.162.081.081 0 .244.08.406.242 0 0 .081.081.081 0-.081-.161 0-.08.162 0l.082-.08c-.325-.162-.65-.243-.812-.404-.244-.162-.325-.162-.65-.323-.243-.162-.405-.08-.649 0zm1.218 0c.243 0 .487.08.65.242-.082-.08-.163-.08-.244-.08v.16c-.082-.16-.163-.16-.244-.16h-.081c-.081-.162-.081-.162-.162-.081 0-.081 0-.081.08-.081zM5.684 6.135c.162-.242.243-.323.325-.161.162-.323.324-.323.406-.081.162 0 .243.323.243.727l-.162-.485v.323c-.163-.484-.974-.161-.812-.323zm1.055.081l.081.08v.162l-.08-.08v-.162zm-1.136 1.13c0-.08.08-.161.243-.161v.08l.244-.08v.08l.243-.16c-.08.241-.162.322-.08.322 0 0 .243-.242.324-.161-.162.161-.081.08.162-.081.081 0-.08.161-.08.161s.08-.08.243-.161c.08 0 .162-.162.162-.08 0 .08-.081.08-.081.16-.081.162-.081.162.243 0 .082 0 .082-.08.163-.08-.163.242-.081.242.162 0 0 0 .081-.08.162-.08-.405.403-.324.403.082.241-.244.243-.163.243.162 0h.081c-.081.162-.081.243 0 .243.081-.081.244-.081.325-.081-.162.161-.162.242.081.161.081 0 0 .081-.162.243 0 .08-.081 0-.081-.162 0 .08-.082.08-.082 0l-.162.323h-.081v-.242c0-.08-.081-.08-.081 0v.242l-.082-.08c0 .08-.08.16-.162.16-.081-.08-.081-.08-.162 0h-.081c0 .082-.082.082-.082.082-.08.08-.162.08-.243.161l-.081-.08-.163.16-.08-.08-.082.162-.162.08c0 .081.08.081.162 0 .162 0 .487-.08.73-.161.244-.08.406-.08.65-.162.162-.08.406-.242.65-.403.08.08 0 .161-.406.484l-.244-.08.081.16c-.081.082-.081.082-.162.082l-.163-.081.082.161c-.163 0-.163-.161-.325-.08l.081.161h-.243v.162L7.064 8.8v.08c-.081 0-.081 0-.162.081.568.081 1.136-.08 1.786-.403 0 0 .08 0 .08.08a1.256 1.256 0 01-.486.646l.08-.323c-.161.081-.405.485-.567.566l.162-.404-.487.404c0-.081 0-.162.162-.323-.162 0-.406.323-.406.323-.08-.081.082-.162.163-.243-.163 0-.244.081-.325.162 0-.08.081-.162.162-.242l-.406.161c0-.08.163-.161.163-.242-.325.08-.487.161-.487.161l.162-.161-.325.161.163-.242-.406.162.081-.162-.244.162.082-.243c-.163.081-.244.162-.325.162.081-.08.162-.162.081-.242-.162.08-.243.161-.325.161l.082-.161c-.082.08-.244.161-.325.242l.162-.242V8.8l-.243.242c.08-.08.08-.161.08-.242l-.162.08V8.8l-.243.242s0-.08.081-.161l-.243.161c0-.161.243-.323.487-.404.324-.08.568-.08.811-.161.325-.08.569-.08.893-.242.163-.081.325-.081.488-.243H6.82v-.161l-.162.161v-.161l-.162.323V7.75l-.081.404-.082-.404-.162.485V7.75l-.081.485-.163-.485-.08.485-.082-.485-.081.485-.081-.485v.485L5.44 7.75v.404l-.162-.323-.081.404V7.83l-.081.404c-.163-.323-.163-.566-.082-.727.163-.162.325-.162.569-.162zm-1.3 2.18l-.08.162c.08 0 .08-.08.162-.08l-.081.16c.081 0 .243-.16.325-.241l-.082.161c.082 0 .163-.161.244-.242v.242c.081 0 .162-.161.243-.242v.161c.082 0 .163-.161.244-.161l.081.161c.081 0 .081-.08.163-.161v.161l.162-.161v.161l.162-.08.081.08.163-.08v.161l.162-.08v.08l.163-.08v.16l.162-.08v.162l.243-.162-.08.162.243-.162v.162l.243-.081-.162.242c.162 0 .244-.08.325-.161l-.081.242c.162 0 .324-.162.405-.323 0 .08 0 .161-.08.323a.632.632 0 00.324-.323l-.081.242c.081 0 .243-.08.325-.242v.242c.08-.08.162-.161.162-.242.081.08.243 0 .243-.162.082-.161 0-.242-.08-.161-.407.323-1.056.404-1.868.161-.568-.161-1.136-.161-1.705-.161-.324-.162-.568-.08-.65.08zm3.41.727l.082-.08c0 .08 0 .08-.082.08 0 .081 0 .162-.08.162 0 0 .08-.081.08-.162zm.244 0c0-.08.081-.08.081-.08s0 .08-.081.08c0 .162 0 .162-.081.162 0 0 0-.081.081-.162zm.162-.161c.082-.081.163-.162.163-.081 0 0 0 .162-.081.242-.082.081-.163.162-.163.081 0 0 .081-.08.081-.242zm-.65.161c.082 0 .163 0 .163.081 0 .08-.08.08-.162.08-.081 0-.162 0-.162-.08-.082 0 .08-.08.162-.08zm4.06-5.329c0-.08.244-.242.65-.484.162-.162.324-.162.405-.162h.163c.08.08.08.08 0 .08-.082 0-.082-.08-.163 0-.08 0-.08.082-.162.082l-.081-.081c-.081.08-.163.323-.244.484v-.08c-.081 0-.081.161-.162.242 0-.08 0-.162-.081-.162-.163.081-.244.081-.325.081z" fill="#0091D1"/><path opacity=".5" d="M45.393 9.071l-2.59 5.661c-.11.251-.221.462-.332.634-.108.172-.22.314-.339.425a1.05 1.05 0 01-.386.241c-.144.05-.303.075-.478.075a.868.868 0 01-.44-.107v-.44a.62.62 0 00.107.032 1.166 1.166 0 00.274.021.772.772 0 00.553-.215c.154-.143.3-.365.44-.666l.328-.714-2.364-4.947h.602l2.036 4.345h.053a114.046 114.046 0 00.602-1.375c.115-.257.234-.526.36-.805.286-.638.609-1.359.967-2.165h.607zm4.173 2.09V16h-.494v-1.982a2.852 2.852 0 01-.86.376 2.412 2.412 0 01-.574.065c-.527 0-.942-.153-1.246-.457-.305-.304-.457-.72-.457-1.246V11.16h.494v1.595c0 .358.113.65.339.875.229.222.538.333.929.333.19 0 .369-.025.537-.075a4.31 4.31 0 00.44-.166 2.57 2.57 0 00.398-.253v-2.31h.494zm5.994 2.417c0 .358-.059.689-.177.993-.118.301-.278.56-.478.78-.2.217-.439.39-.715.515a2.117 2.117 0 01-.886.188c-.28 0-.52-.045-.725-.135a2.481 2.481 0 01-.516-.306 2.146 2.146 0 01-.408-.44h-.053v2.589h-.5V11.16h.333l.167.821h.053c.111-.16.247-.306.408-.435.14-.11.312-.213.516-.306.204-.093.446-.138.725-.134.315 0 .61.06.886.183.276.125.514.299.715.52.2.219.36.479.478.78.118.3.177.63.177.988zm-2.256 1.982c.236 0 .46-.05.672-.15.21-.101.397-.237.558-.409.161-.175.29-.385.387-.628.097-.244.145-.509.145-.795a2.093 2.093 0 00-.532-1.418 1.802 1.802 0 00-.558-.414 1.492 1.492 0 00-.672-.145c-.236 0-.46.048-.671.145-.212.1-.398.238-.559.414a2.02 2.02 0 00-.386.628 2.12 2.12 0 00-.146.79c0 .286.049.551.145.795.097.243.226.453.387.628s.348.312.559.408c.211.1.435.15.671.15zm7.423-.769a1.889 1.889 0 01-.28.457 2.137 2.137 0 01-.988.698 2.2 2.2 0 01-.714.108 2.242 2.242 0 01-1.649-.704 2.426 2.426 0 01-.483-.779 2.695 2.695 0 01-.178-.993c0-.358.06-.688.178-.989.118-.3.277-.56.478-.779.2-.218.438-.392.714-.52.276-.126.571-.187.886-.183.301 0 .584.057.849.172a2.2 2.2 0 01.704.489 2.338 2.338 0 01.644 1.648.92.92 0 01-.01.15 8.516 8.516 0 01-.044.232H56.93c.028.265.093.507.193.725.1.215.23.4.387.553.157.154.34.274.548.36.207.086.437.127.687.124a1.521 1.521 0 001.166-.511c.082-.093.152-.179.21-.258h.606zm-2.036-3.19a1.6 1.6 0 00-.623.124 1.766 1.766 0 00-.52.354c-.155.15-.285.33-.393.537a2.353 2.353 0 00-.225.688h3.464a2.125 2.125 0 00-.193-.688 2.017 2.017 0 00-.37-.537 1.68 1.68 0 00-.522-.354 1.561 1.561 0 00-.618-.124zm6.054-.44v2.31l2.035-2.31h.66l-2.088 2.31L67.662 16H67l-2.255-2.53V16h-.495v-4.84h.495zM61.995 16h-.661l2.31-2.53-2.09-2.31h.66l2.037 2.31L61.995 16zm10.726-.494v1.762h-.494V16h-4.072v1.268h-.494v-1.762h.274a1.09 1.09 0 00.322-.242c.083-.09.161-.21.237-.36.075-.15.127-.335.155-.553l.333-3.19h3.024v4.345h.715zm-3.577-1.155a1.767 1.767 0 01-.339.913c-.082.104-.17.185-.263.242h2.97v-3.851h-2.09l-.278 2.696zm8.588.44a1.883 1.883 0 01-.28.457 2.134 2.134 0 01-.988.698 2.2 2.2 0 01-.714.108 2.243 2.243 0 01-1.649-.704 2.424 2.424 0 01-.483-.779 2.695 2.695 0 01-.178-.993c0-.358.06-.688.178-.989.118-.3.277-.56.478-.779.2-.218.438-.392.714-.52.276-.126.571-.187.886-.183a2.115 2.115 0 011.553.66 2.336 2.336 0 01.644 1.65.92.92 0 01-.01.15 7.313 7.313 0 01-.022.123l-.022.108h-3.904c.028.265.093.507.193.725.1.215.23.4.387.553.157.154.34.274.547.36.208.086.437.127.688.124.175 0 .337-.024.483-.07a1.499 1.499 0 00.682-.441c.083-.093.153-.179.21-.258h.607zm-2.036-3.19a1.6 1.6 0 00-.623.124 1.769 1.769 0 00-.52.354c-.155.15-.285.33-.393.537a2.347 2.347 0 00-.225.688h3.464a2.125 2.125 0 00-.193-.688 2.017 2.017 0 00-.371-.537 1.68 1.68 0 00-.521-.354 1.561 1.561 0 00-.618-.124zm7.375-.44V16h-.5v-2.256h-2.965V16h-.5v-4.84h.5v2.09h2.965v-2.09h.5zm5.5 0V16h-.5v-4.018L85.047 16h-.44v-4.84h.5v4.013l3.023-4.012h.44zm5.5 3.63a1.889 1.889 0 01-.28.457 2.136 2.136 0 01-.988.698c-.211.072-.45.108-.714.108a2.242 2.242 0 01-1.65-.704 2.426 2.426 0 01-.482-.779 2.697 2.697 0 01-.178-.993c0-.358.06-.688.178-.989.118-.3.277-.56.478-.779.2-.218.438-.392.714-.52.276-.126.571-.187.886-.183a2.115 2.115 0 011.552.66 2.338 2.338 0 01.645 1.65.922.922 0 01-.01.15 8.48 8.48 0 01-.022.123l-.022.108h-3.905c.03.265.094.507.194.725.1.215.229.4.386.553.158.154.34.274.548.36.208.086.437.127.688.124.175 0 .337-.024.483-.07a1.499 1.499 0 00.682-.441c.083-.093.153-.179.21-.258h.607zm-2.036-3.19a1.6 1.6 0 00-.623.124 1.769 1.769 0 00-.52.354c-.155.15-.286.33-.393.537a2.353 2.353 0 00-.226.688h3.465a2.125 2.125 0 00-.194-.688 2.014 2.014 0 00-.37-.537 1.68 1.68 0 00-.521-.354 1.56 1.56 0 00-.618-.124zm3.03 4.071a.373.373 0 01.381-.387c.11 0 .202.04.274.119.075.075.112.182.112.322 0 .19-.039.364-.118.521a2.04 2.04 0 01-.247.403c-.104.132-.22.245-.349.338l-.113-.107c.072-.072.138-.149.2-.231.05-.072.098-.158.144-.258.05-.1.082-.213.097-.338a.371.371 0 01-.274-.108.371.371 0 01-.108-.274zm8.19-4.511V16h-.499v-4.345h-2.965V16h-.5v-4.84h3.964zm5.721 2.417a2.7 2.7 0 01-.178.993c-.118.301-.277.56-.478.78-.2.217-.438.39-.714.515a2.117 2.117 0 01-.886.188c-.315 0-.611-.063-.887-.188a2.199 2.199 0 01-.714-.516c-.2-.218-.36-.478-.478-.779a2.699 2.699 0 01-.177-.993c0-.358.059-.688.177-.989a2.5 2.5 0 01.478-.779c.201-.218.439-.392.714-.52.276-.126.572-.187.887-.183.315 0 .61.06.886.183.276.125.514.299.714.52.201.219.36.479.478.78.119.3.178.63.178.988zm-4.018 0a2.129 2.129 0 00.526 1.423c.162.175.349.312.564.408.212.1.435.15.672.15.236 0 .46-.05.671-.15.211-.1.398-.236.559-.408a2.05 2.05 0 00.526-1.423c0-.287-.046-.55-.14-.79a2.008 2.008 0 00-.386-.628 1.804 1.804 0 00-.559-.414 1.49 1.49 0 00-.671-.145c-.237 0-.46.048-.672.145a1.86 1.86 0 00-.564.414 1.943 1.943 0 00-.381.628c-.097.24-.145.503-.145.79zm9.518 1.928v1.762h-.495V16h-4.071v1.268h-.494v-1.762h.274c.118-.057.226-.138.322-.242.083-.09.161-.21.237-.36.075-.15.127-.335.155-.553l.333-3.19h3.024v4.345h.715zm-3.578-1.155a1.753 1.753 0 01-.134.553 1.54 1.54 0 01-.204.36c-.082.104-.17.185-.263.242h2.97v-3.851h-2.089l-.28 2.696zm7.321-.88c.161.064.308.148.441.252.111.09.211.207.3.354.094.147.14.33.14.548 0 .19-.039.369-.118.537a1.33 1.33 0 01-.317.44 1.528 1.528 0 01-.473.296 1.616 1.616 0 01-.58.102h-2.089v-4.84h1.928c.219 0 .419.035.602.103.186.064.342.154.467.268.129.111.229.244.301.398.075.154.113.318.113.494 0 .19-.04.353-.119.489a1.357 1.357 0 01-.241.327 1.235 1.235 0 01-.355.231zm-2.197-1.816v1.595h1.429c.308 0 .55-.082.725-.247a.769.769 0 00.263-.58c0-.19-.089-.365-.268-.527-.179-.16-.419-.241-.72-.241h-1.429zm0 2.09v1.76h1.59a1.016 1.016 0 00.913-.552.69.69 0 000-.65.848.848 0 00-.209-.28.989.989 0 00-.312-.198.957.957 0 00-.392-.08h-1.59zm8.31 1.046a1.899 1.899 0 01-.28.457 2.134 2.134 0 01-.988.698 2.215 2.215 0 01-.714.108 2.243 2.243 0 01-1.649-.704 2.426 2.426 0 01-.484-.779 2.699 2.699 0 01-.177-.993c0-.358.059-.688.177-.989a2.5 2.5 0 01.478-.779 2.26 2.26 0 01.715-.52 2.04 2.04 0 01.886-.183 2.116 2.116 0 011.552.66 2.333 2.333 0 01.645 1.65.942.942 0 01-.011.15 3.245 3.245 0 01-.022.123l-.021.108h-3.905c.029.265.093.507.194.725.1.215.229.4.386.553.158.154.34.274.548.36.208.086.437.127.688.124.175 0 .336-.024.483-.07a1.558 1.558 0 00.682-.44c.082-.094.152-.18.21-.258h.607zm-2.036-3.19c-.219 0-.426.041-.623.124a1.76 1.76 0 00-.521.354c-.154.15-.285.33-.392.537a2.336 2.336 0 00-.226.688h3.465a2.14 2.14 0 00-.194-.688 2.026 2.026 0 00-.37-.537 1.686 1.686 0 00-.521-.354 1.566 1.566 0 00-.618-.124zm7.702 3.905v1.762h-.494V16h-4.071v1.268h-.495v-1.762h.274c.119-.057.226-.138.323-.242.082-.09.161-.21.236-.36.075-.15.127-.335.156-.553l.333-3.19h3.024v4.345h.714zm-3.577-1.155a1.78 1.78 0 01-.338.913 1.045 1.045 0 01-.264.242h2.971v-3.851h-2.09l-.279 2.696zm8.808-.773c0 .358-.059.689-.177.993-.118.301-.277.56-.478.78-.2.217-.438.39-.714.515a2.117 2.117 0 01-.886.188c-.315 0-.611-.063-.887-.188a2.199 2.199 0 01-.714-.516c-.2-.218-.36-.478-.478-.779a2.699 2.699 0 01-.177-.993c0-.358.059-.688.177-.989a2.5 2.5 0 01.478-.779c.201-.218.439-.392.714-.52.276-.126.572-.187.887-.183.315 0 .61.06.886.183.276.125.514.299.714.52.201.219.36.479.478.78.118.3.177.63.177.988zm-4.017 0a2.129 2.129 0 00.526 1.423c.161.175.349.312.564.408.212.1.435.15.672.15.236 0 .46-.05.671-.15.211-.1.397-.236.559-.408a2.05 2.05 0 00.526-1.423c0-.287-.047-.55-.14-.79a2.008 2.008 0 00-.386-.628 1.816 1.816 0 00-.559-.414 1.49 1.49 0 00-.671-.145c-.237 0-.46.048-.672.145a1.86 1.86 0 00-.564.414 1.943 1.943 0 00-.381.628c-.097.24-.145.503-.145.79zM138.64 16l-1.702-3.738V16h-.5v-4.84h.5l1.922 4.233 1.923-4.232h.494V16h-.494v-3.738L139.081 16h-.441zm6.107-4.399c-.236 0-.46.048-.671.145-.212.1-.4.238-.564.414a2.134 2.134 0 00-.527 1.418c0 .286.049.551.145.795.097.243.224.453.382.628.161.175.349.312.564.408.211.1.435.15.671.15.39 0 .716-.118.978-.354.265-.24.451-.524.558-.854h.553a2.54 2.54 0 01-.735 1.225c-.351.318-.802.478-1.354.478-.315 0-.61-.063-.886-.188a2.192 2.192 0 01-.715-.516 2.502 2.502 0 01-.478-.779 2.699 2.699 0 01-.177-.993c0-.358.059-.688.177-.989.119-.3.278-.56.478-.779a2.26 2.26 0 01.715-.52c.276-.126.571-.187.886-.183.552 0 1.003.16 1.354.478.35.319.596.727.735 1.225h-.553a2.02 2.02 0 00-.558-.854c-.262-.237-.588-.355-.978-.355zm2.637-.44h3.792v.494h-1.649V16h-.494v-4.345h-1.649v-.494zm7.423 2.31c.161.064.308.148.441.252.111.09.211.207.3.354.093.147.14.33.14.548 0 .19-.039.369-.118.537a1.33 1.33 0 01-.317.44 1.528 1.528 0 01-.473.296 1.616 1.616 0 01-.58.102h-2.089v-4.84h1.928c.218 0 .419.035.602.103.186.064.342.154.467.268.129.111.229.244.301.398.075.154.112.318.112.494 0 .19-.039.353-.118.489a1.357 1.357 0 01-.241.327 1.235 1.235 0 01-.355.231zm-2.197-1.816v1.595h1.429c.308 0 .55-.082.725-.247a.769.769 0 00.263-.58c0-.19-.089-.365-.268-.527-.179-.16-.419-.241-.72-.241h-1.429zm0 2.09v1.76h1.59a1.016 1.016 0 00.913-.552.69.69 0 000-.65.848.848 0 00-.209-.28.989.989 0 00-.312-.198.957.957 0 00-.392-.08h-1.59zm8.309 1.046a1.863 1.863 0 01-.279.457 2.134 2.134 0 01-.988.698 2.22 2.22 0 01-.714.108 2.243 2.243 0 01-1.649-.704 2.409 2.409 0 01-.484-.779 2.699 2.699 0 01-.177-.993c0-.358.059-.688.177-.989a2.5 2.5 0 01.478-.779 2.26 2.26 0 01.715-.52 2.04 2.04 0 01.886-.183c.301 0 .583.057.848.172.269.118.504.28.704.489a2.333 2.333 0 01.645 1.648.942.942 0 01-.011.15 3.245 3.245 0 01-.022.124l-.021.108h-3.905c.029.265.093.507.193.725.101.215.23.4.387.553.158.154.34.274.548.36.208.086.437.127.688.124.175 0 .336-.024.483-.07a1.558 1.558 0 00.682-.44c.082-.094.152-.18.209-.258h.607zm-2.035-3.19c-.219 0-.426.041-.623.124a1.76 1.76 0 00-.521.354c-.154.15-.285.33-.392.537a2.336 2.336 0 00-.226.688h3.464a2.115 2.115 0 00-.193-.688 2.006 2.006 0 00-.371-.537 1.674 1.674 0 00-.521-.354 1.558 1.558 0 00-.617-.124zm7.374-.44V16h-.499v-2.256h-2.965V16h-.5v-4.84h.5v2.09h2.965v-2.09h.499zm5.5 0V16h-.499v-2.256h-2.965V16h-.5v-4.84h.5v2.09h2.965v-2.09h.499zm5.721 2.417c0 .358-.06.689-.178.993-.118.301-.277.56-.478.78-.2.217-.438.39-.714.515a2.117 2.117 0 01-.886.188c-.315 0-.611-.063-.887-.188a2.199 2.199 0 01-.714-.516c-.2-.218-.36-.478-.478-.779a2.699 2.699 0 01-.177-.993c0-.358.059-.688.177-.989a2.5 2.5 0 01.478-.779c.201-.218.439-.392.714-.52.276-.126.572-.187.887-.183.315 0 .61.06.886.183.276.125.514.299.714.52.201.219.36.479.478.78.118.3.178.63.178.988zm-4.018 0a2.129 2.129 0 00.526 1.423c.161.175.349.312.564.408.212.1.435.15.672.15.236 0 .46-.05.671-.15.211-.1.398-.236.559-.408a2.05 2.05 0 00.526-1.423c0-.287-.047-.55-.14-.79a2.008 2.008 0 00-.386-.628 1.804 1.804 0 00-.559-.414 1.49 1.49 0 00-.671-.145c-.237 0-.46.048-.672.145a1.86 1.86 0 00-.564.414 1.943 1.943 0 00-.381.628c-.097.24-.145.503-.145.79zm9.19 1.213a1.926 1.926 0 01-.279.457 2.162 2.162 0 01-.989.698 2.215 2.215 0 01-.714.108 2.247 2.247 0 01-1.649-.704 2.423 2.423 0 01-.483-.779 2.678 2.678 0 01-.178-.993c0-.358.059-.688.178-.989.118-.3.277-.56.478-.779.2-.218.438-.392.714-.52.276-.126.571-.187.886-.183a2.116 2.116 0 011.552.66 2.333 2.333 0 01.645 1.65.942.942 0 01-.011.15 8.664 8.664 0 01-.021.123l-.022.108h-3.904c.028.265.093.507.193.725.1.215.229.4.387.553.157.154.34.274.547.36.208.086.437.127.688.124.175 0 .337-.024.483-.07a1.526 1.526 0 00.682-.44c.083-.094.153-.18.21-.258h.607zm-2.036-3.19a1.59 1.59 0 00-.623.124 1.773 1.773 0 00-.521.354 2.09 2.09 0 00-.392.537 2.335 2.335 0 00-.225.688h3.464a2.14 2.14 0 00-.193-.688 2.03 2.03 0 00-.371-.537 1.674 1.674 0 00-.521-.354 1.559 1.559 0 00-.618-.124zm5.006 3.905h.333c.133-.097.256-.211.371-.344.096-.118.188-.261.274-.43a1.74 1.74 0 00.177-.601l.607-5.06h3.631v6.435h.768v1.976h-.548V16h-5.06v1.482h-.553v-1.976zm1.708-1.375a2.283 2.283 0 01-.376 1.031 2.075 2.075 0 01-.285.344h3.792v-5.94h-2.583l-.548 4.565zm9.512.66a1.863 1.863 0 01-.279.457 2.134 2.134 0 01-.988.698c-.212.072-.45.108-.715.108a2.242 2.242 0 01-1.649-.704 2.423 2.423 0 01-.483-.779 2.699 2.699 0 01-.177-.993c0-.358.059-.688.177-.989a2.5 2.5 0 01.478-.779c.201-.218.439-.392.714-.52.276-.126.572-.187.887-.183.3 0 .583.057.848.172.269.118.503.28.704.489.197.204.354.447.473.73a2.288 2.288 0 01.161 1.069l-.022.123-.021.108h-3.905c.029.265.093.507.193.725.101.215.229.4.387.553.158.154.34.274.548.36.208.086.437.127.687.124a1.514 1.514 0 00.876-.258 1.59 1.59 0 00.29-.253c.082-.093.152-.179.209-.258h.607zm-2.035-3.19c-.219 0-.426.041-.623.124a1.76 1.76 0 00-.521.354c-.154.15-.285.33-.392.537a2.336 2.336 0 00-.226.688h3.464a2.115 2.115 0 00-.193-.688 2.006 2.006 0 00-.371-.537 1.674 1.674 0 00-.521-.354 1.558 1.558 0 00-.617-.124zm7.374-.44V16h-.499v-4.345h-2.965V16h-.5v-4.84h3.964zm3.024 4.399c.469 0 .843-.14 1.123-.42.279-.279.419-.653.419-1.122v-.44h-.607c-.426 0-.781.03-1.064.09a2.186 2.186 0 00-.677.237.91.91 0 00-.354.344.97.97 0 00-.107.43c0 .218.107.42.322.607.211.182.526.274.945.274zm.274-4.453c.265 0 .505.041.72.123.215.086.401.205.558.355.154.15.272.33.355.537.086.208.129.437.129.688V16h-.333l-.161-.714h-.059a1.751 1.751 0 01-1.537.768c-.551 0-.974-.131-1.267-.392a1.27 1.27 0 01-.441-.983c0-.219.049-.425.145-.618.097-.193.251-.363.462-.51.212-.143.487-.256.827-.339.341-.085.761-.128 1.263-.128h.607v-.274c0-.359-.115-.65-.344-.876-.226-.222-.534-.333-.924-.333s-.687.084-.892.252a1.339 1.339 0 00-.429.629h-.494a1.565 1.565 0 01.564-.961c.154-.126.334-.226.542-.301a2.08 2.08 0 01.709-.113zm7.702 2.47c0 .359-.059.69-.177.994-.118.301-.278.56-.478.78-.201.217-.439.39-.714.515a2.122 2.122 0 01-.887.188c-.279 0-.521-.045-.725-.135a2.463 2.463 0 01-.515-.306 2.129 2.129 0 01-.409-.44h-.053v2.589h-.5V11.16h.333l.167.821h.053c.111-.16.247-.306.409-.435.139-.11.311-.213.515-.306.204-.093.446-.138.725-.134.315 0 .611.06.887.183.275.125.513.299.714.52.2.219.36.479.478.78.118.3.177.63.177.988zm-2.256 1.983c.237 0 .46-.05.672-.15a1.841 1.841 0 00.945-1.037c.097-.244.145-.509.145-.795a2.087 2.087 0 00-.532-1.418 1.8 1.8 0 00-.558-.414 1.495 1.495 0 00-.672-.145c-.236 0-.46.048-.671.145-.211.1-.398.238-.559.414a2.114 2.114 0 00-.531 1.418c0 .286.048.551.145.795.096.243.225.453.386.628s.348.312.559.408c.211.1.435.15.671.15zm2.75-4.4h3.792v.495h-1.649V16h-.494v-4.345h-1.649v-.494zm6.161 4.4c.469 0 .843-.14 1.123-.42.279-.279.418-.653.418-1.122v-.44h-.606c-.427 0-.781.03-1.064.09a2.186 2.186 0 00-.677.237.91.91 0 00-.354.344.985.985 0 00-.108.43c0 .218.108.42.323.607.211.182.526.274.945.274zm.274-4.453c.265 0 .505.041.72.123.214.086.401.205.558.355.154.15.272.33.355.537.086.208.129.437.129.688V16h-.333l-.162-.714h-.059a1.751 1.751 0 01-1.536.768c-.551 0-.974-.131-1.267-.392a1.27 1.27 0 01-.441-.983c0-.219.049-.425.145-.618.097-.193.251-.363.462-.51.211-.143.487-.256.827-.339.34-.085.761-.128 1.263-.128h.606v-.274c0-.359-.114-.65-.343-.876-.226-.222-.534-.333-.924-.333s-.688.084-.892.252a1.339 1.339 0 00-.429.629h-.495a1.582 1.582 0 01.564-.961c.154-.126.335-.226.543-.301a2.08 2.08 0 01.709-.113zM225.555 16l-1.702-3.738V16h-.5v-4.84h.5l1.922 4.233 1.923-4.232h.494V16h-.494v-3.738L225.996 16h-.441zm8.143-1.209a1.899 1.899 0 01-.28.457 2.129 2.129 0 01-.988.698 2.215 2.215 0 01-.714.108 2.243 2.243 0 01-1.649-.704 2.443 2.443 0 01-.484-.779 2.699 2.699 0 01-.177-.993c0-.358.059-.688.177-.989.119-.3.278-.56.479-.779.2-.218.438-.392.714-.52.276-.126.571-.187.886-.183a2.116 2.116 0 011.552.66 2.333 2.333 0 01.645 1.65.942.942 0 01-.011.15 8.664 8.664 0 01-.043.23H229.9c.029.266.093.508.194.726.1.215.229.4.386.553.158.154.341.274.548.36.208.086.437.127.688.124.175 0 .336-.024.483-.07a1.526 1.526 0 00.682-.44c.083-.094.153-.18.21-.258h.607zm-2.036-3.19a1.59 1.59 0 00-.623.124 1.773 1.773 0 00-.521.354c-.154.15-.285.33-.392.537a2.366 2.366 0 00-.226.688h3.465a2.116 2.116 0 00-.564-1.225 1.686 1.686 0 00-.521-.354 1.562 1.562 0 00-.618-.124zm7.375-.44V16h-.5v-2.256h-2.965V16h-.499v-4.84h.499v2.09h2.965v-2.09h.5zm.934 0h3.792v.494h-1.649V16h-.494v-4.345h-1.649v-.494zm4.125 0h.548l1.649 4.125 1.654-4.125h.548l-2.202 5.387c-.168.44-.353.763-.553.967-.201.2-.455.3-.763.3a1.377 1.377 0 01-.231-.021.474.474 0 01-.102-.032v-.44h.22c.219 0 .391-.06.516-.178s.247-.317.365-.596l.274-.655-1.923-4.732zm8.137 2.31V16h-.499v-4.84h.499v2.31l2.197-2.31h.661l-2.202 2.31 2.422 2.53h-.661l-2.417-2.53zm3.239-2.31h.548l1.649 4.125 1.654-4.125h.548l-2.202 5.387c-.168.44-.353.763-.553.967-.201.2-.455.3-.763.3a1.145 1.145 0 01-.231-.021.474.474 0 01-.102-.032v-.44h.22c.219 0 .391-.06.516-.178s.247-.317.365-.596l.274-.655-1.923-4.732zm9.072 0V16h-.494v-4.345h-2.202l-.221 2.696c-.05.609-.191 1.046-.424 1.31a1.078 1.078 0 01-.961.387 1.34 1.34 0 01-.113-.016.387.387 0 01-.097-.032v-.44h.22c.219 0 .41-.097.575-.29.168-.194.27-.5.306-.919l.274-3.19h3.137zm3.416 1.761c.251 0 .476.04.677.118a1.464 1.464 0 01.848.812c.083.186.124.388.124.607 0 .218-.041.422-.124.612a1.46 1.46 0 01-.333.489c-.143.14-.317.248-.521.327a1.9 1.9 0 01-.671.113h-1.875v-4.84h.5v1.762h1.375zm0 2.584c.358 0 .639-.097.843-.29a.997.997 0 00.312-.757.98.98 0 00-.312-.752c-.204-.194-.485-.29-.843-.29h-1.375v2.089h1.375zm1.81-4.345h3.792v.494h-1.649V16h-.494v-4.345h-1.649v-.494zm4.125 0h.548l1.649 4.125 1.654-4.125h.548l-2.202 5.387c-.168.44-.353.763-.553.967-.201.2-.455.3-.763.3a1.145 1.145 0 01-.231-.021.474.474 0 01-.102-.032v-.44h.22c.219 0 .39-.06.516-.178.125-.118.247-.317.365-.596l.274-.655-1.923-4.732zm9.786 2.417c0 .358-.059.689-.177.993-.118.301-.278.56-.478.78-.201.217-.439.39-.714.515a2.122 2.122 0 01-.887.188c-.279 0-.521-.045-.725-.135a2.463 2.463 0 01-.515-.306 2.129 2.129 0 01-.409-.44h-.053v2.589h-.5V11.16h.333l.167.821h.053c.111-.16.247-.306.409-.435.139-.11.311-.213.515-.306.204-.093.446-.138.725-.134.315 0 .611.06.887.183.275.125.513.299.714.52.2.219.36.479.478.78.118.3.177.63.177.988zm-2.256 1.982c.237 0 .46-.05.672-.15a1.841 1.841 0 00.945-1.037c.097-.244.145-.509.145-.795a2.087 2.087 0 00-.532-1.418 1.8 1.8 0 00-.558-.414 1.495 1.495 0 00-.672-.145c-.236 0-.46.048-.671.145-.211.1-.398.238-.559.414a2.114 2.114 0 00-.531 1.418c0 .286.048.551.145.795.096.243.225.453.386.628s.348.312.559.408c.211.1.435.15.671.15zm7.697-4.4h.494V16h-.494v-4.84zm-2.476 1.762c.251 0 .476.04.677.118a1.464 1.464 0 01.848.812c.083.186.124.388.124.607 0 .218-.041.422-.124.612a1.46 1.46 0 01-.333.489c-.143.14-.315.248-.515.327a1.918 1.918 0 01-.677.113h-1.762v-4.84h.5v1.762h1.262zm0 2.584c.358 0 .639-.097.843-.29a.997.997 0 00.312-.757.98.98 0 00-.312-.752c-.204-.194-.485-.29-.843-.29h-1.262v2.089h1.262zm9.792-3.851h-2.471V16h-.5v-4.84h2.971v.495zm4.952 1.923a2.7 2.7 0 01-.178.993c-.118.301-.277.56-.478.78-.2.217-.438.39-.714.515a2.117 2.117 0 01-.886.188c-.315 0-.611-.063-.886-.188a2.192 2.192 0 01-.715-.516c-.2-.218-.36-.478-.478-.779a2.699 2.699 0 01-.177-.993c0-.358.059-.688.177-.989a2.5 2.5 0 01.478-.779 2.26 2.26 0 01.715-.52 2.04 2.04 0 01.886-.183c.315 0 .61.06.886.183.276.125.514.299.714.52.201.219.36.479.478.78.119.3.178.63.178.988zm-4.018 0a2.129 2.129 0 00.526 1.423c.162.175.35.312.564.408.212.1.435.15.672.15.236 0 .46-.05.671-.15.211-.1.398-.236.559-.408a2.05 2.05 0 00.526-1.423c0-.287-.046-.55-.14-.79a2.008 2.008 0 00-.386-.628 1.804 1.804 0 00-.559-.414 1.49 1.49 0 00-.671-.145c-.237 0-.46.048-.672.145a1.86 1.86 0 00-.564.414 1.943 1.943 0 00-.381.628c-.097.24-.145.503-.145.79zm9.684 0c0 .358-.059.689-.177.993-.118.301-.278.56-.478.78-.201.217-.439.39-.714.515a2.122 2.122 0 01-.887.188c-.279 0-.521-.045-.725-.135a2.463 2.463 0 01-.515-.306 2.129 2.129 0 01-.409-.44h-.053v2.589h-.5V11.16h.333l.167.821h.053c.111-.16.247-.306.409-.435.139-.11.311-.213.515-.306.204-.093.446-.138.725-.134.315 0 .611.06.887.183.275.125.513.299.714.52.2.219.36.479.478.78.118.3.177.63.177.988zM304.8 15.56c.237 0 .46-.05.672-.15a1.841 1.841 0 00.945-1.037c.097-.244.145-.509.145-.795a2.087 2.087 0 00-.532-1.418 1.8 1.8 0 00-.558-.414 1.495 1.495 0 00-.672-.145c-.236 0-.46.048-.671.145-.211.1-.398.238-.559.414a2.114 2.114 0 00-.531 1.418c0 .286.048.551.145.795.096.243.225.453.386.628s.348.312.559.408c.211.1.435.15.671.15zm7.643-1.982c0 .358-.059.689-.177.993-.118.301-.277.56-.478.78-.2.217-.439.39-.714.515a2.117 2.117 0 01-.886.188c-.316 0-.611-.063-.887-.188a2.188 2.188 0 01-.714-.516 2.465 2.465 0 01-.478-.779 2.699 2.699 0 01-.177-.993c0-.358.059-.688.177-.989.118-.3.277-.56.478-.779.2-.218.439-.392.714-.52a2.06 2.06 0 01.887-.183c.315 0 .61.06.886.183.275.125.514.299.714.52.201.219.36.479.478.78.118.3.177.63.177.988zm-4.017 0a2.129 2.129 0 00.526 1.423c.161.175.349.312.564.408.211.1.435.15.672.15.236 0 .46-.05.671-.15a1.841 1.841 0 00.945-1.036c.097-.244.143-.509.14-.795 0-.287-.047-.55-.14-.79a1.991 1.991 0 00-.387-.628 1.8 1.8 0 00-.558-.414 1.49 1.49 0 00-.671-.145 1.59 1.59 0 00-.672.145 1.86 1.86 0 00-.564.414 1.943 1.943 0 00-.381.628c-.097.24-.145.503-.145.79zm9.517 1.928v1.762h-.494V16h-4.071v1.268h-.494v-1.762h.274c.118-.057.225-.138.322-.242.082-.09.161-.21.236-.36.076-.15.127-.335.156-.553l.333-3.19h3.024v4.345h.714zm-3.577-1.155a1.753 1.753 0 01-.134.553c-.065.15-.133.27-.204.36-.083.104-.17.185-.263.242h2.97v-3.851h-2.089l-.28 2.696zm6.113 1.209c.469 0 .843-.14 1.122-.42.279-.279.419-.653.419-1.122v-.44h-.607c-.426 0-.781.03-1.063.09a2.177 2.177 0 00-.677.237.914.914 0 00-.355.344.984.984 0 00-.107.43c0 .218.107.42.322.607.211.182.527.274.946.274zm.273-4.453c.265 0 .505.041.72.123.215.086.401.205.559.355.154.15.272.33.354.537.086.208.129.437.129.688V16h-.333l-.161-.714h-.059a1.953 1.953 0 01-.36.386 1.774 1.774 0 01-1.176.381c-.552 0-.974-.13-1.268-.391a1.273 1.273 0 01-.44-.983c0-.219.048-.425.145-.618a1.37 1.37 0 01.462-.51c.211-.143.487-.256.827-.339.34-.085.761-.128 1.262-.128h.607v-.274c0-.359-.115-.65-.344-.876-.225-.222-.533-.333-.924-.333-.39 0-.687.084-.891.252a1.348 1.348 0 00-.43.629h-.494a1.58 1.58 0 01.564-.961c.154-.126.335-.226.542-.301a2.08 2.08 0 01.709-.113zm11.607-2.036h.495V16h-.548v-5.5L329.83 16h-.333l-2.476-5.5V16h-.548V9.071h.494l2.696 5.994 2.696-5.994zm6.381 4.507c0 .358-.059.689-.177.993-.118.301-.278.56-.478.78-.201.217-.439.39-.714.515a2.122 2.122 0 01-.887.188c-.315 0-.61-.063-.886-.188a2.177 2.177 0 01-.714-.516 2.465 2.465 0 01-.478-.779 2.699 2.699 0 01-.177-.993c0-.358.059-.688.177-.989.118-.3.277-.56.478-.779.2-.218.438-.392.714-.52.276-.126.571-.187.886-.183.315 0 .611.06.887.183.275.125.513.299.714.52.2.219.36.479.478.78.118.3.177.63.177.988zm-4.017 0a2.129 2.129 0 00.526 1.423c.161.175.349.312.564.408.211.1.435.15.671.15.237 0 .46-.05.672-.15a1.841 1.841 0 00.945-1.036c.097-.244.143-.509.14-.795 0-.287-.047-.55-.14-.79a2.028 2.028 0 00-.387-.628 1.8 1.8 0 00-.558-.414 1.495 1.495 0 00-.672-.145c-.236 0-.46.048-.671.145a1.86 1.86 0 00-.564.414 1.943 1.943 0 00-.381.628c-.097.24-.145.503-.145.79zm7.154-1.977c-.236 0-.46.048-.671.145-.212.1-.4.238-.564.414a1.928 1.928 0 00-.382.628 2.134 2.134 0 00-.145.79c0 .286.049.551.145.795.097.243.224.453.382.628.161.175.349.312.564.408.211.1.435.15.671.15.39 0 .716-.118.977-.354a1.95 1.95 0 00.559-.854h.553a2.534 2.534 0 01-.736 1.225c-.35.318-.802.478-1.353.478-.315 0-.611-.063-.886-.188a2.192 2.192 0 01-.715-.516 2.502 2.502 0 01-.478-.779 2.699 2.699 0 01-.177-.993c0-.358.059-.688.177-.989.119-.3.278-.56.478-.779a2.26 2.26 0 01.715-.52 2.04 2.04 0 01.886-.183c.551 0 1.003.16 1.353.478.351.319.597.727.736 1.225h-.553a2.013 2.013 0 00-.559-.854c-.261-.237-.587-.355-.977-.355zm3.738 1.87V16h-.499v-4.84h.499v2.31l2.197-2.31h.661l-2.202 2.31 2.422 2.53h-.661l-2.417-2.53zm6.537 0c.161.064.308.148.44.252.111.09.212.207.301.354.093.147.14.33.14.548a1.343 1.343 0 01-.435.977 1.528 1.528 0 01-.473.296 1.616 1.616 0 01-.58.102h-2.089v-4.84h1.928c.218 0 .419.035.601.103.187.064.342.154.468.268.129.111.229.244.3.398a1.1 1.1 0 01.113.494c0 .19-.039.353-.118.489a1.359 1.359 0 01-.242.327 1.23 1.23 0 01-.354.231zm-2.197-1.816v1.595h1.429c.308 0 .549-.082.725-.247a.773.773 0 00.263-.58c0-.19-.089-.365-.268-.527-.18-.16-.419-.241-.72-.241h-1.429zm0 2.09v1.76h1.59a1.02 1.02 0 00.913-.552.69.69 0 000-.65.848.848 0 00-.209-.28.989.989 0 00-.312-.198.96.96 0 00-.392-.08h-1.59zm8.583-2.584h.494V16h-.494v-4.84zm-2.476 1.761c.251 0 .476.04.677.118a1.464 1.464 0 01.848.812c.083.186.124.388.124.607 0 .218-.041.422-.124.612a1.46 1.46 0 01-.333.489c-.143.14-.315.248-.515.327a1.918 1.918 0 01-.677.113H354.3v-4.84h.5v1.762h1.262zm0 2.584c.358 0 .639-.097.843-.29a.997.997 0 00.312-.757.98.98 0 00-.312-.752c-.204-.194-.485-.29-.843-.29H354.8v2.089h1.262z" fill="#fff"/></svg>