<svg width="32" height="39" fill="none" xmlns="http://www.w3.org/2000/svg"><path d="M0 0h32v30.208l-.118.233v.583l-.118.233-.118.35v.234l-.118.233-.118.233-.119.233-.236.234-.118.233-.118.233-.236.117-.236.233-.118.233-.236.117-.236.233-.237.117-.236.117-.236.116-.354.117-.236.116-.355.117-.236.117h-.354l-.354.116h-1.063l-.354.117h-5.196l-.236.117h-.354l-.236.116h-.237l-.236.117h-.118l-.236.116h-.236l-.118.117-.236.117h-.119l-.236.116-.118.117-.118.117h-.236l-.118.116-.118.117-.118.117-.236.116-.119.117-.118.116-.118.117-.118.117-.118.116-.354.234-.236-.234-.118-.116-.118-.117-.118-.117-.119-.116-.118-.117-.236-.116-.118-.117-.118-.117-.236-.116h-.118l-.118-.117-.236-.117-.118-.116h-.119l-.236-.117-.236-.117h-.118l-.236-.116h-.118l-.236-.117h-.237l-.236-.117h-.354l-.236-.116H6.259l-.355-.117H4.841l-.354-.116h-.354l-.236-.117-.355-.117-.236-.116-.354-.117-.236-.117-.236-.116-.236-.117-.237-.233-.236-.117-.236-.233-.118-.233-.236-.117-.118-.233-.236-.233-.119-.234-.118-.233-.118-.233-.118-.233v-.234l-.118-.35-.118-.233v-.233L0 30.44V0z" fill="#171412"/><path d="M0 0h32v29.761c0 3.189-2.03 5.433-6.09 5.433h-3.7c-2.866 0-4.776.944-6.09 2.362-1.313-1.3-3.223-2.362-6.09-2.362H6.09C2.03 35.194 0 32.95 0 29.76V0z" fill="#A8002B"/><path d="M5.969 1.758c-.232 0-.232.23-.232.345L7.01 3.94c0 .115.116.23.116.23-.116.344-.116.459.116.688l.463.46c0 .344.116.574.231.689-.115.23 0 .344.232.574 0 0 .116.115.116.23l.115.574c-.578.459-.926.918-1.041 1.148v.344l.81-.115c.116 0 .116.115.231.115.116.345 0 .804-.463.804-1.157.23-1.967.574-1.62 1.263.347.46.231.919-.463 1.378a.874.874 0 00-.232.574c-.231.115-.347.46-.463.69-.116.344-.116.458.116.344 1.505-.46 3.01-.69 4.051.114.463.574.348.804 1.158.804-.116.345 0 .574.347.574v.345c-.347.115-.694.115-1.042.115-.347.114-.694.23-1.041.23-.232-.23-.58-.345-.81-.46-1.39-.804-2.431-.919-3.473.23-.463.574-1.042 1.377-1.39 2.64-.115.23-.23.345-.578.115-.695-.574-.81-1.033-.463-1.378.463-.459.694-.23.463.115v.115c.347 0 .579.23.694.574.348-.803.116-1.378-.347-1.837h-.116v.689c-.81-.115-1.157.46-1.273 1.034 0 .574.232 1.033.926 1.377.347.115.463.575.232 1.034-.81 1.148-.695 2.296 0 3.789h.115c.116-1.722.463-2.641 1.042-2.756.232-.115.347-.23.463-.344.116-.23.232-.23.347 0 .348.689.232 1.378-.115 2.067-.926 1.607-1.042 2.755.347 3.674v.115l-.347.46c-.116.229 0 .458.347.688.231.23.347.689.463 1.263-.116.23-.116.46-.116.69.232.343.695.458 1.39.343.115 0 0-.114 0-.114.115-.345-.116-.574-.348-.919-.694-.574-.81-1.148-.579-1.722l.116-.115c.579.23 1.273.46 1.852.46-.231.573-.231 1.262 0 1.607.463.803.926 1.148 1.852 1.033 1.158-.115 1.736-1.033 1.39-2.411.462-.23.694-.23.81 0 0 .574.231.46.231 1.033-.694.574-.926 1.148-.232 1.493.348.345.232.574-.347.574-.579-.115-.926-.115-1.042.345-.463 0-.694.344-.578.803.115-.344.463-.344.578-.344.232 0 .58.115.81 0a.743.743 0 01.695 0c.116 0 .232.115.348.23.347.344.347 0 1.041.459.232 0 .463 0 .58.344l.115-.23c.116-.114 0-.229-.116-.344-.231-.344.116-.344.81-.23.348.115.695.23.926.23.348-.344.348-.115.463.345.232-.574.116-.919-.578-.919.115-.344.115.115.347-.23.231-.114.347 0 .579.23 0-.344-.116-.46-.463-.574-.116-.23-.232-.23-.58 0-1.157-.345-1.272-.919-.578-1.148.347-.115.463.23.695.344.231.115.347 0 .578.115.348 0 .58.115.81.23l.232.114c.116-.114.232-.114.348.115.115.23.347.23.463.115.462-.344 1.157-.344 1.041-.115 0 .345 0 .46.116.46s.116.114.116.344c-.463 0-.695.115-.695.345-.347.114-.347.344-.231.803 0-.689.578-.114 1.157-.459h.463c0 .23.232.344.58.23.115-.115.346-.115.462-.115.695-.23 1.273-.115 1.736.46.116-.23.116-.345 0-.575.463-.344 1.042-.23.695.344.347-.114.579-.918.231-.918.116-.46.81-.115.58.23.23-.115.346-.345 0-.69 0-.229-.232-.344-.58-.229-.231-.345-.463-.345-.81-.115-.347.115-.579.23-.81-.115-.232-.344-.116-.459.116-.344.115 0 .231-.115.347-.46.116-.114.231-.23.231-.459.348-.115.695-.344 1.042-1.033.232-.115.463-.69.463-1.493.116.115.232 0 .463-.115-.116 0-.231-.115-.231-.344h.579c.115-.115.231-.115.231-.23s-.116 0-.232-.23a.63.63 0 00-.347-.574l-.463-.918c-.231-.804-.579-1.263-.926-.919l-.116-.115a10.074 10.074 0 01-.694-1.148c0-.574-.579-.574-.926-.115l-.116-.459-.116.23-.926-1.378c.116 0 .232-.115.348-.115 1.157-.115 2.315-.46 3.472-1.034l.81-.23c.348-.114.463 0 .695.116l.81.803c.116.23.116.345.116.46-.116.23.116.459.463.689.232.344.347.689.116 1.148-.116.344-.116.574.116.574l.578.46c.348.344.58.229.58-.345 0-.23-.117-.574-.232-.804-.232-.344-.348-.689-.348-1.033 0-.69-.115-1.034-.347-1.263-.347-.345-.579-.69-.81-1.034-.116-.23-.116-.344-.232-.46 0-.688-.579-1.033-.81-.803a.996.996 0 01-.81 0v-.115c.347-.23 1.041-.803 1.62-1.492.232-.345.348-.23.58.114l.925.919c0 .46 0 .804.347.689.232.344.348.689.116.919-.231.23-.347.344-.347.574 0 .344.463.689.926.918 0 0 .116 0 .116-.115a1.582 1.582 0 000-1.033l-.348-.345v-.574c0-.459.116-.689-.347-1.033a11.617 11.617 0 01-1.505-1.837c0-.804-.694-1.034-1.157-.115l-.81.689c-.232.115-.348-.115-.348-.345-.116-1.148-.81-1.952-1.62-2.755-.463-1.378-1.042-2.412-1.274-3.445.81.115 1.505.23 1.737.46.347.344.81.573.926.344 0-.115-.232-.23-.348-.345.116 0 .348.115.58.345.347 0 .462-.23.347-.69 0-.344 0-.573-.116-.688l-.348-.23c-.463-.574-.926-1.148-1.273-1.722 0-.115-.116-.115-.116-.23 0-.23-.115-.46-.347-.689l.116-.115v-.115l.231.115-.231-.459c-.116-.344-.579-.46-1.39-.23-.115 0-.23-.114-.346-.23-.463-.459-.926-.688-.81-.344 0 .115.23.23 0 .23l-.811-.115c-.232 0-.232 0-.116.115s.348.344.348.46l-1.042.114c-.232 0-.348.115-.579.115-.579-.46-1.273-.115-1.968.46h-.116v-.805h.116l-.116-.574h.116c0-.804-.116-1.378-.463-1.722-.116-.23.232-.23.232-.345.231-.344.231-.574.231-.803 0-.345-.116-.46-.347-.345h-.116c-.231 0-.347-.115-.463-.23a.743.743 0 00-.694 0c-1.158.115-1.274.92-2.547.46-.116 0-.232 0-.116.115.232.344.579.459.81.574-.115.115-.347.115-.694.115.232.344.579.459 1.273.459a.996.996 0 00.81 0c.232-.115.232 0 .116.23-.347.23-.578.803-.578 1.837-.116 0-.232.23-.232.459-.463-.115-.926-.23-1.042-.115h-.231c-.463-.23-.926-.23-1.274 0l-.694.574c-.232.23-.463.23-.579 0l-.347-.689c0-.459-.116-.689-.463-.689-.116-.114-.232-.344-.232-.459l-.231-.344c.116-.23 0-.345-.232-.345-.231 0-.347 0-.463-.115L5.97 1.758zM4.927 19.901c1.042 1.263 1.273 2.526.347 4.133-.347.804-.232 1.263.116 1.493.116-.23.231-.69.231-1.148.116-.69.463-.575 1.042-1.149.579-.574.463-1.263.347-2.296-.115-2.182.348-3.445 1.042-4.134-1.505-.46-2.546.804-3.125 3.1zm4.283 8.611c.231.115.231.345-.116.46-.116-.115-.116-.23.116-.46zm3.704 1.493c-.116.115-.232.23-.116.46l.347.229a.347.347 0 000-.46c-.115 0-.115 0-.231-.229zm7.755.689c-.231.115-.347.23-.115.46.115.114.231.114.231 0 .347 0 0-.23-.116-.46zm-8.334-4.708c-.579-.574-.579-1.033 0-1.378.347-.23.81-.803 1.505-1.607.463 0 .81-.115 1.157-.23 1.62-.23 3.241-.574 4.399-1.263.232-.115.463 0 .463.115l.926 1.263-.231.115.694.574c-.116.115 0 .23.116.23-.116.114 0 .23.116.23.115.229.231.459-.232.114-.231-.115-.231 0-.116.345l.348.574c0 .23.115.459.347.688l.347.69c0 .114.116.23.116.344 0 .23.116.344.347.46-.231.344-.463.803-.926 1.033-.81.459-1.505.23-1.505-.804 0-.574.116-1.148.232-1.723.231-1.033 0-1.492-.81-1.492-.463 0-.81 0-1.042.23-.232.114-.579.114-1.042-.115-.926-.69-1.505-1.034-1.968-1.034.463.46.579.919.232 1.493.347.115.347.344 0 .46-.81 0-1.852-.116-2.778-.46-.348-.115-.348 0-.116.23.694.344 1.157.688 1.157 1.377-.463 0-.81 0-1.041.115-.232-.344-.463-.344-.695-.574zm-6.02 0c.232-.918.811-1.378 1.621-1.492.81-.115 1.852-.575 2.894-1.149.463-.344.463-.23.232.46l-.463.574c-.232.344-.348.574 0 .918.463.23.694.46.579.69-.58-.116-1.042-.116-1.505.344-.348-.115-.695 0-1.158.23-.231-.116-.579-.116-.926-.116-.116-.23-.347-.23-.81-.23 0-.114-.232-.114-.463-.229z" fill="#171412"/><path d="M27.93 21.668s.233 0 .233.12c.232.12.232.241 0 .241 0 0-.232 0-.232-.12v-.241zm.465 1.204s.232.12.232.24c0 .121 0 .242-.232.242s-.232-.12-.232-.241c0-.12 0-.241.232-.241zm-.697 1.083l.233-.36c.232-.121.232-.121.464 0l.697.36c-.233.12-.465.12-.697.12l.232.242-.232.12v.12c-.464-.24-.929-.36-.697-.602zm2.062-3.252l.197-.388c0-.13 0-.13.196 0s.393.388.393.646c0 .13 0 .13-.197.26-.196 0-.196 0-.392-.13-.196-.259-.196-.388-.196-.388zm-.196-1.423c-.196-.13-.196-.259.197-.259-.393-.258 0-.388.392 0 .196.13.196.388.196.776 0 .13-.196.13-.196 0-.392-.258-.392-.388-.588-.517zm0 1.552h-.196c-.196.259-.392.388-.196.518l.589.258c.196.13.392 0 .196 0l-.196-.129c.196 0 .196.13.392.13s.196-.13 0-.13c-.196-.13-.196-.13-.196-.259v-.13l-.393-.258zM25.79 17.72c0-.221.12-.555.24-.777 0-.111.12-.111.24-.111.24-.445.24-.223.12.11h.12c.36-.555.24-.11.12.112-.24.333-.36.333-.48.111l-.12.334c-.12.333-.12.444-.24.222zm-1.678-.444c-.12-.222 0-.333.12-.11.12.332.24.777.24 1.444 0 .222-.24.222-.24 0 0-.445 0-.89-.12-1.334zm-.24-.889c.12 0 .24.111.24.223 0 .222 0 .333-.12.333s-.24-.111-.24-.222c-.119-.111 0-.334.12-.334zm-.359.667s.12 0 .12.111v.222s-.12 0-.12-.11c-.12-.112-.12-.223 0-.223zm1.319.111s.12 0 .12.111v.111s-.12 0-.12-.11v-.112zm2.277-1c-.12-.111-.12-.222 0-.333.12-.112.24-.112.36 0 .12 0 .12.11.12.11l-.24.112.24.11c.12.112 0 .334-.12.112-.12-.111-.24-.222-.36-.111.12.111 0 .111 0 0zm-1.678 1.778l.12-.556-.12.223c-.12 0-.12-.111-.12-.223 0-.222 0-.222.12-.222l.12.222.12-.11c.12-.112.12 0 .12.221v.556c-.24 0-.24.111-.36-.111zm-2.158-1.556c.12-.11.12-.11.12 0l.24.223v.11h-.24l-.12-.333c0 .111 0 .111 0 0zm1.439 2.112c.12 0 .12 0 0 0zm-.84-2.334c0-.556.12-1.111.12-1.556 0-.222.12-.222.12 0 0 .445 0 1-.12 1.445 0 .11-.12.222-.12.11zm-17.62 12.51c-.122.355-.61.237-.366-.118.61-.945 1.099-1.772 1.221-3.071 0-.473.366-.591.61-.827.856-.473 1.1-1.063 1.1-1.89-.122-3.427.855-4.844 2.32-5.435v.118c-1.343.827-1.954 2.363-1.954 4.371v1.418-.118c0-1.181 0-2.245.244-2.954.123-.709.367-1.3.611-1.535.122-.119.122-.237.244-.355s.245-.118.367-.236v.118c-.489.473-.977 1.181-1.1 2.008-.244.945-.244 2.009-.122 3.19 0 .118 0 .355-.122.473h.122c.123-.236.123-.355.123-.591-.123-1.418 0-2.717.488-3.78.366-.71.61-.946 1.588-1.418v.118c-.855.59-1.588 1.181-1.832 3.426.122-1.654.732-2.953 1.954-3.308.366-.59.855-.59 1.343-.59l-.122.117c-.855-.118-1.465.237-2.076.828h.122c.61-.591 1.221-.828 2.076-.71l-.122.119c-.61-.118-1.1.118-1.588.472v.119a2.4 2.4 0 011.466-.473c.122 0 .244.118.122.354l-.122.827c0 .827 0 1.536-.244 2.245l-.123.118.123-1.417-.123 1.654c0 .236-.122.118-.122 0 .122-.355.245-.828.245-1.418-.123 0-.123 0-.123.118-.122.709-.244 1.3-.366 1.536.122-.473.122-.945.244-1.418l-.122.118-.244 1.3c.122.118 0 .236-.122.118l.122-.709-.366 1.181.122-.826-.489.826h-.122l.122-.708-.488 1.181c-.122 0-.122 0 0-.236l.244-.827h-.122c-.244.59-.367 1.063-.61 1.181h-.123c.367-.59.367-.827.367-1.063-.123.473-.367.945-.611 1.181 0 0 0-.236.244-.472l.122-.473c-.122-.118-.122-.118-.122.118a5.624 5.624 0 01-.366.827l.244-.709v-.118a2.267 2.267 0 01-.61 1.064l.122.118c.488-.236 1.099-.236 1.587-.473.122-.118.244-.118.367 0l-.123.236-.122-.118c0 .237-.122.473-.244.473v-.354c-.244.472-.366.826-.489.59v-.354c-.244.236-.366.354-.366.59-.122 0-.122-.236-.122-.472v.709c-.122 0-.122-.118-.122-.473-.122.355-.244.473-.244.59-.122-.117-.122-.235 0-.472l-.122.237c0 .236-.123.236-.123.236v-.355l-.244.473c-.122 0-.122-.118-.122-.354-.244.236-.244.472-.366.708-.122-.118-.122-.236-.122-.354-.123.236-.123.354-.245.473v-.473c0 .236-.122.354-.244.59l-.122-.354-.122.355c-.122.118-.244 0-.244-.237 0 .473-.123.827-.367 1.064 0 .118-.122.472-.244.827l.488-.71c.123 0 .123 0 .123.237l-.489.827c-.122.118-.122.118-.244 0-.122.355-.244.709-.489.945.245-.118.367-.472.489-.827 0-.118.122 0 .122.237l-.122.118v.236H6.74v.236l-.122-.118c.122.236 0 .473-.367.354zm2.476-11.223H9.2l.118-.118-.591.118zm-5.657 4.24c.118-.233.236-.467.473-.817.118-.233.118-.116.118.117-.236.35-.354.583-.59.7z" fill="#fff"/><path d="M9.212 16.918c-.945-.817-1.89-1.284-2.598-1.167-1.3.35-2.008 1.516-2.362 2.683.236-.35.472-.584.709-.7A6.866 6.866 0 003.78 21c0 .116-.118.233-.236.35-.473.35-.355.583-.473.816.118-.117.236-.233.355-.467.236-.233.354-.466.472-.816.118-.467.236-1.05.354-1.4.118-.466.354-.816.59-1.283.473-.7 1.063-1.4 1.772-1.75v.118c-.709.35-1.181.933-1.771 1.749l-.355.7a2.176 2.176 0 00-.236.933c-.118.816-.236 1.283-.472 1.633-.236.35-.473.583-.473.7 0 .116-.118.233-.118.35.473-.934.709-.934.945-1.633.354-1.05.118-2.216 1.535-3.733h.236c-.708.817-1.18 1.517-1.417 3.15 0 .233-.118.583-.236.816-.236.35-.59.583-.708.933h.118c.236-.233.59-.583.708-.817.473-.816.236-1.982.827-2.799.708-1.166 1.299-1.75 2.125-2.1h.118c-1.18.584-1.417 1.05-2.007 1.75-.236.234-.354.467-.472.934-.118.35-.237.933-.355 1.4-.118.582-.354.932-.59 1.282l-.354.35a.885.885 0 00-.236.583h.118c.354-.816.472-.7.708-.933.118-.233.354-.583.354-.933.118-.816.237-1.516.59-2.1.355-.583.827-1.282 1.418-1.749.236-.233.472-.35.826-.466h.118c-.354.233-.708.35-.944.583-.473.466-.945 1.166-1.3 1.75-.235.582-.353 1.166-.471 1.865 0-.116.118 0 .118 0 .354-1.516.944-2.566 1.653-3.265.354-.35.826-.7 1.299-.817h.236c-.709.233-1.3.467-1.771 1.166h.118c.59-.583 1.18-.933 1.77-1.05h.119c-.354.117-.709.234-.945.467v.117c.355-.233 1.063-.466 1.772-.466zm-5.906 6.404c-.119-.117-.119-.234-.119-.35 0-.234.119-.117.237 0-.118.233-.118.233-.118.35zm1.654 1.637l.118-.117c.119 0 .119-.117.237 0 0 0-.118.117-.355.117zm-.12.474l.237-.234c.119-.117.237-.117.355 0-.118 0-.355.117-.591.233zm0 .219l.237-.233c.119-.117.237-.117.355 0 0 .116-.236.116-.591.233zm.12.242l.236-.234h.237c0 .117-.237.117-.473.234zm.117.231l.118-.117c.119 0 .119-.117.237 0 0 0-.237 0-.355.117zm.472-2.217l.354-.117c.118 0 .236 0 .354.117-.118.116-.354.116-.708 0zm.238-.574l.118-.118h.237c0 .118-.118.118-.355.118zm.116-.357h.237c.118 0 .236 0 .236.117-.118 0-.236 0-.473-.117zm-.471 3.963l.118-.118h.118c.119.118 0 .118-.236.118zm.475-.466h-.355l-.237.233c.119.117.355 0 .592-.233z" fill="#fff"/><path d="M5.788 26.36h-.236c-.118 0-.237.117-.237.234l.473-.234zm1.181 1.164l.118-.233c.118-.117.236-.117.354-.117 0 0-.236.233-.472.35zm.588-.234l.236-.116c.118 0 .237 0 .355.117 0 .116-.237.233-.473.35l.118-.234.118-.116c-.118.116-.236.116-.354.233v-.233c.118.116.118 0 .118 0h-.118zm1.3.002c.118 0 .354 0 .354.117 0 .116-.236.233-.472.35l.118-.234.118-.116c-.118.116-.118.116-.354.233l.118-.233h.118-.118c0 .116-.118.116-.236.233l.118-.117c0-.116.118-.116.236-.233zm2.004.004c0-.233.237-.35.591-.466.473-.117.945 0 .827.233l-.118.233v-.116s-.118 0-.236-.117h-.119l-.236.233.236-.35.119-.116h-.473l-.118.116-.236.234.118-.35v-.117h-.118l-.119.233v-.233c0 .35-.118.467-.118.583zm-1.415.233l.355-.233c.236-.117.59-.117.473 0l-.119.116v.234l-.118-.234h.118v.35l-.118-.35H9.92v.467l-.236-.467c0 .117 0 .234-.119.234v-.35c0 .116-.118.233-.118.466v-.233zm-4.25-10.027l.592-.584c-.237 0-.473.234-.592.584zM8.62 29.045c-.118-.117-.118-.233 0-.583.236-.35.354-.467.472-.467.118.117 0 .35 0 .7l-.236-.233.118.35-.236-.234-.118.467zm2.244.695l-.118-.117c-.119 0-.119 0 .118.117 0 .117 0 .234.118.234-.118-.117-.118-.234-.118-.234zm-.234.23c0-.116-.118-.116-.118-.116s0 .116.118.116v.117c.118 0 .118-.117 0-.117zm-.12.234c0-.117-.118-.233-.118-.233v.233c0 .117.118.233.118.233.118 0 .118-.116 0-.233zm-1.772-.115c.118 0 .118 0 .118.118.118 0 0 0-.118-.118-.119.118-.119 0-.119 0h.119zm.002-.235c.117 0 .236.117.236.117h-.237c-.118 0-.236-.117-.236-.117h.236zm-.12-.231c.118 0 .236.117.236.117s-.118.116-.236 0c-.118 0-.236-.117-.236-.117h.236zm3.897-2.452c-.118-.35.237-.35.59-.233.237.117.591.117 1.064.117h.708c.237.116.237.233 0 .233-.472.466-.826.933-.944 1.4-.119-.234.236-.817.708-1.517-.354.233-.59.584-.945.934.118-.234.236-.584.473-.934-.59.467-.945 1.05-.945 2.217-.236-.7-.118-1.4.354-2.1l-.59.7.59-.933-.354.116v-.116l-.236.116v-.116l-.355.233.119-.233c0-.117-.119 0-.237.116zm.353 1.639c0 .233 0 .35.117.584 0 0 .119 0 .119-.117-.119-.117-.237-.234-.237-.467z" fill="#fff"/><path d="M13.578 28.923s.118.117.118.233c0 .117 0 .234-.118.234 0 0-.118-.117-.118-.234 0-.116.118-.233.118-.233zm.712-.813v.116c0 .117-.12.117-.12.117v-.117l.12-.117zm.118-.35v.117c0 .117-.118.117-.118.117v-.116c.118 0 .118-.117.118-.117zm5.668.58c.236.117.236.467.118.817 0-.234 0-.584-.118-.817zm-1.302 1.864c0-.117 0-.117-.118-.233 0 .116 0 .233.118.233zm-2.95-4.43h.118l.119.234h-.119l-.118-.234zm-.239 1.286l.118.117v.117l-.118-.117v-.116zm.239 0s.118 0 .118.117v.117s-.118 0-.118-.117v-.116zm.233-.124s.118.116.118.233v.117c-.118 0 0 0-.118-.117v-.233zm.239-.114s.118.117.118.234v.233s-.118-.117-.118-.233v-.234zm.352 0s.118.117.118.234v.233s-.118-.117-.118-.233c-.118-.117-.118-.234 0-.234zm.239.114s.118.116.118.233v.233c-.118 0-.118 0-.118-.233v-.233zm.233-.114s.119.117.119.234v.233s-.118-.117-.118-.233c0-.117-.118-.234 0-.234zm.237 0s.118.117.118.35c0 .233 0 .35-.118.35 0 0-.118-.117-.118-.35 0-.233.118-.35.118-.35zm.355 0s.118.117.118.234c0 .116 0 .233-.118.233 0 0-.118-.117-.118-.233 0-.117 0-.234.118-.234zm.236 0s.118.117.118.35c0 .233 0 .35-.118.35 0 0-.118-.117-.118-.35 0-.233 0-.35.118-.35zm.238-.109s.119.116 0 .35c0 .116-.118.35-.118.35v-.35c0-.233.118-.35.118-.35zm.352 0v.35c0 .233-.118.35-.118.35v-.35c0-.233.118-.35.118-.35zm.235-.118s.118.233.118.467c0 .233-.118.35-.118.35v-.817zm-1.533 1.628c.117 0 .117 0 0 0l.117.233s-.118 0-.118-.117v-.116zm.237-.113l.119.116v.117c-.119 0 0 0-.119-.117v-.117zm2.005-.587c0 .116.119 0 .119 0v-.7c0 .233 0 .466-.119.7z" fill="#fff"/><path d="M19.368 27.876c-.118.35-.118.466-.236.583.118-.233 0-.467 0-.467h-.119c0 .117 0 .35-.118.584 0-.234.119-.35.119-.584h-.119v.234c0 .116-.118.35-.118.35s.118-.467 0-.467h-.118v-.117h-.118v.117l-.118-.117h-.118v.117c-.118 0-.118 0-.118-.117h-.118v.117l-.118-.117h-.118v.117l-.118-.117v-.35s.118 0 .118.117v.117h.118v-.35s.118.116.118.233v.117h.118v-.234s.118.117.118.234h.118v-.35s.118.116.118.233h.118v-.233.233h.118v-.233s0 .116.118.116h.119v-.233.233h.118v-.233.233h.118c.118-.466.236-.933.236-1.516 0-.116-.118-.116-.118-.116 0 .583-.118 1.05-.236 1.4.118-.467.118-.934 0-1.517 0 .583 0 1.166-.119 1.4.119-.467 0-1.05-.118-1.633h-.118c.118.116.118.583 0 .7-.118-.234 0-.35-.236-.584h-.118c.118.117.118.35.118.584-.118-.117-.236-.35-.354-.467h-.118c.236.233.236.233.118.466-.118-.233-.354-.35-.472-.466h-.119c.119.117.355.35.237.466-.118-.116-.355-.233-.473-.35h-.118v.234c-.118 0-.236 0-.354-.233h-.118s.118.116.118.233l-.354-.233h-.118s.118.233.118.35c0 0-.236-.234-.236-.35h-.237l-.118-.234c.709 0 1.417 0 2.362-.116l.827-.117c.236-.117.472.117.59.467v.466c.236.233.236.583.118 1.05.118.35.236.583.472.816.236.234.236.583 0 .933-.236.7-.59 1.05-.944 1.517v-.235c0 .117 0 .117.118.117 0-.117.118-.117.118-.233v-.234c0 .117.118.117.118.117 0-.117.118-.117.118-.233 0-.117 0-.117-.118-.234 0 .117.118.117.118.234 0-.117.118-.117.118-.234v-.233s0 .117.118.117c0-.117.118-.233.118-.35l-1.535.933a1.62 1.62 0 01.473-.35v-.233c0 .116.118.116.118.233l.118-.117v-.35c.118.117.118.234.118.35l.118-.116v-.467c.118.117.118.234.118.35l.118-.116c0-.234 0-.467-.118-.7.118.233.236.35.236.583 0 0 .118 0 .118-.117 0-.233 0-.466-.118-.7.118.234.236.467.236.584 0-.234 0-.583-.118-.817.118.234.236.583.236.7l.118-.117c0-.466-.118-.816-.354-1.166l-.118.233v-.35c0 .35-.118.584-.236.584l-.354-.35z" fill="#fff"/><path d="M18.068 28.81c0 .118 0 .118-.119.118 0 0 0-.118.119-.118z" fill="#fff"/><path d="M18.185 28.574v.117c0 .117 0 .234-.119.234-.118 0-.118-.117 0-.234.119 0 .119-.117.119-.117zm.235.118c0 .117 0 .234-.118.234 0 0 0-.117.118-.234z" fill="#fff"/><path d="M18.539 28.46v.234c0 .117 0 .234-.118.234-.119 0-.119-.117 0-.234l.118-.233zm-.945-4.317c.354.116.709.35 1.181.7.119.117 0 .117-.118.117-.236-.117-.709-.467-1.063-.817zm1.416.931c0 .118.118.118 0 0 0 .118 0 .236 0 0zm-3.777.586h.355l.118.117s.118.466-.118 0c0-.117-.118 0-.236-.117h-.119zm-1.887 6.411c.118 0 .118 0 .118.118l-.118-.118-.119.118c0-.118 0-.118.119-.118zm.234.353h.236s-.118.118-.236 0c0 .118-.118.118-.236.118 0 0 .118-.118.236-.118zm.117.121h.354c-.118 0-.118.118-.354 0-.119.118-.237.118-.237.118s0-.118.236-.118zm.121.113h.236s-.118.118-.236 0c0 .118-.119.118-.119.118s0-.118.119-.118zm.116.114c.118 0 .118 0 .118.118.119 0 0 0-.118-.118 0 .118-.119.118-.119.118l.119-.118zm1.655-.582h.236l-.236.233h-.237c0-.117.119-.117.237-.233zm-.237-.119h.236s0 .118-.118.118h-.237s0-.118.119-.118zm-.237-.231h.119c.118 0 0 .12-.119 0 0 .12 0 .12 0 0zm-2.128-1.282c0-.116-.118-.116-.118 0 0 .117 0 .234.118.35.118.117.118-.116.118-.116-.118-.117-.118-.117-.118-.234zm-.234-.122c0-.117-.118-.117-.118-.117-.119.117-.119.234 0 .351.118.117.236 0 .118-.117v-.117zm10.509-6.646c-.118.117-.118.584.354 1.284.119.234 0 .35.237.35.118 0 .118-.116.118-.233l-.118-.117h.236l-.236-.117h.236c0-.116-.236-.116-.354-.116l.236-.117c0-.117-.118-.117-.355-.233l.237-.117-.237-.117.237-.116-.355-.117.236-.117-.236-.116.236-.117c-.354.117-.354 0-.472.117zm-.354.473c-.118-.233-.118-.35-.118-.467.118-.233.236-.35.355-.35.236.234-.119.35-.237.467v.35zm-.12-.93c.119-.117.119-.117.237-.117 0 0 0 .117-.237.117 0 .233-.118.233-.118.233 0-.116 0-.116.118-.233zm-.118.927c.118 0 .118 0 0 0 .118.116 0 .233 0 .233v-.233zm.24.231c.118 0 .118.117 0 .117 0 .117-.119.117-.119.117-.119 0-.119-.117 0-.117l.118-.117zm.233.352c.118 0 .118.116 0 .233 0 .117-.118.117-.236.117s-.118-.117 0-.234c0-.116.118-.116.236-.116z" fill="#fff"/><path d="M23.38 25.188c0 .117 0 .117-.118.117h-.237s0-.117.119-.117h.236zm1.063.238v-.117c-.118 0-.118 0-.118-.116 0-.234 0-.234.236-.35.118 0 .118 0 .118.116l-.118.117c.118 0 .236.117.236.117-.118 0-.118 0-.118.116.237 0 .237.35 0 .234-.118 0-.236 0-.118.233.118.35.236.35.236.117 0-.117.473-.234.59.116l-.235-.116c0 .233.236.116.236.35h-.118c.236.116.354.35.472.466-.236 0-.236-.233-.472-.233.236.35.59.233.708.583-.236 0-.472-.233-.708-.466.236.35.472.7.354.816-.354-.116-.472-.7-.59-.816 0 .233.236.466.118.7-.118-.234-.236-.467-.236-.934.118 0 .236-.116.236-.35 0-.233-.118-.233-.118 0 0 .234-.118.234-.59 0-.119.117 0 .117.235.234v.233l.118-.233v.583c0 .116-.118.116-.118 0v-.35c0 .233 0 .35-.118.35l-.118-.583-.118.233v-.35l-.118.117v-.35c-.118.116-.236 0-.355-.117.119 0 .237 0 .355-.117-.118-.116 0-.233.236-.233zm-3.542 1.751c0-.117 0-.234-.118-.35-.118-.117-.118-.117-.118 0 0 .116.118.233.236.35zm-.236-.934c.236.117.236.117.354.35 0 .117 0 .233-.118.117-.118-.117-.118-.35-.236-.467zm0-.583c.236.233.354.233.472.583 0 .117 0 .234-.118.117s-.236-.467-.354-.7zm.116-.355c.237.116.473.467.473.7 0 .117-.118.233-.118.117 0-.234-.118-.584-.355-.817zm.119-.231c.237.117.473.233.473.583 0 .117 0 .234-.118.117 0-.233-.118-.466-.355-.7zm1.77 7.35c.118-.116.236-.35.59-.233.118 0 .118.233.118.233-.118-.116-.118-.116-.236-.116-.236 0-.354 0-.472.116zm-.824 0c.118 0 .118 0 0 0 .118.117.118.117 0 .117 0 .117-.119 0 0-.117zm-.473 0s.118 0 .118.117v.116s-.118 0-.118-.116c-.118 0-.118-.117 0-.117z" fill="#fff"/><path d="M21.488 32.424c.119.117.119.233 0 .233v-.233zm.12-1.86c-.118 0-.118 0 0 0l-.118.117v-.117c0-.116 0-.116.118 0l-.118-.116-.118.116v-.233l.118-.116c-.236.116-.354.116-.354.116v-.35h-.118v-.233c.118-.117.118 0 .236.233v.117c0 .117.118.117.118.117.118.116.118.35.118.35.118.116.118.116.118 0z" fill="#fff"/><path d="M21.61 30.675s0 .117-.117.233c-.119.117-.119.117-.237.117v-.233c.236-.117.236-.117.355-.117zm1.772-.943v.234c0 .117-.118.117-.118.117v-.234c.118 0 .118-.117.118-.117zm-.24 0v.234c-.118.116-.118.233-.236.233v-.233c.118-.234.236-.234.236-.234zm-.47-.222v.233c0 .117-.118.234-.118.117v-.233c0-.117.118-.117.118-.117zM8.147 4.438c0-.233.237-.35.355-.35l.354.117c.119.116.119.116 0 .116-.354 0-.59 0-.59.234-.119.116-.119.116-.119-.117zm1.061.69c.118.117 0 .233 0 .233-.118-.116-.118-.116 0-.233-.118 0-.118 0 0 0z" fill="#fff"/><path d="M8.03 4.786c-.119.116 0 .35.118.467l.236.35c.236.116.354.116.236-.117 0-.117 0-.233.118-.233.119 0 .119-.117.237-.117 0-.117 0-.234-.118-.234-.119.117-.237.234-.355.234.236-.117.355-.234.355-.234s.118-.116.236 0c0-.116 0-.116-.118-.233-.355 0-.473.117-.71.35a.651.651 0 01.592-.35c0-.117 0-.117-.119-.233-.118 0-.354 0-.472.116l-.237.234zm1.3 1.867c.472.467.944 1.05 1.298 1.633v.584l-.236-.584v.584l-.236-.933-.118.466-.118-.583v.7c-.118-.117-.118-.467-.118-.933l-.237.466c-.118-.233 0-.466 0-.816 0-.117-.118.116-.118.466-.118-.233-.118-.466 0-.816l-.118.233v-.467zm3.66-4.203c.117.117.353.117.59.117v.116c.354 0 .708-.116 1.063-.466h-.119c-.236.116-.236 0 .237-.234h.59c-.236.234-.59.467-.827.7-.472.234-.826.35-1.18.234-.237-.117-.355-.234-.591-.35 0-.117 0-.117.236-.117zm2.004.113c.119 0 .119 0 0 0 .119.118 0 .118 0 .118v-.119zm.475.825c.118 0 .118.118 0 0 0 .118.118.118 0 0 0 .118 0 .118 0 0zm1.063-.353c.118 0 .118.118 0 .118v-.118c-.118.118-.118 0 0 0zm-.236-.238c.118 0 .118.117 0 0 0 .234 0 .234 0 0 0 .117 0 .117 0 0zm-1.653.351c.118 0 .118 0 0 0 .118.119.118.119 0 0 0 .119 0 .119 0 0zm.588 1.17c-.118.119 0 .119 0 0-.118 0-.118 0 0 0zm-1.887-1.046c.119 0 .355-.116.71-.233l.354-.117c.118-.116.236-.116.118.117-.118.117-.354.233-.473.35-.118.117-.354.234-.709.117-.236-.117-.118-.234 0-.234z" fill="#fff"/><path d="M14.407 3.152c.236-.233.354-.233.59-.35.237-.117.473-.117.71-.117.236-.117.354.117.118.234 0 .116-.118.116-.237.116-.236.117-.354.234-.59.234-.237.116-.355 0-.118-.117.118-.117.118-.117.236-.117.118-.116.354-.116.472-.116-.118-.234-.59 0-1.181.233-.118.117-.118.117 0 0z" fill="#fff"/><path d="M15.704 2.335h.354c.236.117.236.117.355.35 0 .116-.119.233-.237.233 0-.233-.118-.35-.236-.466-.118 0-.118 0-.236-.117zm-.236.118c.118 0 .118 0 .118-.118v.118h-.118zm-.237-.236c.118-.117.236-.234.473-.234h.59c.355.117.237.234 0 .117-.118-.117-.354-.117-.59 0 0 .233-.237.117-.473.117 0 .116-.118.116 0 0z" fill="#fff"/><path d="M16.296 2.335c.118 0 .236 0 .236.117 0 .116 0 .233-.118.35.118-.35-.118-.35-.118-.467zm.354-.12v.35l-.119.234c0 .116 0 .116.118.116.119-.116.237-.233.237-.35 0-.233 0-.35.118-.35-.236-.233-.355-.233-.355 0zm-.946 1.287c0 .117.355.234.355 0 .118-.233-.118-.35 0-.467-.237.117-.355.234-.355.467zm-.119.467c.118-.117.236-.234.355-.117.118 0 .236 0 .236.117v.35c0 .117 0 .117-.236.117-.118 0-.237-.117-.355 0 .118-.233 0-.35 0-.467zm.71-.583c-.118-.117 0-.234 0 0 .118 0 .236 0 .236.116 0 .117-.118.234-.236.117s0-.117 0-.233zm.001.466c0-.117 0-.117.236-.117a.36.36 0 01.118.234c.118.116.118.233 0 .466-.118-.116-.118 0-.236-.116 0-.117-.118 0 0-.234 0 0 0-.116-.118-.233zm.237 1.276c.118 0 .118 0 .118.117 0 .116 0 0-.118 0s-.118 0-.118-.117h.118zm-.946-.113c.118 0 .118 0 .118.116l-.118.117c-.118 0-.118 0-.118-.117 0-.116.118-.116.118-.116z" fill="#fff"/><path d="M15.822 6.185h.236v.117c-.118 0-.118 0-.236-.117zm-.236-.116h.472c.236.116.236.116 0 .233h-.472c.118-.117.118-.117 0-.233zm1.18-1.283c-.117-.117-.354-.234-.59-.35-.236 0-.472 0-.826.116-.119.234-.237.467-.237.817h.118l-.118.116h.118l-.118.117h.118l-.118.233.118.117v.117h.119v.116h.118v.117h.118c0 .117.118.117.236.233h.236c.236-.116.236-.233.354-.466 0 0 .119-.117.119-.234 0 .117.118 0 .118 0l.118-.116v-.35h-.236l-.237-.117-.118.467c0 .116 0 .233-.118.233l-.236-.117c-.118 0 0-.116 0-.116h.118v-.467c-.118 0-.354.117-.472 0h-.237c0-.117.119-.117.119-.233v-.233h.472l.118.116v-.116c0-.117.118-.117.236-.117v.35l.59-.233z" fill="#fff"/><path d="M16.057 5.015c.118-.234.118-.234.118-.117l-.118.117zm0 .696c0-.233 0-.35.118-.583h.118c-.118.117-.118.35-.236.583 0 .117 0 .117 0 0zm-1.18-1.047c0-.117.118-.117.118 0 0 .233 0 .35-.118.467-.118 0-.236 0-.118-.117s.118-.233.118-.35zm-.115.817c0-.117.118-.117 0 0 .236.35.354.7.827 1.167.118.117 0 .233-.118.117-.473-.35-.591-.817-.71-1.284zm1.534 1.284c0-.117 0-.234.118-.35.118-.117.118 0 .118.116-.118.117-.236.117-.236.234zM12.4 8.399c0-.117 0-.234.119-.234 0 0-.119 0-.119-.117-.118.117-.236.35-.354.467.118-.35.236-.583.473-.817 0 .117-.119.234-.119.234l.119.116.118-.116v.116c-.118.234-.237.234-.237.35z" fill="#fff"/><path d="M12.164 8.628c0-.117 0-.117.118-.233 0 .116 0 .233-.118.233zm.826.117v-.234l.118-.116c0 .233 0 .233-.119.35zm0 .47c0-.117 0-.234.236-.35-.118.233-.118.233-.237.35zm.354-.125c.118-.35.118-.467.118-.934.118.35.118.467-.118.933zm2.36 1.289c.118-.35.118-.583.118-.933h-.118c0 .116-.118.35-.118.583 0-.233.118-.35.118-.583h-.118c0 .116 0 .233-.118.466v-.466h-.118c0 .233 0 .35-.118.7v-.7h-.119c0 .233 0 .466-.118.7v-.817h-.118c0 .233 0 .467-.118.817v-.817h-.118c0 .233-.118.467-.118.7v-.817h-.118c0 .35 0 .584-.118.817 0-.35-.118-.7 0-.933l-.118.233c-.119.35-.119.7-.119 1.05-.118-.467-.118-.7 0-1.05l-.118-.117c0 .117-.118.234-.236.35.118-.116.118-.35.118-.466l-.118-.117c0 .233-.118.35-.236.7.236-.467.236-.933.236-1.516 0 .233.118.35.118.583.118 0 .118 0 .118.116v-.816c.118.35.118.583 0 .816h.118s0-.116.119-.116v.116h.118c0-.116 0-.233.118-.35v.35h.118V8.63v.233h.118v-.116c0 .116 0 .233.118.35h.236v-.35c0 .116 0 .233.118.35h.119V8.63c0 .117.118.35.118.467h.118v-.35c.118.116.118.233.118.35h.118c0-.117 0-.234-.118-.467.118.117.118.233.118.35h.118c0-.233 0-.466-.118-.7.354.933.354 1.283 0 2.1zm.471-.934l.118.117.118-.234c.118 0 .118 0 .236.117v-.233c.119 0 .119 0 .237.116v-.583c-.118-.234-.236-.35-.355-.35v.35c0-.234-.118-.35-.236-.35 0 .116.118.233 0 .35l-.118-.117v.233l-.118.117.118.467zm1.421-1.05c-.119.118-.119 0-.119 0h.12zm-.119-.239c0 .117.118.117.118.234h-.118l-.119-.117h.119v-.117zm-.357-.333l.235.234h-.236v-.234zm0 .572s.117 0 .117.116c0 .117.119.117 0 .234 0 0-.118 0-.118-.117v-.233zm-.352-.114l.118.117c0 .117.118.234 0 .234l-.118-.117v-.234zm-4.845-.583c.118.117.118 0 .236 0 0 .117 0 .117-.118.234 0 0 0-.117-.118-.234zm-1.411 14.927v.118l.118-.118h-.118zm-4.49 6.537c.237-.117.237 0 .355.233.118.117.236.234.236.35.354.234.236.35-.236.35-.118 0-.236-.116-.236-.35l-.119-.583zm.002 1.047c-.118.233-.118.35.118.583.118.116.236.116.354.116l-.118-.116.236.116c0-.116-.118-.233-.236-.35l.236.117c0-.117-.118-.233-.236-.35h.118c-.236-.116-.354-.233-.472-.116z" fill="#fff"/><path d="M6.612 30.32c.119 0 .119.116.119.116 0 .117 0 .117-.119.234l-.118-.117c.118-.117.118-.234.118-.234zm3.07-10.143c0-.467.236-.934.472-1.4a9.719 9.719 0 00-.472 1.4zm1.063-2.676c-.118 0-.236-.116 0-.233.236-.233.59-.35.945-.35h.59c.236 0 .236.233 0 .233h-.472c-.355 0-.709.117-1.063.35z" fill="#fff"/><path d="M12.16 17.259c.119 0 .355 0 .355.116 0 0-.118.117-.354.117-.118 0-.354 0-.354-.117 0-.116.118-.116.354-.116zm1.184-3.149l-.237.233c-.118.117-.118.233-.118.233l.237-.233c.118-.117.118-.234.118-.234zm-1.062 1.05c-.118.117 0 .234.118.234.59.233 1.181 0 1.772-.35l.709-.35c.118-.116.118-.233-.119-.116l-.354.233.118-.35c-.236.117-.354.35-.354.467l-.118-.117c-.118.117-.118.233-.236.35l-.118-.117c-.118 0-.118.117-.237.233v-.233c-.118 0-.118.117-.236.35l.118-.233s-.118 0-.236.233l.236-.7c-.118 0-.236.234-.472.7-.118 0-.118 0-.118-.117l.236-.466c-.118 0-.236.233-.473.466l.237-.583-.237.467v-.233l-.236.233zm.118 9.565c-.12 0 0-.117 0 0l.236.117-.118.117-.119-.234zm.118-.117l.236.117s0 .117-.118.117l-.118-.234z" fill="#fff"/><path d="M12.635 24.493c-.119 0 0-.117 0 0l.236.117-.118.117-.118-.234zm.001-.238c-.118-.117.118-.233.118-.117l.236.234c.118.116-.118.233-.118.116l-.236-.233zm.354-.228c-.119-.116 0-.233.118-.116l.354.233c.119.117 0 .234-.118.117l-.355-.233z" fill="#fff"/><path d="M13.106 23.91c-.119-.116 0-.233.118-.116l.236.233c.118.116 0 .233-.118.116l-.236-.233zm.356-.113c-.119 0 0-.117 0 0l.355.117c0 .117 0 .117-.119.117l-.236-.234zm-1.298-1.639c0-.117-.118 0-.118 0v.234c0 .117.118 0 .118 0v-.234zm-.355.351c0-.117-.119-.117-.119 0v.233c0 .117.119 0 .119 0v-.233zm-.472.237l-.118.234c0 .116.118.116.118 0v-.234zm.586-.356c.118.117 0 .117 0 .117v-.116zm-.352.356c.118.117 0 .234 0 .234-.118-.117-.118-.117 0-.234-.118 0-.118 0 0 0zm-.471.227c0-.116-.118-.116-.118 0v.233c0 .117.119.117.119 0v-.233zm3.305-11.191c.118.117 0 .234 0 .234s-.118-.117 0-.234zm.238.23v-.351s.118.117.118.234l-.118.117zm.237.005c.118 0 .118 0 .118.117 0-.117 0 0-.118-.117l-.118.117c0-.117 0-.117.118-.117zm.114.226c.119.118 0 .118 0 .118v-.118zm.237 0h.591c.236 0 .236.117.118.234.118.35-.354.466-.354 0 0-.117-.119-.117-.355-.117-.118 0-.118-.117 0-.117zm-.826 3.505c.119.118 0 .118 0 .118s-.118 0 0-.118zm-.237 0c.118.117 0 .234 0 .234-.118 0-.118-.117 0-.234-.118.117-.118 0 0 0zm.239.233c.236-.116.354-.233.472-.233 0 0-.118.233-.354.35-.236.117-.354.233-.354.117-.118 0 .118-.117.236-.234zm.71-.471c.118-.117.236-.117.236-.117.118 0 0 .116-.236.116 0 .233-.118.233-.236.233.118-.116.118-.233.236-.233zm-.355 1.055c0-.117.118-.234.118-.35 0-.234.118-.35.354-.35.118-.117.118-.117.236-.117 0 .117-.118.117-.118.233.118-.116.236-.233.354-.233-.118.117-.236.233-.236.35l.118.117c.119-.117.355-.234.473-.234l-.354.35.118.117c.118-.117.354-.233.472-.233l-.236.233h.354c-.236.117-.354.117-.472.233l.118.117c.118-.467.236-.467.472-.467-.118.117-.236.117-.354.234l.118.116c.118-.116.354-.116.473-.116-.119 0-.237.116-.355.116h.473c-.119 0-.237 0-.237.117l.355.233h-.118l-.473-.116h-.236c-.118 0-.118.116-.236.116 0-.116.118-.116.118-.116h-.118c-.118 0-.118.116-.236.116l.118-.116h-.118c-.119.116-.119.116-.237.116 0-.116.118-.116.118-.233l-.118-.117-.236.234c0-.117 0-.117.118-.234v-.233l-.236.233c0-.116.118-.233.118-.233l-.236-.117a887.5 887.5 0 01-.236.234zm-2.481 5.715c0-.233 0-.466.118-.7 0-.116.119-.116.355-.233l2.007-.35c.119 0 .119 0 .119.234 0 .233-.119.35-.119.466-.118.117-.118-.233-.118-.583-.118.35-.118.7-.354.817-.118-.117 0-.467.118-.7-.236.233-.118.466-.354.7-.118 0-.118-.234 0-.584-.118.35-.236.584-.355.584v-.584l-.236.7v-.583c-.118.35-.118.583-.236.7a.736.736 0 010-.7h-.118c-.118.233-.118.35-.236.467-.118 0-.236-.117-.236-.35 0 .35-.118.583-.355.7zm3.189-4.782c0-.117.118-.117 0 0 0 .7-.118 1.4-.118 2.333-.118-.933-.118-1.633.118-2.333zm.236 0c-.118.7-.118 1.166-.236 1.983l.118.117c0-.817.118-1.4.236-2.1 0-.117-.118-.117-.118 0zm.118.466l.119-.466c.118-.117.118 0 .118.116l-.237.35zm-2.48-.583c-.118 1.05-.236 2.1-.118 2.917-.118-1.4.118-2.917.354-3.15v.117c-.354 1.166-.354 2.1-.118 3.033-.118-1.517 0-2.45.236-2.917v.117c-.236 1.05-.236 1.983 0 2.683h.119c-.119-1.167-.119-1.983.118-2.916h.118c-.236 1.166-.236 1.983-.118 2.8l.118-.117c-.118-1.167-.118-1.983.118-2.683h.118c-.118 1.166-.236 1.983 0 2.683h.118c-.118-1.284-.118-2.1.118-2.8l.118.117a10.192 10.192 0 000 2.683h.118c0-1.05-.118-1.867 0-2.567l.119-.116c-.119.816-.119 1.633 0 2.683h.118c-.118-1.167-.118-1.983 0-2.683v2.683h.118c-.118-1.284 0-2.1.118-2.683.118 0 .118.116 0 .233a7.725 7.725 0 000 2.333h.118c-.118-1.283 0-1.983.118-2.683.118-.117.118 0 .118.233-.118.817-.118 1.517-.118 2.45h-.118c.118 0 .118.117 0 .117l-2.126.35c-.118 0-.236-.117-.236-.234 0-.816.118-1.866.354-2.683zm-.354-.35c-.236.35-.354.934-.473 2.217a3.808 3.808 0 000 1.633c.119.35.237.35.355.35l2.244-.35c.118 0 .354-.117.236-.35l-.118-.233-.118.233-.118-.233-.118.233-.119-.35-.118.35-.118-.233-.118.35-.118-.234-.118.35v-.233.35l-.118-.35-.118.233-.118-.233-.119.233-.118-.116h-.354v.116l-.118-.116c-.118 0-.354-.117-.472-.117l.236-.117c0-.116-.118-.116-.236-.116l.236-.117h-.236l.236-.117c0-.116 0-.116-.236-.233l.236-.117v-.116h-.236l.236-.117c0-.117 0-.117-.236-.117l.236-.116c0-.117 0-.117-.236-.234l.236-.116-.236-.117.236-.117c0-.116 0-.116-.118-.116l.236-.117s-.118-.117-.236-.117l.236-.116-.236-.117.236-.116-.118-.117.236-.117s0-.117-.236-.117l.236-.116v-.117h-.236l.118-.116-.118.233.354-.117v-.116h-.236l.236-.117c0-.117-.118-.117-.236-.117zm3.307 5.365c-.118-.117 0-.117 0-.233h.59c.119 0 .237.116.237.233l.236.233c.118.117 0 .234-.118.234-.236-.234-.59-.35-.945-.467zm-.118 0c-.118-.117-.118 0 0 0 .118.233.354.35.472.467.236.116.473.116.709.116.118 0 .236-.116 0-.116a8.194 8.194 0 01-1.181-.467zm-.945-.933c-.118-.117 0-.35.118-.233l.236.233c.119.117 0 .233-.117.117l-.237-.117zm-.236.35c-.118-.117 0-.35.118-.233l.473.35c.118.116 0 .233-.119.233l-.472-.35zm1.18-3.732c-.117.116-.117.233.119.233-.118.117-.236.233 0 .35-.354.35-.354.466 0 .35-.354.466-.236.466-.118.35-.236.35-.236.35-.118.35-.236.233-.236.35 0 .35-.118.116-.236.233-.236.466-.118.233-.709.466-.118.7.118.116.354.35.354.7 0 .233.118.233.354.116.118 0 .354-.116.472-.116.237 0 .355-.234 0-.35 0-.117-.118-.234-.236-.117.118-.233 0-.117-.118-.233.118 0 .118-.117-.118 0v-.117c.118 0 .236-.116.236-.233l-.354.117c.118-.117.236-.234.118-.234l-.59.233c.354-.233.472-.35.354-.466l-.354.117c.236-.234.354-.35.354-.467l-.236.117c0-.117.118-.233.354-.233.236-.117.236-.234.236-.35l-.354.233.708-.7c0-.117-.354.117-.826.467v-.117c.472-.233.708-.583.945-.933l-.827.583.708-.816c0-.117-.236 0-.708.466v-.116l.354-.35c.236-.117.473-.35.59-.584.119-.233-.236.117-.59.35-.118.117-.236.117-.354.234l.945-.933v-.117c.118-.233-.473.466-.945.7z" fill="#fff"/><path d="M18.186 20.183c.118-.117.118-.233 0-.233v.233zm-.236 0c.118 0 .118 0 0 0v-.233h-.119l.119.233zm-.119.117l.119-.35h-.119v.35zm-.118 0v-.35h-.118l.118.35zm.591-.584h.118s0 .117-.118.117v-.116zm-.473-.116c.119.116 0 .116 0 .116s-.118 0 0-.116zm-.59.35c-.118.116-.118.116 0 .233h.118v.117s.118 0 .118-.117h.118v.35h-.118v.117l.118.116 1.063-.233c.355 0 .355-.233.355-.583 0-.117 0-.117-.119-.117h-.236l.118-.116c.237-.117.237-.117 0-.117h-.354.236c.118 0 .118-.117 0-.117.118-.117.118-.233-.236-.233.118-.117.118-.233 0-.233 0-.117-.236-.234-.118 0l.118.933c0 .116 0 .233-.118.233l-1.063-.233zm.472-.7c0-.117.118 0 .118.116v.234l-.118-.117v-.233zm1.181.233c.119.117.119.233.119.35 0 .117-.119.233-.119.117v-.467c-.118-.117-.236 0 0 0zm.237.35l.118.117v.116s-.118 0-.118-.116c-.118 0-.118 0 0-.117zm0 .933v.117c-.118 0-.118 0 0-.117-.118 0-.118 0 0 0zm-.118.234zm0-.584c0-.116.236-.116.118 0l-.118.234v-.234zM16.887 21c.118-.117.236-.234.472-.35.472-.117 1.063-.234 1.535-.35.119-.117.237-.117.237.116 0 .467-.118.817-.236.934v-.817h-.119c0 .35-.118.7-.236.817v-.7h-.118l-.118.7v-.584c0-.116 0-.116-.118-.116-.118.7-.236 1.05-.355 1.166.119-.466.119-.816.119-1.05 0 .35-.119.7-.237 1.05-.118-.233.118-.583.118-.933l-.236.933c-.118 0-.118-.116 0-.35V21c-.118.233-.118.466-.236.7V21l-.236.466v-.35L16.887 21zm1.77-14.004c.355-.233.709-.35 1.181-.233.236 0 .236.233.118.233-.472-.117-.944-.117-1.299 0-.118.116-.118 0 0 0zm-.354.466c.236-.35.709-.466 1.653-.466.237 0 .119.233 0 .233-.118 0-.236 0-.472.117-.118 0-.354.116-.472.116-.355.117-.59.467-.827.817-.118 0-.118 0-.118-.117.354-.583.709-.816 1.063-.816-.236 0-.473 0-.827.35 0-.117-.118-.117 0-.234zm.945-.233c.118 0 .236.117.118.233-.354.117-.59.35-.945.7 0 .117 0 .233-.236.35 0 .233-.118.35-.354.35l-.236.466c.118.117 0 .234-.236.467-.119.117-.237.117-.237-.117.237-.466.473-1.166.709-1.166.118 0 .118 0 .118-.233 0-.117.118-.117.118 0 0 .116 0 .116.118 0 .354-.583.709-.933 1.063-1.05zm-2.598 3.966c0-.584.118-.817.354-1.05.709-.467.945-1.05 1.181-1.05.236-.35.59-.816.945-1.166.354-.233.354-.117.236.117-.472.583-.827 1.282-1.299 1.516-.236 0-.354.116-.472.233l.236-.117c.118 0 .118 0 .118.117-.236.117-.59.7-.709.35-.117.233-.354.233-.472.466v.35c0 .35-.118.35-.118.234zm2.008-3.033c.236-.233.472-.466.708-.583.236-.117.236.117.118.117s-.354.116-.708.583c-.237.116-.237 0-.119-.117zm-1.772 2.566s.118-.117.118 0c.118-.117.118 0-.118 0 .118.117 0 .117 0 .117v-.117zm0 .7c0 .116 0 .116 0 0l.236-.35c.119-.233.355-.35.59-.583.119.116.237 0 .473-.35.354-.117.473-.35.59-.7.119-.233 0-.35-.117-.117-.237.35-.473.467-.473.7-.236.117-.472.35-.826.583-.119.117-.119.117-.119.234-.236.116-.354.233-.354.583zm0 .466c.118-.35.236-.583.355-.7.118-.116.236-.116.118 0-.119.117-.237.35-.237.7s-.354.35-.236 0zm.473-.233l.236-.583c.118-.233.118-.35.354-.35l.354-.35c.118-.117.118 0 .118.117l-.236.35c0 .35-.118.583-.472.933-.118.116-.118.116-.118 0l.236-.583-.472.466c0 .233 0 .117 0 0zm.708 0l.118-.583c0-.233.118-.35.236-.583l.118-.467c0-.233.118-.116.118.117l-.118.35c.118 0 0 .116 0 .233s0 .233-.118.233c0 .35-.118.7-.236.817-.118.233-.118.233-.118-.117zm-.945.7c.237-.117.473-.233.59-.467.237-.35.355-.35.237 0-.118.234-.236.467-.59.7-.355.117-.473-.117-.237-.233zm-.708.816c.118-.233.472-.466.945-.583.354-.117.59-.35.826-.583.236-.117.236 0 .118.117-.118.116-.118.233-.354.233l-.709.35c-.236.116-.472.233-.708.466-.118.35-.118.234-.118 0zm.118.933c-.118.117-.118.234 0 .35.236-.116.236-.583.945-.933.118-.116.118-.116-.118-.116l-.709.466c.236-.35.473-.583.827-.7.236 0 .354-.116.59-.35.118-.116 0-.233-.118-.116-.354.233-.709.35-1.063.583a3.542 3.542 0 00-.59.816h.236zm0 .467c-.118.117 0 .233 0 0 .472-.35.709-.7 1.063-1.05.354-.233.826-.7 1.063-1.283.118-.35 0-.466-.119-.233-.236.583-.472 1.05-.826 1.283-.473.35-.945.7-1.18 1.283zm.118.35c-.118.116-.118.116 0 0l.709-.7.472-.466c.354-.117.59-.467.708-1.167v-.117c-.236.467-.472.817-.708 1.05l-.709.7c-.118.117-.118.233-.118.35l-.354.35zm1.299-1.05a1.63 1.63 0 00-.472.35c-.118.233 0 .233.118.117a1.61 1.61 0 00.354-.467c.118.117.118 0 0 0zm-.709 1.166c0-.233.237-.583.473-.7.236-.116.236-.116.118.117s-.236.467-.354.583c-.118.117-.236.234-.236 0zm0-.583v.234-.117c-.117 0-.117-.117 0-.117zm1.063-.35s.118.117 0 .234c0 .116-.118.116-.118.116-.118 0-.118-.116 0-.233 0-.117 0-.117.118-.117zm2.126-7.93c-1.3-.117-1.89.35-2.126.7s-.472.699-.472 1.166c0 .116.118-.117.354-.35h-.118c0-.117.118-.117.118-.234 0 0 0-.116.118-.116s.118-.117.118-.117h-.118c.354-.466.827-.466 1.417-.466h.709s.118-.117 0-.117c-.473-.117-.945 0-1.417.117.354-.234.826-.234 1.535-.234.118-.116.236-.35-.118-.35zm.942-.229c-.118 0 0 .117.118.234.118.116.118 0 .118-.117-.118 0-.236-.117-.236-.117zm-.709-.233c-.118-.117 0-.234.118-.234.473.117.827.117 1.182.35.118.117 0 .234-.118.117l-.355-.117c0 .117-.118.117-.236-.116-.118.116-.236.116-.473-.117l.118.35c0 .117 0 .117-.118 0l-.118-.233zm1.654.697c-.118-.117 0-.117 0 0-.118-.234-.118-.35 0-.35.355 0 .709-.234 1.182 0l.236.233c.118.35 0 .467-.118.233-.118-.116 0-.233-.236-.35.118.234.236.467.236.7.354.35 0 .35-.118.234l-.119-.584v.467c-.118 0 0-.233-.118-.467 0-.116 0-.35-.118-.35-.236-.116-.472 0-.709 0 .355 0 .591 0 .591.117.118.117.118.35.118.467-.118.117-.118.117-.118-.117v-.233c0-.117-.118-.117-.354-.117-.119.117-.237.117-.355.117zm.474 10.613c-.118-.117.119-.233.237 0 .354.467.59.933.826 1.4.118.35 0 .35-.118.116-.236-.583-.59-1.05-.945-1.516zm.473.117c-.118-.117 0-.234.118 0 .236.35.472.7.59 1.166.118.233 0 .233-.118.117-.118-.584-.354-.933-.59-1.283zm-5.078.233c.473.816 1.063 1.516 1.653 2.216.118.117 0-.233.118-.117.119.234.355.584.473.584.118-.117-.236-.35-.236-.584l.826.933c.118-.116-.472-.7-.826-1.166l.118-.117.944 1.283c-.118-.466-.59-.933-.944-1.4v-.116c.236.233.472.583.59.817.236.35.59.7.59.816.355.117-.826-1.166-1.416-2.216v-.117c.708 1.05 1.298 1.867 1.889 2.333.118 0 .118 0 .118-.117-.59-.7-1.299-1.4-1.653-2.099v-.117c.59.7.944 1.633 2.125 2.333.118 0 .118.117.236.117.237-.234-1.062-.467-2.007-2.216v-.117c.354.466.472.7.827 1.05.472.466 1.18 1.166 1.299 1.05.118-.117-1.063-.934-1.772-1.867.473.7 1.181 1.517 2.244 2.1.118.116.118.116.236.116.472 0-1.063-.7-1.771-1.516v-.117c.236.234.472.467.826.7l1.063.7c.236.117.472.233.59.233.237-.116-1.062-.583-1.416-.933.236.117.354.233.59.233.59.234.945.467 1.063.35 0-.116-.236-.233-.709-.466-.118-.117 0-.117.118 0 .59.233.945.35 1.063.35.236-.117-.118-.233-.472-.467.472.233.826.35 1.062.35.118 0-.236-.233-.59-.466.354.233 1.417.583.472 0 .354.233.827.35.236-.117h.237c.354.233.472.466.236-.117.354.467.59.584.236 0l.472.35c-.118.117-.118.117 0 .233.355.234.473.234.355 0 0-.35-.119-.7-.355-.816-.354-.233-.236 0 .118.583l-.354-.35c-.118-.116-.236-.233-.354-.233-.709 0-1.417.117-2.007.233-.473.117-.945 0-1.063-.116-.236-.117-.236-.234-.118-.35.118-.117 0-.233-.118-.233l-.59-1.05.235.233c.236.35.355.583.355.583-.119-.233-.355-.7-.473-1.166.355.7.709 1.166.827 1.166 0-.233-.354-.7-.59-1.283l.236.234.236.233c-.236-.467-.473-.817-.709-.933-.472-.117-.708-.234-.59.116l-.236-.233h-.237c-.118 0 0 .117.237.35l-.237-.35c-.118 0-.236-.117-.236 0l.118.233-.236-.35c-.118-.116-.236-.116-.236 0l.472.7-.354-.35c-.118-.233-.354-.35-.472-.466-.236 0 .236.35.472.933l-.59-.933s-.354-.117-.354 0l.708 1.05c-.354-.35-.709-.7-.827-1.05h-.236l.945 1.166c-.236-.116-.354-.35-.472-.466-.237-.234-.355-.467-.473-.7 0-.117-.236 0-.236 0-.118.116.709.816 1.063 1.283-.473-.467-.827-.817-1.18-1.283-.119-.117-.237-.117-.355 0 0 .116.944 1.05 1.299 1.633-.473-.583-1.063-1.05-1.417-1.633-.118-.117-.236-.117-.236 0 0 .116.826.933 1.535 1.866-.473-.583-1.063-1.283-1.3-1.4-.117 0 .355.467 1.3 1.633-.473-.466-.945-.933-1.3-1.4-.117.117.355.7 1.181 1.634l-1.889-1.4c-.118-.117-.118-.117 0 0z" fill="#fff"/><path d="M22.2 7.694v.583c0 .117.117.117.117.117V7.81c-.118 0-.118 0-.118-.117zm.117 0v.35c0 .117 0 .233.119.35v-.467c0-.116 0-.116-.119-.233zm.237 0v.467c0 .116 0 .35.118.466 0 .117.118.233.118.117 0-.35-.118-.583-.118-.817 0-.116-.118-.116-.118-.233zm.236.233v.467c0 .117 0 .233.118.35l.118.116c0-.35-.118-.583-.118-.816-.118 0-.118-.117-.118-.117zm.236.234v.35c0 .116 0 .233.118.35l.118.116c0-.233-.118-.466-.118-.7-.118 0-.118-.116-.118-.116zm.118.233v.35c0 .116 0 .233.118.35l.118.116c0-.233-.118-.466-.118-.583 0-.233 0-.233-.118-.233zm.236.233v.35c0 .117 0 .233.118.233l.118.117c0-.233-.118-.35-.118-.583 0-.117-.118-.117-.118-.117zm.236.233v.234c0 .116 0 .116.118.233l.118.117c-.118-.234-.118-.35-.236-.584zm1.181 1.867c-.118-.117-.236 0 0 .233s.354.116.354.116l-.354-.35zM20.9 6.76s.119.233.119.35c0 .117.118.35.118.35-.119-.233-.237-.467-.237-.7zm-2.007 2.916c.118.7.709 1.633 1.535 2.332-.118-.233-.708-.816-1.063-1.4-.236-.466-.354-.816-.472-.932zm.118-.233c.118.7.59 1.516 1.417 2.099-.118-.233-.59-.7-.945-1.166-.236-.584-.354-.817-.472-.933zm.118-.35c.118.7.59 1.4 1.3 1.982 0-.116-.591-.583-.827-1.166-.237-.35-.355-.7-.473-.816zm.118-.234c.118.584.473 1.283 1.181 1.867 0-.117-.472-.584-.826-1.05-.119-.467-.237-.7-.355-.817zm.236-.35c0 .584.473 1.167 1.063 1.75 0-.117-.472-.583-.708-.933-.236-.467-.355-.7-.355-.816zm.119-.233c0 .467.354 1.167.944 1.516 0-.116-.472-.466-.59-.816-.236-.35-.236-.583-.354-.7zm.118-.233c0 .467.354 1.05.826 1.4 0-.117-.354-.467-.59-.817-.118-.35-.118-.583-.236-.583zm.236-.35c.118.117.118.233.236.583s.472.583.472.7c-.472-.35-.708-.816-.708-1.283zm.236-.233c.118.116.118.233.236.466.118.234.354.584.354.584-.354-.234-.59-.7-.59-1.05zm.236-.233l.236.466c0 .233.236.467.236.467-.354-.234-.59-.584-.472-.933zm-1.89 6.181v-.35c.473.7 1.182 1.516 1.89 2.216-.118-.35-1.063-1.166-1.653-1.866-.118-.233-.236-.35-.354-.583v-.233c.354.816 1.063 1.516 2.007 2.332-.118-.233-1.063-1.05-1.535-1.75-.236-.35-.354-.582-.354-.816v-.116c.354.816 1.063 1.633 1.89 2.332-.119-.233-1.064-1.05-1.536-1.75-.236-.349-.354-.582-.354-.816v-.116c.354.816 1.299 1.75 2.007 2.45-.118-.234-1.18-1.167-1.653-1.867-.236-.35-.354-.583-.354-.816v-.234c.354.817 1.18 1.75 2.007 2.45-.118-.234-1.18-1.05-1.535-1.75-.236-.35-.354-.7-.472-.816v-.234c.236.817 1.063 1.75 1.89 2.333-.119-.233-1.064-.933-1.418-1.633l-.472-.933v-.233c.236.816.944 1.75 1.771 2.333 0-.234-.945-.934-1.299-1.517 0-.466-.118-.816-.118-1.05v-.233c.118.817.827 1.75 1.771 2.45-.118-.234-.826-.933-1.18-1.517-.473-.583-.473-.933-.59-1.05.235-2.099 1.18-3.382 2.479-3.615 0 .233 0 .583.118.817 0-.117 0-.35-.118-.584V6.41h.118c0 .35.118.583.236.583-.118-.116-.118-.35-.118-.583h.118c0 .35.118.7.236.7-.118-.233-.118-.467-.118-.583 0 .116.118.233.118.35.118-.117 0-.234 0-.35.118-.117.354-.117.59.116.119.117 0 .117-.117.117h-.119l.237.117s0 .116-.118.116h.59c.118 0 .118.117.118.117l-.118.117c.236 0 .59.116.945.233 0 .116-.119.116-.355 0 .118.116.355.116.236.233 0 .117-.354 0-.59.233h.354c.118.117.118.117-.118.117.236.233.354.35.473.117 0-.117.118-.117.236 0 .236.116.354.116.118.233.118 0 .118.117 0 .117-.236 0-.236.116.118.116.118.117.236.117.118.233-.354 0-.354.117.118.117.118 0 .118.117.118.117-.236 0-.118.116.118.116 0 0 .118.117 0 .117-.236 0-.236.117.118.117 0 .116.236.116.236.233.237 0 .355.116.119.116.354 0 .472.117.472.35 0 .117-.473-.233-.354.583l.118.117c.118 0 0-.35.236-.35v.35c0 .117-.118.233-.354.117-.119-.117-.237-.234-.237-.35v-.233c-.118 0-.236-.117-.236-.234v-.116c-.236 0-.354 0-.472.233 0 .117-.118 0-.118-.117h-.118s0-.116-.118-.116h-.118s0-.117-.118 0c-.119.116-.119.116-.119 0 0-.117.119-.234-.118 0h-.118c-.118-.234-.118-.234-.236 0 0 .116-.118.116-.118 0-.118-.35-.118-.35-.118 0 0 .116-.118.116-.118 0-.118-.35-.118 0-.236-.117-.118-.233 0-.466-.236-.466l.118.466c0 .117-.118.117-.118 0 0-.35-.237-.933-.237-.7l.119.7c0 .117-.119 0-.237-.117l-.236-.933c0-.233 0 .467.118.817h-.118c0-.117-.118-.933-.236-.817-.118.117.236.933 0 .817l-.118-.817v.817c-.236-.35 0-1.05-.118-1.166l-.118.933c.118.7.708.816.708 1.05l-.472-.234c.118.233.354.466.472.7-.118 0 0 .233.118.35-.118 0-.118.116.118.35.119 0 .119.116.119.116-.355-.116-.355-.116.118.35-.355 0-.355 0 0 .233 0 0 .118.117.118.234 0 .116 0 0-.118 0s-.118-.117-.237-.117c-.118 0 0 .117.355.466.118.117.118.117.118.234-.473-.35-.473-.233.118.233.118.233.118.35.118.35-.472-.35-.709-.583 0 .117a.358.358 0 01.118.233c-.827-.583-.354-.233.118.35v.116c-.708-.583-.826-.466 0 .35 0 .117.118.117 0 .233h-.118c-.59-.466-.472-.35.118.467.118.117.118.233 0 .233-.708-.7-.826-.933 0 .234.118.116.118.233 0 .233-.59-.817-.59-.7 0 .117v.116c-.59-.7-.708-.816 0 .117.118.233.118.233 0 .116-.708-.816-.708-.7 0 .117.118.117.118.117 0 .117-.826-.817-.826-.817 0 .116 0 .234 0 .234-.118.117s-.118-.117-.118-.233c-.472-.583-.59-.583 0 .233-.118.117-.118.117-.236 0-.473-.583-.59-.583-.118 0h-.236c0-.117-.119-.117-.119-.233-.472-.467-.59-.467-.118.116l-.472-.116c-.118 0-.118 0-.236-.117-.236-.35-.354-.583-.709-.933 0 .117.355.35.59.7.119.233-.235.116-.354.116-.118-.233-.236-.233-.472-.583-.708-1.283-1.417-2.1-2.007-2.799zm0 .35v-.233c.473.583 1.3 1.633 1.89 2.216.236.35.236.35.354.466 0 .117 0 0-.118 0-.118-.116-.118-.116-.236-.35a27.173 27.173 0 01-1.89-2.099zm-.117.35c.59.583.708.816 1.299 1.516l.472.467c.118.116.354.116.236 0-.118-.117 0 0-.118-.234-.472-.583-1.299-1.516-1.771-2.099 0 .117-.118.233-.118.35zm-.118.35c.472.583.944 1.05 1.535 1.75h.236c0-.117-.473-.467-.473-.584-.472-.583-.708-.816-1.18-1.4 0 0 0 .117-.118.234zm-.118.35c.354.466.708.816 1.18 1.283.119.116.237.116.237 0a72.88 72.88 0 00-1.3-1.633c0 .116 0 .233-.117.35zm0 .466c.354.35.59.467.826.817h.236c-.354-.467-.708-.7-1.062-1.167v.35zm0 .35c.118.117.354.233.472.35h.236c-.236-.233-.472-.35-.708-.7v.35zm.354.467c-.236 0-.236 0-.236-.234l.236.234zm2.598-9.564c-.119.233 0 .583.236.933 0-.117-.118-.233-.118-.467 0-.233 0-.466-.118-.466zm.236 8.164c0-.233-.118-.35-.355-.466 0 0 .119.116.237.35.118 0 .118 0 .118.116zm.118.466s-.118-.116-.236-.35c-.118-.233-.355-.35-.355-.466.355.35.59.583.59.816zm0 .584l-.236-.467c-.118-.233-.355-.466-.473-.583.473.35.709.7.709 1.05zm.118.466c0-.466-.236-.7-.709-1.05 0 .117.355.35.473.7.118.234.118.35.236.35zm-.945-9.214c0 .234.118.583.473.817l-.237-.467a1.659 1.659 0 01-.236-.35z" fill="#fff"/><path d="M9.562 5.944c-.236-.117-.236 0-.236.233 2.952 4.199 7.557 10.264 12.87 17.495v.117l.473.233-.236-.583-.118.116c-4.133-5.715-8.856-12.48-12.753-17.611zm-.59.233c0 .117 0 .233-.118.117-.236-.234-.118-.467.118-.817.118-.233.472-.233.708 0 .118.117.118.117-.118.117-.472 0-.708.233-.59.583zM6.728 2.445c.473.466.827 1.05 1.3 1.633 0 .116 0 .116-.119.116-.472-.583-.826-1.166-1.18-1.75 0-.116-.119-.116 0 0z" fill="#E3B800"/><path d="M17.477 7.229c-.118 0-.118.117 0 0l.237-.233c.118-.234 0 .116.118 0 .118 0 .236-.35.236-.35l.236-.117c.118-.117.118-.117-.118-.117-.118.234-.354.467-.472.584l-.237.233zm-.472-.117v.117s-.118.117-.118 0v-.117h.118zm-6.14-.233c-.118 0-.118.117 0 .117h.236c.118 0 .118 0 .236.116.118.117.118.234.236.117 0 0-.236-.233-.118-.233h.118c.236.233.473.35.473.35l-.236-.35c0-.117.118 0 .118 0l.354.35c0 .116 0 0-.118-.234 0-.116.118-.116.118 0 .236.234.472.583.472.467v-.233c0-.117.118-.117.118 0l.236.233v-.117c0-.116 0-.116.118 0l.355.35c.118.117.118 0 .118 0l-.118-.117c0-.116 0-.116.118 0l.472.234c.118 0 .118 0 0-.117h.236c0 .117.118.117.236.233 0 0 .118 0 .118-.116l.473-.117c.118 0 .118-.117 0-.117-.59.117-1.299-.116-2.008-.583-.944-.466-1.77-.466-2.361-.233zm.708-.583c0 .116 0 .116 0 0 .118 0 .236 0 .355.116 0-.233.118-.233.236.117 0-.233 0-.35.236.117 0-.234 0-.234.236.116 0 .117.118.117.118 0-.118-.35 0-.35.118 0 .118.117.118.117.118 0 0-.233.118-.233.355.117v.117c0-.234 0-.234.236.116.118 0 .354.117.59.35 0 0 .118.117.118 0-.118-.233 0-.116.236 0l.118-.116c-.472-.234-.944-.35-1.18-.584-.355-.233-.473-.233-.945-.466-.354-.233-.59-.117-.945 0zm1.772 0c.354 0 .708.116.944.35-.118-.117-.236-.117-.354-.117v.233c-.118-.233-.236-.233-.354-.233h-.118c-.118-.233-.118-.233-.236-.117 0-.116 0-.116.118-.116zM8.267 8.862c.236-.35.354-.467.472-.234.237-.466.473-.466.59-.116.237 0 .355.466.355 1.05l-.236-.7v.466c-.236-.7-1.417-.233-1.18-.466zm1.535.116l.118.117v.233l-.118-.116v-.234zM8.15 10.611c0-.116.118-.233.354-.233v.117l.354-.117v.117l.355-.234c-.118.35-.236.467-.118.467 0 0 .354-.35.472-.233-.236.233-.118.116.236-.117.118 0-.118.233-.118.233s.118-.116.354-.233c.118 0 .236-.233.236-.117 0 .117-.118.117-.118.234-.118.233-.118.233.355 0 .118 0 .118-.117.236-.117-.236.35-.118.35.236 0 0 0 .118-.117.236-.117-.59.584-.472.584.118.35-.354.35-.236.35.236 0h.118c-.118.233-.118.35 0 .35.118-.117.355-.117.473-.117-.236.234-.236.35.118.234.118 0 0 .116-.236.35 0 .116-.118 0-.118-.234 0 .117-.119.117-.119 0l-.236.467h-.118v-.35c0-.117-.118-.117-.118 0v.35l-.118-.117c0 .117-.118.233-.236.233-.118-.116-.118-.116-.236 0h-.118c0 .117-.118.117-.118.117-.118.117-.237.117-.355.233l-.118-.116-.236.233-.118-.117-.118.234-.236.116c0 .117.118.117.236 0 .236 0 .708-.116 1.063-.233.354-.117.59-.117.944-.233.236-.117.59-.35.945-.583.118.116 0 .233-.59.7l-.355-.117.118.233c-.118.117-.118.117-.236.117l-.236-.117.118.233c-.236 0-.236-.233-.472-.116l.118.233h-.354v.233l-.355-.116v.116c-.118 0-.118 0-.236.117.827.116 1.653-.117 2.598-.583 0 0 .118 0 .118.116-.118.35-.354.7-.708.933l.118-.466c-.236.116-.59.7-.827.816l.236-.583-.708.583c0-.116 0-.233.236-.466-.236 0-.59.466-.59.466-.118-.116.118-.233.236-.35-.236 0-.354.117-.473.234 0-.117.119-.234.237-.35l-.59.233c0-.117.235-.233.235-.35a3.833 3.833 0 00-.708.233l.236-.233-.472.233.236-.35-.59.234.118-.234-.355.234.118-.35c-.236.116-.354.233-.472.233.118-.117.236-.233.118-.35-.236.117-.354.233-.472.233l.118-.233c-.118.117-.354.233-.472.35l.236-.35v-.116l-.355.35c.119-.117.119-.234.119-.35l-.237.116v-.116l-.354.35s0-.117.118-.234l-.354.233c0-.233.354-.466.708-.583.473-.116.827-.116 1.181-.233.473-.117.827-.117 1.3-.35.235-.117.472-.117.708-.35h-.71v-.233l-.237.233v-.233l-.236.466v-.583l-.118.583-.118-.583-.236.7v-.7l-.119.7-.236-.7-.118.7-.118-.7-.118.7-.118-.7v.7l-.236-.7v.583l-.236-.466-.118.583v-.583l-.119.583c-.236-.466-.236-.816-.118-1.05.237-.233.473-.233.827-.233zm-1.89 3.15l-.117.232c.118 0 .118-.116.236-.116l-.118.233c.118 0 .354-.233.472-.35l-.118.233c.118 0 .236-.233.354-.35v.35c.118 0 .236-.233.354-.35v.234c.118 0 .237-.233.355-.233l.118.233c.118 0 .118-.117.236-.233v.233l.236-.233v.233l.236-.117.118.117.236-.117v.233l.237-.116v.116l.236-.116v.233l.236-.117v.234l.354-.234-.118.234.354-.234v.234l.355-.117-.237.35c.237 0 .355-.117.473-.233l-.118.35c.236 0 .472-.234.59-.467 0 .117 0 .233-.118.467a.916.916 0 00.472-.467l-.118.35c.118 0 .354-.117.473-.35v.35c.118-.117.236-.233.236-.35.118.117.354 0 .354-.233.118-.233 0-.35-.118-.233-.59.466-1.535.583-2.716.233-.827-.233-1.653-.233-2.48-.233-.472-.234-.826-.117-.944.116zm4.96 1.049l.118-.117c0 .117 0 .117-.118.117 0 .117 0 .233-.118.233 0 0 .118-.116.118-.233zm.354 0c0-.117.118-.117.118-.117s0 .117-.118.117c0 .233 0 .233-.118.233 0 0 0-.116.118-.233zm.236-.233c.119-.117.237-.234.237-.117 0 0 0 .233-.118.35-.119.117-.237.233-.237.117 0 0 .118-.117.118-.35zm-.944.233c.118 0 .236 0 .236.117 0 .116-.118.116-.236.116s-.236 0-.236-.116c-.118 0 .118-.117.236-.117zm5.904-7.698c0-.116.354-.35.945-.7.236-.233.472-.233.59-.233h.236c.118.117.118.117 0 .117s-.118-.117-.236 0c-.118 0-.118.116-.236.116l-.118-.116c-.118.116-.236.466-.354.7v-.117c-.119 0-.119.233-.237.35 0-.117 0-.233-.118-.233a.905.905 0 01-.472.116z" fill="#0091D1"/></svg>