<svg width="205" height="74" fill="none" xmlns="http://www.w3.org/2000/svg"><g clip-path="url(#clip0_319_1851)"><path d="M.251 2h60v57.913l-.221.447v1.118l-.222.447-.221.671v.448l-.222.447-.221.447-.221.447-.443.447-.222.448-.221.447-.443.223-.443.447-.221.448-.443.223-.443.448-.442.223-.443.224-.443.223-.664.224-.443.224-.664.223-.443.224h-.664l-.665.223h-1.992l-.664.224h-9.742l-.443.223h-.664l-.443.224h-.443l-.442.224h-.222l-.443.223h-.442l-.222.224-.443.224h-.221l-.443.223-.221.224-.222.223h-.442l-.222.224-.221.224-.222.223-.442.224-.222.223-.221.224-.222.224-.221.223-.221.224-.665.447-.442-.447-.222-.224-.221-.223-.222-.224-.221-.224-.222-.223-.442-.224-.222-.223-.221-.224-.443-.224h-.221l-.222-.223-.443-.224-.221-.223h-.221l-.443-.224-.443-.224h-.221l-.443-.223h-.222l-.442-.224h-.443l-.443-.224h-.664l-.443-.223h-9.742l-.664-.224H9.328l-.664-.223H8l-.443-.224-.664-.224-.443-.223-.664-.224-.443-.223-.443-.224-.442-.224-.443-.447-.443-.223-.443-.448-.221-.447-.443-.223-.221-.448-.443-.447-.222-.447-.221-.447-.221-.447-.222-.447v-.448l-.221-.67-.222-.448v-.447l-.221-.67V2z" fill="#171412"/><path d="M.693 2.447H60.03v56.348c0 6.037-3.764 10.285-11.291 10.285h-6.864c-5.314 0-8.856 1.79-11.291 4.472-2.436-2.46-5.978-4.472-11.292-4.472h-7.306C4.457 69.08.693 64.832.693 58.795V2.447z" fill="#A8002B"/><path d="M12.871 6.025c-.443 0-.443.447-.443.67l2.436 3.578c0 .224.221.447.221.447-.221.671-.221.895.221 1.342l.886.894c0 .671.221 1.118.443 1.342-.222.447 0 .67.443 1.118 0 0 .221.223.221.447l.221 1.118c-1.107.894-1.77 1.789-1.992 2.236v.67l1.55-.223c.221 0 .221.224.442.224.222.67 0 1.565-.885 1.565-2.214.447-3.764 1.118-3.1 2.46.664.894.443 1.789-.885 2.683-.222.224-.443.67-.443 1.118-.443.224-.664.894-.886 1.342-.221.67-.221.894.222.67 2.878-.894 5.756-1.341 7.749.224.885 1.118.664 1.565 2.214 1.565-.222.671 0 1.118.664 1.118v.671c-.664.224-1.329.224-1.993.224-.664.223-1.328.447-1.992.447-.443-.447-1.107-.67-1.55-.895-2.657-1.565-4.65-1.788-6.642.448C9.107 34.646 8 36.21 7.336 38.67c-.221.448-.443.671-1.107.224-1.328-1.118-1.55-2.012-.886-2.683.886-.895 1.329-.447.886.224v.223c.664 0 1.107.447 1.328 1.118.665-1.565.222-2.683-.664-3.578h-.221v1.342c-1.55-.224-2.214.895-2.436 2.013 0 1.117.443 2.012 1.772 2.683.664.223.885 1.118.442 2.012-1.55 2.236-1.328 4.472 0 7.38h.222c.221-3.355.885-5.144 1.992-5.367.443-.224.665-.448.886-.671.221-.447.443-.447.664 0 .664 1.341.443 2.683-.221 4.025-1.771 3.13-1.993 5.366.664 7.155v.223l-.664.895c-.222.447 0 .894.664 1.342.443.447.664 1.341.886 2.46-.222.446-.222.894-.222 1.34.443.672 1.329.895 2.657.672.221 0 0-.224 0-.224.221-.67-.221-1.118-.664-1.789-1.329-1.118-1.55-2.236-1.107-3.354l.221-.224c1.107.448 2.436.895 3.543.895-.443 1.118-.443 2.46 0 3.13.885 1.566 1.77 2.236 3.542 2.013 2.214-.224 3.321-2.013 2.657-4.696.885-.447 1.328-.447 1.55 0 0 1.118.443.895.443 2.013-1.329 1.118-1.772 2.236-.443 2.906.664.671.443 1.118-.665 1.118-1.107-.223-1.77-.223-1.992.671-.886 0-1.328.671-1.107 1.565.221-.67.886-.67 1.107-.67.443 0 1.107.223 1.55 0a1.4 1.4 0 011.328 0c.222 0 .443.223.664.447.665.67.665 0 1.993.894.443 0 .886 0 1.107.671l.221-.447c.222-.224 0-.447-.221-.671-.443-.67.221-.67 1.55-.447.664.223 1.328.447 1.771.447.664-.67.664-.224.886.67.442-1.117.221-1.788-1.107-1.788.221-.67.221.224.664-.447.443-.224.664 0 1.107.447 0-.67-.222-.894-.886-1.118-.221-.447-.443-.447-1.107 0-2.214-.67-2.435-1.789-1.107-2.236.664-.224.886.447 1.329.67.442.224.664 0 1.107.224.664 0 1.107.224 1.55.448l.442.223c.222-.223.443-.223.664.224.222.447.665.447.886.223.886-.67 2.214-.67 1.993-.223 0 .67 0 .894.221.894s.221.224.221.671c-.885 0-1.328.224-1.328.67-.664.224-.664.672-.443 1.566 0-1.342 1.107-.224 2.214-.894h.886c0 .447.443.67 1.107.447.221-.224.664-.224.886-.224 1.328-.447 2.435-.223 3.32.895.222-.448.222-.671 0-1.118.886-.671 1.993-.448 1.329.67.664-.223 1.107-1.788.443-1.788.221-.895 1.55-.224 1.107.447.443-.224.664-.671 0-1.342 0-.447-.443-.67-1.107-.447-.443-.67-.886-.67-1.55-.224-.664.224-1.107.448-1.55-.223-.443-.671-.221-.895.221-.671.222 0 .443-.224.665-.894.221-.224.443-.448.443-.895.664-.223 1.328-.67 1.992-2.012.443-.224.886-1.342.886-2.907.221.224.443 0 .885-.224-.221 0-.442-.223-.442-.67h1.107c.221-.224.442-.224.442-.448 0-.223-.221 0-.442-.447 0-.447-.222-.894-.665-1.118l-.885-1.789c-.443-1.565-1.107-2.46-1.771-1.788l-.222-.224c-.443-.671-.886-1.342-1.328-2.236 0-1.118-1.107-1.118-1.771-.224l-.222-.894-.221.447-1.772-2.683c.222 0 .443-.224.665-.224 2.214-.223 4.428-.894 6.642-2.012l1.55-.447c.664-.224.885 0 1.328.223l1.55 1.565c.221.448.221.671.221.895-.221.447.222.894.886 1.341.443.671.664 1.342.221 2.236-.221.671-.221 1.118.222 1.118l1.107.895c.664.67 1.107.447 1.107-.671 0-.447-.222-1.118-.443-1.565-.443-.671-.664-1.342-.664-2.013 0-1.341-.222-2.012-.665-2.46-.664-.67-1.107-1.34-1.55-2.012-.22-.447-.22-.67-.442-.894 0-1.342-1.107-2.012-1.55-1.565-.443.223-1.107.223-1.55 0v-.224c.664-.447 1.993-1.565 3.1-2.907.443-.67.664-.447 1.107.224l1.771 1.789c0 .894 0 1.565.664 1.341.443.671.664 1.342.222 1.79-.443.446-.665.67-.665 1.117 0 .671.886 1.342 1.772 1.789 0 0 .221 0 .221-.224a3.132 3.132 0 000-2.012l-.664-.67v-1.119c0-.894.221-1.341-.664-2.012-1.107-1.118-1.993-2.236-2.879-3.578 0-1.565-1.328-2.012-2.214-.224l-1.55 1.342c-.442.224-.664-.223-.664-.67-.221-2.237-1.55-3.802-3.1-5.367-.885-2.683-1.992-4.696-2.435-6.708 1.55.223 2.879.447 3.321.894.665.671 1.55 1.118 1.772.671 0-.224-.443-.447-.665-.67.222 0 .665.223 1.107.67.665 0 .886-.447.665-1.342 0-.67 0-1.118-.222-1.341l-.664-.448c-.886-1.117-1.771-2.236-2.435-3.354 0-.223-.222-.223-.222-.447 0-.447-.221-.894-.664-1.341l.221-.224v-.223l.443.223-.443-.894c-.221-.671-1.107-.895-2.656-.448-.222 0-.443-.223-.665-.447-.885-.894-1.77-1.341-1.55-.67 0 .223.443.447 0 .447l-1.55-.224c-.442 0-.442 0-.22.224.22.223.663.67.663.894l-1.992.224c-.443 0-.664.223-1.107.223-1.107-.894-2.436-.223-3.764.895h-.221v-1.566h.221l-.221-1.118h.221c0-1.565-.221-2.683-.886-3.354-.221-.447.443-.447.443-.67.443-.671.443-1.118.443-1.566 0-.67-.221-.894-.664-.67h-.222c-.442 0-.664-.224-.885-.448a1.4 1.4 0 00-1.329 0c-2.214.224-2.435 1.79-4.87.895-.222 0-.443 0-.222.223.443.671 1.107.895 1.55 1.118-.221.224-.664.224-1.328.224.442.67 1.107.894 2.435.894.443.224 1.107.224 1.55 0 .443-.223.443 0 .221.448-.664.447-1.107 1.565-1.107 3.577-.221 0-.443.447-.443.895-.885-.224-1.77-.448-1.992-.224h-.443c-.886-.447-1.771-.447-2.436 0l-1.328 1.118c-.443.447-.886.447-1.107 0l-.664-1.341c0-.895-.221-1.342-.886-1.342-.221-.224-.443-.671-.443-.895l-.442-.67c.221-.448 0-.671-.443-.671s-.664 0-.886-.224l-2.878-3.577zm-1.993 35.329c1.993 2.46 2.436 4.919.665 8.05-.665 1.565-.443 2.46.221 2.906.221-.447.443-1.341.443-2.236.221-1.341.885-1.118 1.992-2.236s.886-2.46.665-4.472c-.222-4.248.664-6.708 1.992-8.05-2.878-.894-4.87 1.566-5.978 6.038zm8.192 16.77c.443.224.443.67-.221.894-.221-.223-.221-.447.221-.894zm7.085 2.907c-.221.223-.443.447-.221.894l.664.447c.221-.223.221-.67 0-.894-.221 0-.221 0-.443-.447zm14.834 1.341c-.443.224-.664.448-.221.895.221.223.443.223.443 0 .664 0 0-.447-.222-.895zm-15.94-9.167c-1.108-1.118-1.108-2.013 0-2.683.663-.448 1.549-1.566 2.877-3.131.886 0 1.55-.224 2.214-.447 3.1-.447 6.2-1.118 8.414-2.46.442-.223.885 0 .885.224l1.772 2.46-.443.223 1.328 1.118c-.221.224 0 .447.222.447-.222.224 0 .447.22.447.222.448.444.895-.442.224-.443-.224-.443 0-.221.67l.664 1.119c0 .447.221.894.664 1.342l.664 1.341c0 .224.222.447.222.67 0 .448.221.672.664.895-.443.671-.886 1.566-1.771 2.013-1.55.894-2.879.447-2.879-1.566 0-1.117.222-2.235.443-3.353.443-2.013 0-2.907-1.55-2.907-.885 0-1.55 0-1.992.447-.443.224-1.107.224-1.993-.224-1.771-1.341-2.878-2.012-3.764-2.012.886.894 1.107 1.789.443 2.907.664.223.664.67 0 .894-1.55 0-3.542-.224-5.314-.894-.664-.224-.664 0-.22.447 1.328.67 2.213 1.342 2.213 2.683-.885 0-1.55 0-1.992.224-.443-.671-.886-.671-1.329-1.118zm-11.514 0c.443-1.79 1.55-2.683 3.1-2.907 1.55-.224 3.542-1.118 5.535-2.236.885-.671.885-.447.443.894l-.886 1.118c-.443.671-.664 1.118 0 1.79.886.446 1.328.894 1.107 1.34-1.107-.223-1.992-.223-2.878.672-.664-.224-1.328 0-2.214.447-.443-.224-1.107-.224-1.771-.224-.222-.447-.665-.447-1.55-.447 0-.224-.443-.224-.886-.447z" fill="#171412"/><path d="M53.608 43.814s.222 0 .222.224c.221.223.221.447 0 .447 0 0-.222 0-.222-.224v-.447zm.443 2.236s.222.224.222.447c0 .224 0 .447-.222.447-.221 0-.221-.223-.221-.447 0-.223 0-.447.221-.447zm-.664 2.012l.221-.67c.222-.224.222-.224.443 0l.664.67c-.221.224-.442.224-.664.224l.222.447-.222.224v.223c-.443-.447-.885-.67-.664-1.118zm2.215-7.378l.221-.671c0-.224 0-.224.221 0 .222.224.443.67.443 1.118 0 .224 0 .224-.221.447-.222 0-.222 0-.443-.224-.221-.447-.221-.67-.221-.67zm-.222-2.46c-.221-.223-.221-.447.222-.447-.443-.447 0-.67.442 0 .222.224.222.67.222 1.341 0 .224-.222.224-.222 0-.442-.447-.442-.67-.664-.894zm0 2.683h-.221c-.222.448-.443.671-.222.895l.665.447c.221.223.442 0 .221 0l-.221-.224c.221 0 .221.224.442.224.222 0 .222-.224 0-.224-.221-.223-.221-.223-.221-.447v-.224l-.443-.447zm-6.2-4.472c0-.448.222-1.118.444-1.566 0-.223.22-.223.442-.223.443-.895.443-.447.222.223h.221c.664-1.118.443-.223.221.224-.442.67-.664.67-.885.224l-.221.67c-.222.671-.222.895-.443.448zm-3.099-.895c-.221-.447 0-.67.221-.223.222.67.443 1.565.443 2.907 0 .447-.442.447-.442 0 0-.895 0-1.79-.222-2.684zm-.443-1.789c.222 0 .443.224.443.448 0 .447 0 .67-.221.67-.222 0-.443-.223-.443-.447-.221-.223 0-.67.221-.67zm-.664 1.342s.222 0 .222.224v.447s-.222 0-.222-.224c-.221-.223-.221-.447 0-.447zm2.436.224s.22 0 .22.223v.224s-.22 0-.22-.224v-.223zm4.206-2.013c-.221-.223-.221-.447 0-.67.221-.224.443-.224.664 0 .222 0 .222.223.222.223l-.443.224.443.223c.221.224 0 .671-.222.224-.221-.224-.443-.447-.664-.224.221.224 0 .224 0 0zm-3.1 3.578l.222-1.118-.221.447c-.222 0-.222-.224-.222-.447 0-.447 0-.447.221-.447l.222.447.221-.224c.222-.223.222 0 .222.447v1.118c-.443 0-.443.224-.664-.223zm-3.985-3.13c.222-.224.222-.224.222 0l.443.447v.223h-.443l-.222-.67c0 .223 0 .223 0 0zM47.188 38c.221 0 .221 0 0 0zm-1.55-4.696c0-1.118.222-2.236.222-3.13 0-.447.221-.447.221 0 0 .894 0 2.012-.221 2.907 0 .223-.222.447-.222.223zM11.1 56.335c-.221.67-1.107.447-.664-.224 1.107-1.788 1.992-3.354 2.214-5.813 0-.895.664-1.118 1.107-1.566 1.55-.894 1.992-2.012 1.992-3.577-.221-6.485 1.55-9.168 4.207-10.286v.224c-2.435 1.565-3.542 4.472-3.542 8.273v2.683-.223c0-2.236 0-4.249.442-5.59.222-1.342.665-2.46 1.107-2.907.222-.224.222-.447.443-.671.222-.224.443-.224.664-.447v.223c-.885.895-1.77 2.236-1.992 3.802-.443 1.788-.443 3.8-.222 6.037 0 .223 0 .67-.221.894h.221c.222-.447.222-.67.222-1.118-.222-2.683 0-5.143.885-7.155.665-1.342 1.107-1.789 2.879-2.683v.223c-1.55 1.118-2.879 2.236-3.321 6.485.221-3.13 1.328-5.59 3.542-6.261.664-1.118 1.55-1.118 2.436-1.118l-.222.224c-1.55-.224-2.657.447-3.764 1.565h.222c1.107-1.118 2.214-1.565 3.764-1.342l-.222.224c-1.107-.224-1.992.223-2.878.894v.224a4.227 4.227 0 012.657-.895c.221 0 .442.224.221.671l-.221 1.565c0 1.566 0 2.907-.443 4.249l-.221.223.22-2.683-.22 3.13c0 .448-.222.224-.222 0a8.42 8.42 0 00.443-2.683c-.221 0-.221 0-.221.224-.222 1.342-.443 2.46-.665 2.907.222-.895.222-1.789.443-2.683l-.221.223-.443 2.46c.221.223 0 .447-.221.223l.22-1.341-.663 2.236.221-1.565-.886 1.565h-.221l.221-1.342-.885 2.236c-.222 0-.222 0 0-.447l.443-1.565h-.222c-.443 1.118-.664 2.012-1.107 2.236h-.221c.664-1.118.664-1.565.664-2.013-.221.895-.664 1.79-1.107 2.236 0 0 0-.447.443-.894l.221-.894c-.221-.224-.221-.224-.221.223-.222.671-.443 1.118-.664 1.566l.442-1.342v-.224a4.335 4.335 0 01-1.107 2.013l.222.223c.885-.447 1.992-.447 2.878-.894.221-.224.443-.224.664 0l-.221.447-.222-.224c0 .448-.221.895-.442.895v-.67c-.443.894-.665 1.564-.886 1.117v-.67c-.443.447-.664.67-.664 1.117-.222 0-.222-.447-.222-.894v1.342c-.221 0-.221-.224-.221-.895-.221.67-.443.895-.443 1.118-.221-.224-.221-.447 0-.894l-.221.447c0 .447-.222.447-.222.447v-.67l-.442.894c-.222 0-.222-.224-.222-.671-.443.447-.443.894-.664 1.341-.221-.223-.221-.447-.221-.67-.222.447-.222.67-.443.894v-.894c0 .447-.222.67-.443 1.118l-.221-.671-.222.67c-.221.224-.443 0-.443-.447 0 .895-.221 1.566-.664 2.013 0 .224-.221.894-.443 1.565l.886-1.341c.221 0 .221 0 .221.447l-.885 1.565c-.222.224-.222.224-.443 0-.221.67-.443 1.342-.886 1.789.443-.224.665-.895.886-1.565 0-.224.221 0 .221.447l-.221.223v.448h-.221v.447l-.222-.224c.222.447 0 .895-.664.671zm5.313-21.465h.886l.221-.224-1.107.224zM6.008 43.59c.221-.447.443-.894.885-1.565.222-.447.222-.223.222.224-.443.67-.664 1.118-1.107 1.342z" fill="#fff"/><path d="M17.52 34.422c-1.77-1.565-3.542-2.46-4.87-2.236-2.436.67-3.764 2.907-4.428 5.143.443-.671.885-1.118 1.328-1.342C8.222 38 7.558 40.012 7.336 42.248c0 .224-.221.447-.443.67-.885.672-.664 1.119-.885 1.566.221-.224.443-.447.664-.894.443-.448.664-.895.886-1.566.221-.894.442-2.012.664-2.683.221-.894.664-1.565 1.107-2.46.885-1.341 1.992-2.683 3.32-3.353v.223c-1.327.67-2.213 1.789-3.32 3.354l-.664 1.342c-.222.447-.443 1.118-.443 1.788-.222 1.566-.443 2.46-.886 3.131-.443.67-.885 1.118-.885 1.342 0 .223-.222.447-.222.67.886-1.788 1.329-1.788 1.771-3.13.665-2.012.222-4.248 2.879-7.155h.443c-1.329 1.565-2.215 2.906-2.657 6.037 0 .447-.222 1.118-.443 1.565-.443.671-1.107 1.118-1.329 1.789h.222c.443-.447 1.107-1.118 1.328-1.565.886-1.565.443-3.801 1.55-5.367 1.329-2.236 2.435-3.354 3.985-4.024h.222c-2.214 1.117-2.657 2.012-3.764 3.354-.443.447-.664.894-.886 1.788-.221.671-.443 1.79-.664 2.684-.221 1.118-.664 1.788-1.107 2.46l-.664.67c-.222.224-.443.67-.443 1.118h.221c.665-1.565.886-1.342 1.329-1.789.221-.447.664-1.118.664-1.789.221-1.565.443-2.907 1.107-4.025.664-1.117 1.55-2.46 2.657-3.354.443-.447.886-.67 1.55-.894h.221c-.664.447-1.328.67-1.771 1.118-.886.895-1.771 2.236-2.436 3.354-.442 1.118-.664 2.236-.885 3.578 0-.224.221 0 .221 0 .664-2.907 1.771-4.92 3.1-6.261.664-.67 1.55-1.342 2.435-1.565h.443c-1.328.447-2.435.894-3.32 2.236h.22c1.107-1.118 2.214-1.79 3.321-2.013h.222c-.664.224-1.329.447-1.771.895v.223c.664-.447 1.992-.894 3.32-.894zM6.45 46.72c-.221-.224-.221-.447-.221-.67 0-.448.22-.224.442 0-.221.446-.221.446-.221.67zm3.1 3.131l.221-.223c.222 0 .222-.224.443 0 0 0-.221.223-.664.223zm-.222.895l.443-.447c.221-.224.443-.224.664 0-.221 0-.664.223-1.107.447zm0 .447l.443-.448c.221-.223.443-.223.664 0 0 .224-.443.224-1.107.448zm.222.447l.443-.448h.442c0 .224-.442.224-.885.448zm.221.446l.222-.223c.221 0 .221-.224.443 0 0 0-.443 0-.665.223zm.886-4.248l.664-.223c.222 0 .443 0 .665.223-.222.224-.665.224-1.329 0zm.443-1.118l.221-.223h.443c0 .224-.222.224-.664.224zm.221-.67h.443c.222 0 .443 0 .443.224-.222 0-.443 0-.886-.224zm-.886 7.602l.222-.223h.221c.222.223 0 .223-.443.223zm.885-.895h-.663l-.443.448c.221.223.664 0 1.107-.448z" fill="#fff"/><path d="M11.1 52.534h-.443c-.222 0-.443.224-.443.447l.886-.447zm2.213 2.236l.222-.448c.221-.223.443-.223.664-.223 0 0-.443.447-.886.67zm1.107-.448l.444-.223c.221 0 .442 0 .664.223 0 .224-.443.447-.886.671l.222-.447.221-.224c-.221.224-.443.224-.664.447v-.447c.221.224.221 0 .221 0h-.221zm2.436.002c.221 0 .664 0 .664.223 0 .224-.443.448-.886.671l.222-.447.221-.224c-.221.224-.221.224-.664.448l.221-.448h.222-.222c0 .224-.221.224-.443.448l.222-.224c0-.224.221-.224.443-.447zm3.764 0c0-.448.443-.671 1.107-.895.886-.223 1.771 0 1.55.447l-.222.448V54.1s-.22 0-.442-.224h-.222l-.442.448.442-.671.222-.224h-.886l-.221.224-.443.447.221-.67v-.224h-.221l-.221.447v-.447c0 .67-.222.894-.222 1.118zm-2.657.446l.664-.447c.443-.224 1.107-.224.886 0l-.222.224v.447l-.221-.447h.221v.67l-.221-.67h-.221v.894l-.443-.894c0 .223 0 .447-.222.447v-.671c0 .224-.221.447-.221.894v-.447zm-7.97-19.23l1.107-1.118c-.443 0-.885.448-1.107 1.118zm6.42 22.138c-.221-.224-.221-.448 0-1.119.443-.67.664-.894.886-.894.221.224 0 .67 0 1.342l-.443-.448.221.671-.443-.447-.22.895zm4.207 1.34l-.222-.224c-.221 0-.221 0 .222.224 0 .224 0 .447.221.447-.221-.223-.221-.447-.221-.447zm-.443.448c0-.223-.22-.223-.22-.223s0 .223.22.223v.224c.222 0 .222-.224 0-.224zm-.221.447c0-.224-.222-.447-.222-.447v.447c0 .224.222.447.222.447.221 0 .221-.223 0-.447zm-3.322-.223c.222 0 .222 0 .222.223.221 0 0 0-.222-.223-.22.223-.22 0-.22 0h.22zm0-.447c.222 0 .443.223.443.223h-.443c-.221 0-.443-.223-.443-.223h.443zm-.221-.449c.222 0 .443.224.443.224s-.221.224-.443 0c-.22 0-.442-.224-.442-.224h.442zM23.72 54.1c-.222-.671.442-.671 1.106-.448.443.224 1.107.224 1.993.224h1.328c.443.224.443.447 0 .447-.885.895-1.55 1.789-1.771 2.683-.221-.447.443-1.565 1.328-2.907-.664.448-1.107 1.119-1.77 1.79.22-.448.442-1.119.885-1.79-1.107.895-1.771 2.013-1.771 4.249-.443-1.342-.222-2.683.664-4.025l-1.107 1.342 1.107-1.79-.664.224v-.223l-.443.224v-.224l-.664.447.221-.447c0-.224-.221 0-.443.224zm.664 3.13c0 .447 0 .67.221 1.118 0 0 .222 0 .222-.224-.222-.223-.443-.447-.443-.894z" fill="#fff"/><path d="M25.713 57.453s.221.224.221.447c0 .224 0 .447-.221.447 0 0-.222-.223-.222-.447 0-.223.222-.447.222-.447zm1.327-1.565v.224c0 .223-.22.223-.22.223v-.223l.22-.224zm.221-.671v.223c0 .224-.221.224-.221.224v-.224c.221 0 .221-.223.221-.223zm10.628 1.118c.442.224.442.894.221 1.565 0-.447 0-1.118-.221-1.565zm-2.435 3.578c0-.224 0-.224-.222-.447 0 .223 0 .447.222.447zm-5.535-8.497h.221l.222.447h-.222l-.221-.447zm-.443 2.46l.221.223v.224l-.221-.224v-.223zm.443 0s.221 0 .221.223v.224s-.221 0-.221-.224v-.223zm.442-.224s.222.224.222.447v.224c-.222 0 0 0-.222-.224v-.447zm.444-.223s.221.223.221.447v.447s-.221-.224-.221-.447v-.447zm.664 0s.221.223.221.447v.447s-.221-.224-.221-.447c-.222-.224-.222-.447 0-.447zm.442.223s.221.224.221.447v.448c-.22 0-.22 0-.22-.447v-.448zm.443-.223s.222.223.222.447v.447s-.222-.224-.222-.447c0-.224-.221-.447 0-.447zm.444 0s.221.223.221.67c0 .448 0 .671-.221.671 0 0-.222-.223-.222-.67 0-.448.222-.671.222-.671zm.664 0s.221.223.221.447 0 .447-.221.447c0 0-.222-.224-.222-.447 0-.224 0-.447.222-.447zm.442 0s.221.223.221.67c0 .448 0 .671-.221.671 0 0-.221-.223-.221-.67 0-.448 0-.671.221-.671zm.442-.223s.222.223 0 .67c0 .224-.221.671-.221.671v-.67c0-.448.221-.671.221-.671zm.665 0v.67c0 .448-.221.671-.221.671v-.67c0-.448.221-.671.221-.671zm.443-.225s.221.447.221.894c0 .448-.22.671-.22.671v-1.565zm-2.878 3.131c.222 0 .222 0 0 0l.222.447s-.222 0-.222-.224v-.223zm.443-.224l.221.224v.223c-.221 0 0 0-.221-.223v-.224zm3.763-1.118c0 .224.222 0 .222 0v-1.34c0 .447 0 .894-.222 1.341z" fill="#fff"/><path d="M36.56 55.441c-.221.671-.221.895-.443 1.118.222-.447 0-.894 0-.894h-.22c0 .224 0 .67-.222 1.118 0-.447.221-.67.221-1.118h-.221v.447c0 .224-.222.671-.222.671s.222-.894 0-.894h-.221v-.224h-.221v.224l-.222-.224h-.221v.224c-.222 0-.222 0-.222-.224h-.221v.224l-.221-.224h-.222v.224l-.221-.224v-.671s.221 0 .221.224v.223h.221v-.671s.222.224.222.448v.223h.221v-.447s.222.224.222.447h.221v-.671s.221.224.221.448h.222v-.448.448h.221v-.448s0 .224.222.224h.221v-.447.447h.221v-.447.447h.222c.221-.894.443-1.789.443-2.907 0-.223-.222-.223-.222-.223a8.414 8.414 0 01-.443 2.683c.222-.894.222-1.789 0-2.907 0 1.118 0 2.236-.22 2.683.22-.894 0-2.012-.222-3.13h-.222c.222.224.222 1.118 0 1.342-.221-.448 0-.671-.443-1.118h-.22c.22.223.22.67.22 1.117-.22-.223-.442-.67-.664-.894h-.221c.443.447.443.447.221.895-.221-.448-.664-.671-.885-.895h-.222c.222.224.665.67.443.895-.221-.224-.664-.448-.886-.671h-.22v.447c-.222 0-.444 0-.665-.447h-.222s.222.223.222.447l-.664-.447h-.222s.222.447.222.67c0 0-.443-.447-.443-.67h-.443l-.221-.447c1.328 0 2.657 0 4.428-.224l1.55-.224c.442-.223.885.224 1.106.895v.894c.443.447.443 1.118.222 2.012.221.671.443 1.119.886 1.566.442.447.442 1.118 0 1.789-.443 1.341-1.108 2.012-1.772 2.906v-.447c0 .224 0 .224.222.224 0-.224.221-.224.221-.447v-.448c0 .224.221.224.221.224 0-.224.222-.224.222-.447 0-.224 0-.224-.221-.447 0 .223.22.223.22.447 0-.224.222-.224.222-.447v-.448s0 .224.222.224c0-.224.221-.447.221-.67l-2.878 1.788c.221-.224.443-.447.886-.67v-.448c0 .224.22.224.22.447l.222-.223v-.671c.222.223.222.447.222.67l.221-.223v-.894c.221.223.221.447.221.67l.222-.223c0-.447 0-.895-.221-1.342.22.447.442.671.442 1.118 0 0 .222 0 .222-.223 0-.448 0-.895-.222-1.342.222.447.443.894.443 1.118 0-.447 0-1.118-.221-1.565.221.447.442 1.118.442 1.341l.222-.223c0-.895-.221-1.565-.664-2.236l-.222.447v-.67c0 .67-.221 1.117-.443 1.117l-.664-.67z" fill="#fff"/><path d="M34.126 57.23c0 .224 0 .224-.222.224 0 0 0-.224.222-.224z" fill="#fff"/><path d="M34.346 56.783v.224c0 .223 0 .447-.221.447s-.221-.224 0-.447c.221 0 .221-.224.221-.224zm.444.223c0 .224 0 .448-.222.448 0 0 0-.224.222-.448z" fill="#fff"/><path d="M35.011 56.559v.447c0 .223 0 .447-.22.447-.222 0-.222-.224 0-.447l.22-.447zm-1.771-8.273c.664.224 1.329.67 2.214 1.342.222.223 0 .223-.221.223-.443-.223-1.329-.894-1.993-1.565zm2.657 1.789c0 .223.222.223 0 0 0 .223 0 .447 0 0zm-7.086 1.117h.665l.221.224s.222.894-.221 0c0-.224-.222 0-.443-.224h-.222zM25.27 63.49c.22 0 .22 0 .22.224l-.22-.223-.222.223c0-.223 0-.223.221-.223zm.442.672h.443s-.221.223-.443 0c0 .223-.221.223-.442.223 0 0 .22-.223.442-.223zm.222.223h.664c-.221 0-.221.224-.664 0-.221.224-.443.224-.443.224s0-.224.443-.224zm.221.223h.443s-.222.224-.443 0c0 .224-.221.224-.221.224s0-.224.221-.224zm.222.224c.221 0 .221 0 .221.224.222 0 0 0-.221-.224 0 .224-.222.224-.222.224l.222-.224zm3.099-1.118h.443l-.443.447h-.443c0-.224.222-.224.443-.447zm-.443-.224h.443s0 .224-.222.224h-.443s0-.223.222-.223zm-.443-.446h.222c.221 0 0 .223-.221 0 0 .223 0 .223 0 0zm-3.985-2.46c0-.224-.221-.224-.221 0 0 .223 0 .447.221.67.222.224.222-.223.222-.223-.222-.224-.222-.224-.222-.447zm-.442-.224c0-.224-.222-.224-.222-.224-.221.224-.221.447 0 .671.222.224.443 0 .222-.224v-.223zm19.704-12.745c-.221.224-.221 1.118.664 2.46.222.447 0 .67.443.67.222 0 .222-.223.222-.447l-.222-.223h.443l-.443-.224h.443c0-.223-.443-.223-.664-.223l.443-.224c0-.224-.222-.224-.665-.447l.443-.224-.443-.223.443-.224-.664-.224.443-.223-.443-.224.443-.223c-.664.223-.664 0-.886.223zm-.664.894c-.222-.448-.222-.671-.222-.895.222-.447.443-.67.665-.67.443.447-.222.67-.443.894v.67zm-.222-1.789c.222-.223.222-.223.443-.223 0 0 0 .224-.443.224 0 .447-.221.447-.221.447 0-.224 0-.224.221-.447zm-.221 1.79c.221 0 .221 0 0 0 .221.223 0 .447 0 .447v-.448zm.443.446c.221 0 .221.224 0 .224 0 .224-.222.224-.222.224-.22 0-.22-.224 0-.224l.222-.224zm.443.672c.221 0 .221.224 0 .447 0 .224-.221.224-.443.224-.221 0-.221-.224 0-.447 0-.224.222-.224.443-.224z" fill="#fff"/><path d="M44.089 50.298c0 .224 0 .224-.221.224h-.443s0-.224.221-.224h.443zm1.991.448v-.224c-.22 0-.22 0-.22-.223 0-.447 0-.447.442-.671.221 0 .221 0 .221.224l-.221.223c.221 0 .443.224.443.224-.222 0-.222 0-.222.223.443 0 .443.671 0 .447-.221 0-.442 0-.221.448.221.67.443.67.443.223 0-.223.886-.447 1.107.224l-.443-.224c0 .448.443.224.443.671h-.221c.442.224.664.671.885.895-.443 0-.443-.448-.886-.448.443.671 1.107.448 1.329 1.118-.443 0-.886-.447-1.329-.894.443.67.886 1.342.665 1.565-.665-.223-.886-1.341-1.107-1.565 0 .447.442.894.221 1.342-.221-.448-.443-.895-.443-1.79.222 0 .443-.223.443-.67 0-.447-.221-.447-.221 0s-.222.447-1.107 0c-.222.224 0 .224.442.447v.447l.222-.447v1.118c0 .224-.222.224-.222 0v-.67c0 .447 0 .67-.221.67l-.221-1.118-.222.447v-.67l-.221.223v-.67c-.222.223-.443 0-.664-.224.221 0 .442 0 .664-.224-.222-.224 0-.447.443-.447zM39.439 54.1c0-.224 0-.448-.221-.672-.222-.223-.222-.223-.222 0 0 .224.221.448.443.671zm-.443-1.79c.443.224.443.224.664.671 0 .224 0 .448-.221.224s-.221-.67-.443-.895zm0-1.118c.443.448.664.448.886 1.118 0 .224 0 .448-.222.224-.221-.224-.442-.894-.664-1.342zm.222-.671c.443.224.885.894.885 1.342 0 .223-.221.447-.221.223 0-.447-.221-1.118-.664-1.565zm.222-.446c.442.223.885.447.885 1.118 0 .223 0 .447-.221.223 0-.447-.222-.894-.664-1.341zm3.32 14.087c.221-.224.443-.671 1.107-.448.221 0 .221.448.221.448-.221-.224-.221-.224-.443-.224-.442 0-.664 0-.885.224zm-1.55 0c.222 0 .222 0 0 0 .222.223.222.223 0 .223 0 .224-.22 0 0-.223zm-.885 0s.222 0 .222.223v.224s-.222 0-.222-.224c-.221 0-.221-.223 0-.223z" fill="#fff"/><path d="M40.546 64.162c.221.223.221.447 0 .447v-.447zm.221-3.578c-.221 0-.221 0 0 0l-.221.224v-.224c0-.224 0-.224.221 0l-.221-.224-.222.224v-.447l.222-.224c-.443.224-.664.224-.664.224v-.671h-.222v-.447c.222-.224.222 0 .443.447v.224c0 .223.221.223.221.223.222.224.222.671.222.671.221.224.221.224.221 0zm.001.224s0 .223-.222.447c-.221.223-.221.223-.443.223v-.447c.443-.223.443-.223.665-.223zm3.321-1.788v.447c0 .223-.222.223-.222.223v-.447c.222 0 .222-.224.222-.224zm-.443 0v.447c-.221.223-.221.447-.443.447v-.447c.221-.447.443-.447.443-.447zm-.886-.449v.448c0 .223-.22.447-.22.223v-.447c0-.224.22-.224.22-.224zM15.527 10.498c0-.448.443-.671.665-.671l.664.223c.221.224.221.224 0 .224-.664 0-1.107 0-1.107.447-.222.224-.222.224-.222-.223zm1.993 1.34c.222.224 0 .448 0 .448-.22-.224-.22-.224 0-.448-.22 0-.22 0 0 0z" fill="#fff"/><path d="M15.307 11.168c-.222.224 0 .67.221.894l.443.671c.443.224.664.224.443-.224 0-.223 0-.447.221-.447s.221-.223.443-.223c0-.224 0-.447-.222-.447-.221.223-.442.447-.664.447a2.74 2.74 0 00.664-.447s.222-.224.443 0c0-.224 0-.224-.221-.448-.664 0-.886.224-1.329.671.222-.447.665-.67 1.107-.67 0-.224 0-.224-.221-.448-.221 0-.664 0-.886.224l-.442.447zm2.435 3.578a16.861 16.861 0 012.436 3.13v1.118l-.443-1.117v1.117l-.443-1.788-.221.894-.222-1.118v1.342c-.221-.224-.221-.895-.221-1.79l-.443.895c-.221-.447 0-.894 0-1.565 0-.224-.221.224-.221.895-.222-.448-.222-.895 0-1.566l-.222.447v-.894zm6.863-8.05c.221.223.664.223 1.107.223v.224c.664 0 1.328-.224 1.992-.895h-.22c-.444.224-.444 0 .442-.447h1.107c-.443.447-1.107.895-1.55 1.342-.886.447-1.55.67-2.214.447-.443-.224-.664-.447-1.107-.67 0-.224 0-.224.443-.224zm3.765.224c.22 0 .22 0 0 0 .22.223 0 .223 0 .223v-.224zm.885 1.564c.221 0 .221.223 0 0 0 .223.221.223 0 0 0 .223 0 .223 0 0zm1.992-.67c.221 0 .221.224 0 .224v-.224c-.221.224-.221 0 0 0zm-.442-.448c.221 0 .221.223 0 0 0 .447 0 .447 0 0 0 .223 0 .223 0 0zm-3.1.671c.222 0 .222 0 0 0 .222.224.222.224 0 0 0 .224 0 .224 0 0zm1.107 2.236c-.222.224 0 .224 0 0-.222 0-.222 0 0 0zM25.27 8.261c.22 0 .663-.224 1.328-.447l.664-.224c.221-.223.443-.223.221.224-.221.223-.664.447-.885.67-.222.224-.665.448-1.329.224-.442-.223-.221-.447 0-.447z" fill="#fff"/><path d="M27.262 8.037c.443-.447.664-.447 1.107-.67.443-.224.885-.224 1.328-.224.443-.224.664.224.222.447 0 .224-.222.224-.443.224-.443.223-.664.447-1.107.447-.443.224-.664 0-.222-.224.222-.223.222-.223.443-.223.222-.224.664-.224.886-.224-.222-.447-1.107 0-2.214.447-.222.224-.222.224 0 0z" fill="#fff"/><path d="M29.697 6.473h.665c.442.223.442.223.664.67 0 .224-.222.448-.443.448 0-.448-.221-.671-.443-.895-.221 0-.221 0-.443-.223zm-.442.223c.221 0 .221 0 .221-.223v.223h-.221zm-.443-.448c.222-.223.443-.447.886-.447h1.107c.664.224.443.447 0 .224-.221-.224-.664-.224-1.107 0 0 .447-.443.223-.886.223 0 .224-.221.224 0 0z" fill="#fff"/><path d="M30.805 6.473c.221 0 .442 0 .442.223 0 .224 0 .447-.22.671.22-.67-.222-.67-.222-.894zm.663-.225v.67l-.22.448c0 .224 0 .224.22.224.222-.224.443-.448.443-.671 0-.447 0-.671.222-.671-.443-.447-.665-.447-.665 0zm-1.771 2.46c0 .224.665.448.665 0 .22-.447-.222-.67 0-.894-.443.224-.665.447-.665.894zm-.221.894c.221-.223.442-.447.664-.223.221 0 .443 0 .443.223v.671c0 .224 0 .224-.443.224-.222 0-.443-.224-.664 0 .221-.447 0-.671 0-.895zm1.329-1.118c-.222-.223 0-.447 0 0 .22 0 .442 0 .442.224 0 .223-.221.447-.442.223-.222-.223 0-.223 0-.447zm0 .895c0-.224 0-.224.442-.224.222.224.222.447.222.447.221.224.221.448 0 .895-.222-.224-.222 0-.443-.224 0-.223-.221 0 0-.447 0 0 0-.224-.221-.447zm.442 2.459c.221 0 .221 0 .221.224s0 0-.221 0c-.222 0-.222 0-.222-.224h.222zm-1.771-.223c.222 0 .222 0 .222.223l-.222.224c-.221 0-.221 0-.221-.224 0-.223.221-.223.221-.223z" fill="#fff"/><path d="M29.92 13.851h.442v.224c-.221 0-.221 0-.443-.224zm-.444-.224h.886c.443.224.443.224 0 .448h-.886c.222-.224.222-.224 0-.447zm2.215-2.46c-.222-.223-.665-.446-1.108-.67-.442 0-.885 0-1.55.224-.22.447-.442.894-.442 1.565h.221l-.221.223h.221l-.221.224h.221l-.221.447.221.224v.223h.222v.224h.221v.224h.221c0 .223.222.223.443.447h.443c.443-.224.443-.447.664-.895 0 0 .222-.223.222-.447 0 .224.221 0 .221 0l.221-.223v-.671h-.442l-.443-.224-.222.895c0 .223 0 .447-.221.447l-.443-.224c-.221 0 0-.223 0-.223h.222v-.895c-.222 0-.665.224-.886 0h-.443c0-.223.222-.223.222-.447v-.447h.885l.222.224v-.224c0-.224.221-.224.442-.224v.671l1.108-.447z" fill="#fff"/><path d="M30.361 11.615c.222-.448.222-.448.222-.224l-.222.224zm0 1.341c0-.447 0-.67.222-1.118h.221c-.221.224-.221.671-.443 1.118 0 .224 0 .224 0 0zm-2.213-2.012c0-.224.221-.224.221 0 0 .447 0 .67-.22.894-.222 0-.444 0-.222-.223.221-.224.221-.447.221-.67zm-.222 1.566c0-.224.221-.224 0 0 .443.67.664 1.341 1.55 2.236.221.223 0 .447-.222.223-.885-.67-1.107-1.565-1.328-2.46zm2.879 2.459c0-.224 0-.447.221-.67.221-.224.221 0 .221.223-.22.223-.442.223-.442.447zm-7.307 3.13c0-.224 0-.447.222-.447 0 0-.222 0-.222-.224-.221.224-.443.67-.664.895.221-.671.443-1.119.886-1.566 0 .224-.222.447-.222.447l.222.224.221-.224v.224c-.221.447-.443.447-.443.67z" fill="#fff"/><path d="M23.056 18.546c0-.224 0-.224.221-.447 0 .223 0 .447-.221.447zm1.549.224v-.448l.222-.223c0 .447 0 .447-.222.67zm0 .895c0-.224 0-.448.443-.671-.221.447-.221.447-.442.67zm.665-.224c.22-.67.22-.894.22-1.789.222.671.222.895-.22 1.79zm4.428 2.459c.221-.67.221-1.117.221-1.788h-.221c0 .224-.221.67-.221 1.118 0-.447.22-.67.22-1.118h-.22c0 .224 0 .447-.222.894v-.894h-.221c0 .447 0 .67-.222 1.342v-1.342h-.221c0 .447 0 .894-.222 1.342v-1.566h-.221c0 .447 0 .895-.221 1.566v-1.566h-.222c0 .447-.221.895-.221 1.342v-1.565h-.222c0 .67 0 1.118-.221 1.565 0-.67-.221-1.342 0-1.789l-.221.447c-.222.671-.222 1.342-.222 2.013-.221-.895-.221-1.342 0-2.013l-.221-.223c0 .223-.222.447-.443.67.221-.223.221-.67.221-.894l-.221-.223c0 .447-.221.67-.443 1.341.443-.894.443-1.789.443-2.907 0 .447.221.671.221 1.118.222 0 .222 0 .222.224v-1.565c.221.67.221 1.118 0 1.565h.221s0-.224.222-.224v.224h.221c0-.224 0-.447.221-.67v.67h.222v-.447.447h.221v-.224c0 .224 0 .448.222.671h.442v-.67c0 .223 0 .447.222.67h.221v-.894c0 .223.222.67.222.894h.221v-.67c.222.223.222.447.222.67h.22c0-.223 0-.447-.22-.894.22.223.22.447.22.67h.222c0-.447 0-.894-.221-1.341.664 1.789.664 2.46 0 4.025zm.885-1.789l.221.224.222-.448c.22 0 .22 0 .442.224v-.447c.222 0 .222 0 .443.223V18.77c-.221-.448-.443-.671-.664-.671v.67c0-.447-.221-.67-.443-.67 0 .223.222.447 0 .67l-.221-.223v.447l-.222.224.222.894zm2.657-2.012c-.221.223-.221 0-.221 0h.221zm-.222-.447c0 .224.222.224.222.447h-.222l-.221-.223h.221v-.224zm-.663-.672l.442.448h-.442v-.448zm0 1.119s.22 0 .22.223c0 .224.222.224 0 .447 0 0-.22 0-.22-.223v-.447zm-.665-.224l.222.224c0 .224.221.447 0 .447l-.222-.223v-.448zm-9.078-1.118c.222.224.222 0 .443 0 0 .224 0 .224-.221.447 0 0 0-.223-.222-.447zm-2.656 28.622v.224l.221-.224h-.22zM11.542 57.9c.443-.223.443 0 .664.448.222.224.443.447.443.67.664.448.443.672-.443.672-.221 0-.443-.224-.443-.671l-.221-1.118zm.001 2.013c-.221.447-.221.67.221 1.118.222.224.443.224.665.224l-.222-.224.443.224c0-.224-.222-.448-.443-.671l.443.223c0-.223-.222-.447-.443-.67h.221c-.442-.224-.664-.448-.885-.224z" fill="#fff"/><path d="M12.65 60.136c.22 0 .22.224.22.224 0 .223 0 .223-.22.447l-.222-.224c.221-.223.221-.447.221-.447zm5.756-19.453c0-.894.443-1.789.886-2.683-.443 1.118-.664 1.789-.886 2.683zm1.992-5.143c-.221 0-.443-.223 0-.447.443-.447 1.107-.67 1.771-.67h1.107c.443 0 .443.447 0 .447h-.885c-.664 0-1.329.223-1.993.67zm2.657-.446c.221 0 .664 0 .664.223 0 0-.221.224-.664.224-.222 0-.664 0-.664-.224 0-.223.221-.223.664-.223zm2.215-6.037l-.443.447c-.222.223-.222.447-.222.447l.443-.447c.222-.224.222-.447.222-.447zm-1.993 2.011c-.221.224 0 .447.222.447 1.107.448 2.214 0 3.32-.67l1.33-.671c.22-.224.22-.447-.222-.224l-.665.447.222-.67c-.443.223-.664.67-.664.894l-.222-.224c-.221.224-.221.448-.442.671l-.222-.223c-.221 0-.221.223-.443.447v-.447c-.221 0-.221.223-.442.67l.22-.447s-.22 0-.442.447l.443-1.341c-.221 0-.443.447-.886 1.341-.221 0-.221 0-.221-.223l.443-.895c-.222 0-.443.448-.886.895l.443-1.118-.443.894v-.447l-.443.447zm.221 18.335c-.222 0 0-.224 0 0l.443.224-.222.223-.221-.447zm.222-.223l.443.224s0 .223-.222.223l-.221-.447zm.221-.224c-.221 0 0-.223 0 0l.443.224-.221.224-.222-.448zm-.001-.447c-.22-.224.222-.448.222-.224l.443.447c.221.224-.221.447-.221.224l-.443-.447zm.665-.447c-.221-.223 0-.447.222-.223l.664.447c.221.224 0 .447-.221.224l-.665-.448z" fill="#fff"/><path d="M24.826 47.839c-.221-.224 0-.447.221-.224l.443.447c.222.224 0 .448-.221.224l-.443-.447zm.665-.224c-.221 0 0-.224 0 0l.664.224c0 .223 0 .223-.221.223l-.443-.447zm-2.436-3.131c0-.224-.221 0-.221 0v.447c0 .224.221 0 .221 0v-.447zm-.664.671c0-.224-.221-.224-.221 0v.447c0 .224.221 0 .221 0v-.447zm-.885.447l-.222.447c0 .224.222.224.222 0v-.447zm1.106-.67c.222.223 0 .223 0 .223v-.223zm-.664.67c.222.224 0 .447 0 .447-.221-.223-.221-.223 0-.447-.221 0-.221 0 0 0zm-.885.448c0-.224-.221-.224-.221 0v.447c0 .223.221.223.221 0v-.447zm6.199-21.466c.222.224 0 .447 0 .447s-.22-.223 0-.447zm.443.448v-.671s.222.223.222.447l-.222.224zm.442-.002c.222 0 .222 0 .222.224 0-.223 0 0-.222-.223l-.221.223c0-.223 0-.223.221-.223zm.223.449c.22.224 0 .224 0 .224v-.224zm.442 0h1.107c.442 0 .442.224.221.447.221.671-.664.895-.664 0 0-.223-.222-.223-.664-.223-.222 0-.222-.224 0-.224zm-1.55 6.707c.222.224 0 .224 0 .224s-.22 0 0-.224zm-.442 0c.22.224 0 .447 0 .447-.222 0-.222-.223 0-.447-.222.224-.222 0 0 0zm.442.447c.443-.223.664-.447.886-.447 0 0-.222.447-.665.67-.442.224-.664.448-.664.224-.221 0 .222-.223.443-.447zm1.328-.893c.222-.224.443-.224.443-.224.221 0 0 .224-.443.224 0 .447-.221.447-.442.447.22-.224.22-.447.442-.447zm-.664 2.011c0-.223.221-.447.221-.67 0-.448.222-.671.664-.671.222-.224.222-.224.443-.224 0 .224-.221.224-.221.447.221-.223.443-.447.664-.447-.221.224-.443.447-.443.67l.222.224c.221-.223.664-.447.885-.447l-.664.671.221.224c.222-.224.665-.448.886-.448l-.443.448h.664c-.442.223-.664.223-.885.447l.221.224c.222-.895.443-.895.886-.895-.222.224-.443.224-.664.447l.221.224c.221-.224.664-.224.886-.224-.222 0-.443.224-.665.224h.886c-.221 0-.443 0-.443.224l.664.447h-.221l-.886-.224h-.442c-.222 0-.222.224-.443.224 0-.224.221-.224.221-.224h-.221c-.222 0-.222.224-.443.224l.221-.224h-.221c-.221.224-.221.224-.443.224 0-.224.222-.224.222-.447l-.222-.224-.443.447c0-.223 0-.223.222-.447v-.447l-.443.447c0-.224.221-.447.221-.447l-.442-.224-.443.447zm-4.65 10.957c0-.447 0-.894.222-1.341 0-.224.221-.224.664-.448l3.764-.67c.221 0 .221 0 .221.447s-.221.67-.221.894c-.222.224-.222-.447-.222-1.118-.221.67-.221 1.342-.664 1.565-.221-.223 0-.894.222-1.341-.443.447-.222.894-.665 1.341-.221 0-.221-.447 0-1.118-.221.671-.442 1.118-.664 1.118V42.92l-.443 1.342v-1.118c-.221.67-.221 1.118-.442 1.341a1.438 1.438 0 010-1.341h-.222c-.221.447-.221.67-.443.894-.221 0-.442-.223-.442-.67 0 .67-.222 1.117-.665 1.341zm5.978-9.168c0-.223.222-.223 0 0 0 1.342-.221 2.684-.221 4.473-.222-1.79-.222-3.131.221-4.473zm.443 0c-.221 1.342-.221 2.236-.443 3.802l.222.223c0-1.565.221-2.683.442-4.025 0-.223-.221-.223-.221 0zm.221.895l.222-.895c.221-.223.221 0 .221.224l-.443.67zm-4.649-1.118c-.221 2.012-.443 4.025-.221 5.59-.222-2.683.221-5.59.664-6.037v.223c-.664 2.236-.664 4.025-.222 5.814-.221-2.907 0-4.696.443-5.59v.223c-.443 2.013-.443 3.802 0 5.143h.222c-.222-2.236-.222-3.801.221-5.59h.221c-.442 2.236-.442 3.801-.221 5.367l.221-.224c-.221-2.236-.221-3.801.222-5.143h.221c-.221 2.236-.443 3.801 0 5.143h.222c-.222-2.46-.222-4.025.221-5.366l.221.223c-.221 1.789-.221 3.578 0 5.143h.222c0-2.012-.222-3.578 0-4.92l.221-.223c-.221 1.565-.221 3.13 0 5.143h.222c-.222-2.236-.222-3.801 0-5.143v5.143h.221c-.221-2.46 0-4.025.221-5.143.222 0 .222.224 0 .447a15.138 15.138 0 000 4.473h.222c-.222-2.46 0-3.802.221-5.143.222-.224.222 0 .222.447-.222 1.565-.222 2.907-.222 4.696h-.221c.221 0 .221.223 0 .223l-3.985.67c-.222 0-.443-.223-.443-.446 0-1.566.221-3.578.664-5.143zm-.664-.671c-.443.67-.664 1.789-.886 4.248-.221 1.119-.221 2.013 0 3.13.222.672.443.672.664.672l4.207-.671c.221 0 .664-.224.443-.67l-.222-.448-.221.447-.221-.447-.222.447-.221-.67-.222.67-.221-.447-.221.67-.222-.447-.221.671v-.447.67l-.222-.67-.221.447-.221-.447-.222.447-.221-.223h-.664v.223l-.222-.223c-.221 0-.664-.224-.885-.224l.442-.224c0-.223-.221-.223-.442-.223l.442-.224h-.442l.442-.223c0-.224 0-.224-.442-.447l.442-.224v-.224h-.442l.442-.223c0-.224 0-.224-.442-.224l.442-.224c0-.223 0-.223-.442-.447l.442-.223-.442-.224.442-.224c0-.223 0-.223-.221-.223l.443-.224s-.222-.223-.443-.223l.443-.224-.443-.224.443-.223-.222-.224.443-.223s0-.224-.443-.224l.443-.224v-.223h-.443l.222-.224-.222.447.665-.223v-.224h-.443l.443-.223c0-.224-.222-.224-.443-.224zm6.2 10.285c-.222-.224 0-.224 0-.447h1.107c.22 0 .442.223.442.447l.443.447c.222.224 0 .447-.221.447-.443-.447-1.107-.67-1.771-.894zm-.222 0c-.221-.224-.221 0 0 0 .222.447.664.67.886.894.442.224.885.224 1.328.224.222 0 .443-.224 0-.224-.664-.223-1.328-.447-2.214-.894zm-1.771-1.789c-.222-.223 0-.67.221-.447l.443.447c.222.224 0 .447-.221.224l-.443-.224zm-.443.671c-.221-.224 0-.67.221-.447l.886.67c.222.224 0 .448-.221.448l-.886-.671zm2.214-7.155c-.221.223-.221.447.222.447-.222.224-.443.447 0 .67-.665.672-.665.895 0 .672-.665.894-.443.894-.222.67-.443.671-.443.671-.221.671-.443.447-.443.67 0 .67-.222.224-.443.448-.443.895-.221.448-1.329.895-.221 1.342.22.224.664.67.664 1.342 0 .447.221.447.664.223.221 0 .664-.223.886-.223.442 0 .664-.448 0-.671 0-.224-.222-.447-.443-.224.221-.447 0-.223-.222-.447.222 0 .222-.224-.221 0v-.224c.221 0 .443-.223.443-.447l-.665.224c.222-.224.443-.447.222-.447l-1.107.447c.664-.447.886-.671.664-.895l-.664.224c.443-.447.664-.67.664-.895l-.443.224c0-.224.222-.447.665-.447.442-.224.442-.447.442-.67l-.664.446 1.329-1.341c0-.224-.665.223-1.55.894v-.223c.885-.448 1.328-1.118 1.77-1.79l-1.549 1.119 1.329-1.566c0-.223-.443 0-1.329.895v-.224l.664-.67a2.681 2.681 0 001.107-1.118c.222-.448-.442.223-1.107.67-.221.224-.442.224-.664.447l1.771-1.788v-.224c.222-.447-.885.895-1.77 1.342z" fill="#fff"/><path d="M34.347 40.683c.221-.223.221-.447 0-.447v.447zm-.443 0c.221 0 .221 0 0 0v-.447h-.222l.222.447zm-.222.224l.222-.671h-.222v.67zm-.221 0v-.671h-.221l.22.67zm1.107-1.118h.221s0 .223-.221.223v-.223zm-.886-.224c.222.224 0 .224 0 .224s-.221 0 0-.224zm-1.107.671c-.221.224-.221.224 0 .447h.222v.224s.221 0 .221-.224h.221v.671h-.22v.224l.22.223 1.993-.447c.664 0 .664-.447.664-1.118 0-.224 0-.224-.221-.224h-.443l.222-.223c.442-.224.442-.224 0-.224h-.665.443c.222 0 .222-.223 0-.223.222-.224.222-.448-.443-.448.222-.223.222-.447 0-.447 0-.223-.442-.447-.221 0l.221 1.789c0 .224 0 .447-.221.447l-1.993-.447zm.886-1.342c0-.223.221 0 .221.224v.447l-.221-.223v-.448zm2.214.448c.221.223.221.447.221.67 0 .224-.221.448-.221.224v-.894c-.221-.224-.443 0 0 0zm.443.67l.221.224v.224s-.221 0-.221-.224c-.222 0-.222 0 0-.224zm0 1.79v.223c-.222 0-.222 0 0-.224-.222 0-.222 0 0 0zm-.222.446zm0-1.118c0-.223.443-.223.222 0l-.222.448v-.448zm-3.985 1.118c.221-.223.443-.447.886-.67.885-.224 1.992-.448 2.878-.671.221-.224.443-.224.443.223 0 .895-.222 1.566-.443 1.79v-1.566h-.221c0 .67-.222 1.342-.443 1.565v-1.341h-.222l-.221 1.341v-1.118c0-.223 0-.223-.221-.223-.222 1.341-.443 2.012-.665 2.236.222-.895.222-1.566.222-2.013 0 .671-.222 1.342-.443 2.013-.221-.448.221-1.118.221-1.79l-.443 1.79c-.22 0-.22-.224 0-.671v-.895c-.22.448-.22.895-.442 1.342v-1.342l-.443.895v-.671l-.443-.224zm3.322-26.832c.664-.447 1.328-.671 2.214-.447.443 0 .443.447.221.447-.886-.224-1.771-.224-2.435 0-.222.223-.222 0 0 0zm-.664.894c.442-.67 1.328-.894 3.1-.894.442 0 .22.447 0 .447-.222 0-.444 0-.886.224-.222 0-.665.223-.886.223-.664.224-1.107.895-1.55 1.565-.221 0-.221 0-.221-.223.664-1.118 1.328-1.566 1.992-1.566-.443 0-.885 0-1.55.671 0-.223-.22-.223 0-.447zm1.77-.447c.222 0 .444.224.222.447-.664.224-1.107.67-1.771 1.342 0 .223 0 .447-.443.67 0 .448-.221.671-.664.671l-.443.895c.221.223 0 .447-.443.894-.221.224-.442.224-.442-.224.442-.894.885-2.235 1.328-2.235.221 0 .221 0 .221-.448 0-.223.222-.223.222 0 0 .224 0 .224.221 0 .664-1.118 1.328-1.788 1.993-2.012zm-4.87 7.602c0-1.118.221-1.565.664-2.012 1.328-.895 1.771-2.012 2.214-2.012.443-.671 1.107-1.566 1.771-2.236.664-.448.664-.224.443.223-.886 1.118-1.55 2.46-2.435 2.907-.443 0-.664.223-.886.447l.443-.224c.221 0 .221 0 .221.224-.443.224-1.107 1.342-1.328.67-.221.448-.664.448-.886.895v.671c0 .671-.221.671-.221.447zm3.764-5.813c.443-.448.885-.895 1.328-1.118.443-.224.443.223.221.223-.22 0-.664.224-1.328 1.118-.443.224-.443 0-.221-.223zm-3.321 4.919s.221-.224.221 0c.221-.224.221 0-.221 0 .221.223 0 .223 0 .223v-.223zm0 1.342c0 .223 0 .223 0 0l.443-.671c.22-.448.664-.671 1.107-1.118.22.223.442 0 .885-.671.664-.224.886-.67 1.107-1.342.221-.447 0-.67-.221-.223-.443.67-.886.894-.886 1.341-.443.224-.886.671-1.55 1.118-.221.224-.221.224-.221.447-.443.224-.664.448-.664 1.119zm0 .894c.221-.67.443-1.118.664-1.342.221-.223.443-.223.221 0-.221.224-.442.671-.442 1.342 0 .67-.665.67-.443 0zm.885-.447l.443-1.118c.221-.448.221-.671.664-.671l.664-.67c.222-.224.222 0 .222.223l-.443.67c0 .671-.221 1.119-.886 1.79-.22.223-.22.223-.22 0l.442-1.119-.886.895c0 .447 0 .223 0 0zm1.329 0l.221-1.118c0-.448.221-.671.443-1.118l.221-.895c0-.447.222-.223.222.224l-.222.67c.222 0 0 .224 0 .448 0 .223 0 .447-.221.447 0 .671-.221 1.342-.443 1.565-.221.448-.221.448-.221-.223zm-1.771 1.34c.442-.223.885-.447 1.107-.894.442-.67.664-.67.442 0-.221.447-.443.894-1.107 1.342-.664.223-.885-.224-.442-.448zm-1.329 1.566c.221-.448.886-.895 1.771-1.118.665-.224 1.107-.671 1.55-1.118.443-.224.443 0 .221.223-.22.224-.22.447-.664.447l-1.328.671c-.443.224-.886.447-1.329.895-.22.67-.22.447-.22 0zm.221 1.788c-.22.224-.22.448 0 .671.443-.223.443-1.118 1.772-1.789.221-.223.221-.223-.222-.223l-1.328.894c.443-.67.886-1.118 1.55-1.341.443 0 .664-.224 1.107-.671.221-.224 0-.447-.222-.224-.664.447-1.328.671-1.992 1.118-.443.447-.886 1.118-1.107 1.565h.442zm0 .895c-.22.223 0 .447 0 0 .886-.671 1.329-1.342 1.993-2.013.664-.447 1.55-1.341 1.993-2.46.221-.67 0-.894-.222-.446-.443 1.118-.885 2.012-1.55 2.46-.885.67-1.77 1.34-2.213 2.459zm.222.67c-.222.224-.222.224 0 0l1.328-1.341.886-.894c.664-.224 1.107-.895 1.328-2.236v-.224c-.443.894-.885 1.565-1.328 2.012l-1.328 1.342c-.222.224-.222.447-.222.67l-.664.672zm2.435-2.012c-.443.224-.664.447-.885.671-.222.447 0 .447.221.224.221-.224.443-.448.664-.895.222.224.222 0 0 0zm-1.328 2.236c0-.447.443-1.118.886-1.341.442-.224.442-.224.22.223-.22.447-.442.895-.663 1.118-.222.224-.443.447-.443 0zm0-1.118v.447-.223c-.221 0-.221-.224 0-.224zm1.992-.67s.222.223 0 .447c0 .223-.22.223-.22.223-.222 0-.222-.223 0-.447 0-.224 0-.224.22-.224zm3.986-15.206c-2.436-.223-3.543.671-3.986 1.342-.442.67-.885 1.342-.885 2.236 0 .224.221-.224.664-.67h-.221c0-.224.221-.224.221-.448 0 0 0-.223.221-.223.222 0 .222-.224.222-.224h-.221c.664-.894 1.55-.894 2.656-.894h1.329s.221-.224 0-.224c-.886-.224-1.772 0-2.657.224.664-.448 1.55-.448 2.878-.448.222-.223.443-.67-.221-.67zm1.77-.445c-.221 0 0 .223.222.447.221.223.221 0 .221-.224-.221 0-.443-.223-.443-.223zm-1.328-.447c-.221-.224 0-.448.221-.448.886.224 1.55.224 2.214.671.222.224 0 .447-.221.224l-.664-.224c0 .224-.222.224-.443-.223-.221.223-.443.223-.886-.224l.222.67c0 .224 0 .224-.222 0l-.221-.447zm3.1 1.342c-.222-.224 0-.224 0 0-.222-.447-.222-.671 0-.671.664 0 1.328-.447 2.214 0l.443.447c.221.671 0 .895-.222.447-.221-.223 0-.447-.443-.67.222.447.443.894.443 1.341.664.671 0 .671-.221.447l-.222-1.118v.895c-.221 0 0-.447-.221-.895 0-.223 0-.67-.221-.67-.443-.224-.886 0-1.329 0 .664 0 1.107 0 1.107.223.222.224.222.671.222.895-.222.223-.222.223-.222-.224v-.447c0-.224-.221-.224-.664-.224-.221.224-.443.224-.664.224zm.885 20.348c-.221-.224.222-.448.443 0 .664.894 1.107 1.788 1.55 2.683.221.67 0 .67-.221.223-.443-1.118-1.107-2.012-1.772-2.906zm.886.223c-.221-.223 0-.447.221 0 .443.671.886 1.342 1.107 2.236.222.447 0 .447-.221.224-.221-1.118-.664-1.789-1.107-2.46zm-9.52.447c.885 1.566 1.992 2.907 3.1 4.249.22.223 0-.447.22-.224.222.447.665 1.118.886 1.118.222-.223-.442-.67-.442-1.118l1.55 1.789c.22-.224-.886-1.342-1.55-2.236l.221-.224 1.771 2.46c-.221-.894-1.107-1.789-1.771-2.683v-.224c.443.447.886 1.118 1.107 1.565.443.671 1.107 1.342 1.107 1.566.664.223-1.55-2.236-2.657-4.249v-.223c1.329 2.012 2.436 3.577 3.543 4.472.221 0 .221 0 .221-.224-1.107-1.342-2.435-2.683-3.1-4.025v-.223c1.107 1.341 1.772 3.13 3.986 4.472.221 0 .221.223.442.223.443-.447-1.992-.894-3.763-4.248v-.224c.664.895.885 1.342 1.55 2.013.885.894 2.213 2.236 2.435 2.012.221-.224-1.993-1.789-3.321-3.578.885 1.342 2.214 2.907 4.206 4.025.222.224.222.224.443.224.886 0-1.992-1.342-3.32-2.907v-.224c.442.448.885.895 1.549 1.342l1.993 1.342c.442.223.885.447 1.107.447.442-.224-1.993-1.118-2.657-1.789.443.224.664.447 1.107.447 1.107.447 1.771.895 1.992.671 0-.224-.442-.447-1.328-.894-.221-.224 0-.224.221 0 1.107.447 1.772.67 1.993.67.443-.223-.221-.447-.886-.894.886.447 1.55.67 1.993.67.221 0-.443-.446-1.107-.894.664.448 2.657 1.118.886 0 .664.448 1.55.671.443-.223h.442c.664.447.886.894.443-.224.664.895 1.107 1.118.443 0l.886.671c-.222.224-.222.224 0 .447.664.447.885.447.664 0 0-.67-.222-1.341-.665-1.565-.664-.447-.442 0 .222 1.118l-.664-.67c-.222-.224-.443-.448-.664-.448-1.329 0-2.657.224-3.764.447-.886.224-1.772 0-1.993-.223-.443-.224-.443-.448-.221-.671.221-.224 0-.447-.222-.447l-1.107-2.013.443.447c.443.671.664 1.118.664 1.118-.221-.447-.664-1.341-.885-2.236.664 1.342 1.328 2.236 1.55 2.236 0-.447-.665-1.341-1.108-2.46l.443.448.443.447c-.443-.894-.886-1.565-1.328-1.789-.886-.223-1.329-.447-1.107.224l-.443-.447h-.443c-.221 0 0 .223.443.67l-.443-.67c-.221 0-.443-.224-.443 0l.222.447-.443-.67c-.222-.224-.443-.224-.443 0l.886 1.34-.665-.67c-.221-.447-.664-.67-.885-.895-.443 0 .443.671.885 1.79l-1.107-1.79s-.664-.223-.664 0l1.329 2.013c-.665-.67-1.329-1.342-1.55-2.012h-.443l1.771 2.236c-.443-.224-.664-.671-.885-.895-.443-.447-.665-.894-.886-1.341 0-.224-.443 0-.443 0-.221.223 1.329 1.565 1.993 2.46-.886-.895-1.55-1.566-2.214-2.46-.222-.224-.443-.224-.664 0 0 .223 1.77 2.012 2.435 3.13-.886-1.118-1.993-2.012-2.657-3.13-.221-.224-.443-.224-.443 0 0 .223 1.55 1.788 2.879 3.577-.886-1.118-1.993-2.46-2.436-2.683-.221 0 .664.894 2.436 3.13-.886-.894-1.772-1.788-2.436-2.683-.221.224.664 1.342 2.214 3.13l-3.542-2.683c-.222-.223-.222-.223 0 0z" fill="#fff"/><path d="M41.874 16.758v1.117c0 .224.222.224.222.224v-1.118c-.222 0-.222 0-.222-.224zm.222 0v.67c0 .224 0 .447.221.671v-.894c0-.224 0-.224-.221-.447zm.443 0v.894c0 .223 0 .67.221.894 0 .224.221.448.221.224 0-.67-.221-1.118-.221-1.565 0-.224-.221-.224-.221-.447zm.442.447v.894c0 .224 0 .447.222.67l.221.225c0-.671-.221-1.119-.221-1.566-.222 0-.222-.223-.222-.223zm.443.447v.67c0 .224 0 .448.222.672l.221.223c0-.447-.221-.894-.221-1.341-.222 0-.222-.224-.222-.224zm.222.447v.67c0 .225 0 .448.221.672l.221.223c0-.447-.221-.894-.221-1.118 0-.447 0-.447-.221-.447zm.442.447v.671c0 .224 0 .447.222.447l.221.224c0-.447-.221-.67-.221-1.118 0-.224-.222-.224-.222-.224zm.443.448v.447c0 .223 0 .223.222.447l.221.223c-.221-.447-.221-.67-.443-1.117zm2.214 3.577c-.221-.224-.443 0 0 .447.443.448.664.224.664.224l-.664-.67zM39.44 14.97s.221.447.221.67c0 .224.222.671.222.671-.222-.447-.443-.894-.443-1.341zm-3.764 5.59c.222 1.341 1.329 3.13 2.878 4.472-.221-.447-1.328-1.565-1.992-2.683-.443-.895-.664-1.566-.886-1.79zm.222-.448c.22 1.342 1.107 2.907 2.656 4.025-.221-.447-1.107-1.341-1.77-2.236-.444-1.118-.665-1.565-.886-1.788zm.22-.67c.222 1.341 1.108 2.683 2.436 3.801 0-.224-1.107-1.118-1.55-2.236-.442-.67-.664-1.342-.885-1.565zm.222-.447c.222 1.117.886 2.46 2.214 3.577 0-.224-.885-1.118-1.55-2.012-.22-.895-.442-1.342-.664-1.566zm.443-.671c0 1.118.886 2.236 1.993 3.354 0-.224-.886-1.118-1.329-1.79-.442-.893-.664-1.34-.664-1.564zm.222-.448c0 .895.664 2.236 1.77 2.907 0-.223-.885-.894-1.106-1.565-.443-.67-.443-1.118-.664-1.341zm.22-.447c0 .895.665 2.013 1.55 2.683 0-.223-.663-.894-1.106-1.565-.222-.67-.222-1.118-.443-1.118zm.444-.67c.221.223.221.447.443 1.117.22.671.885 1.119.885 1.342-.886-.67-1.328-1.565-1.328-2.46zm.443-.448c.22.224.22.448.442.895s.665 1.118.665 1.118c-.665-.448-1.108-1.342-1.108-2.013zm.442-.447l.443.895c0 .447.443.894.443.894-.664-.447-1.107-1.118-.886-1.789zm-3.542 11.851v-.67c.886 1.34 2.214 2.906 3.542 4.248-.221-.671-1.992-2.236-3.1-3.578-.22-.447-.442-.67-.664-1.118v-.447c.665 1.565 1.993 2.907 3.764 4.472-.221-.447-1.992-2.013-2.878-3.354-.443-.671-.664-1.118-.664-1.565v-.224c.664 1.565 1.992 3.13 3.542 4.472-.221-.447-1.992-2.012-2.878-3.354-.443-.67-.664-1.118-.664-1.565v-.224c.664 1.565 2.435 3.354 3.764 4.696-.222-.447-2.214-2.236-3.1-3.578-.443-.67-.664-1.118-.664-1.565v-.447c.664 1.565 2.214 3.354 3.764 4.695-.222-.447-2.214-2.012-2.878-3.354-.443-.67-.665-1.341-.886-1.565v-.447c.443 1.565 1.992 3.354 3.542 4.472-.221-.447-1.992-1.789-2.656-3.13l-.886-1.79v-.447c.443 1.566 1.771 3.355 3.32 4.473 0-.448-1.77-1.79-2.434-2.907 0-.895-.222-1.566-.222-2.013v-.447c.222 1.565 1.55 3.354 3.321 4.696-.221-.447-1.55-1.789-2.214-2.907-.885-1.118-.885-1.789-1.107-2.012.443-4.025 2.214-6.485 4.65-6.932 0 .447 0 1.118.22 1.565 0-.223 0-.67-.22-1.118v-.447h.22c0 .67.222 1.118.444 1.118-.222-.224-.222-.67-.222-1.118h.222c0 .67.221 1.341.443 1.341-.222-.447-.222-.894-.222-1.117 0 .223.222.447.222.67.221-.223 0-.447 0-.67.221-.224.664-.224 1.107.223.221.224 0 .224-.222.224h-.221l.443.223s0 .224-.222.224h1.107c.222 0 .222.223.222.223l-.222.224c.443 0 1.107.224 1.771.447 0 .224-.221.224-.664 0 .222.224.664.224.443.448 0 .223-.664 0-1.107.447h.664c.222.223.222.223-.221.223.443.447.664.671.885.224 0-.224.222-.224.443 0 .443.223.664.223.222.447.221 0 .221.224 0 .224-.443 0-.443.223.221.223.221.224.443.224.221.448-.664 0-.664.223.222.223.221 0 .221.224.221.224-.443 0-.221.223.222.223 0 0 .221.224 0 .224-.443 0-.443.223.221.223 0 .224.443.224.443.448.443 0 .664.223.221.223.664 0 .886.224.886.671 0 .224-.886-.447-.664 1.118l.221.224c.221 0 0-.671.443-.671v.67c0 .224-.222.448-.664.224-.222-.223-.443-.447-.443-.67V21.9c-.222 0-.443-.223-.443-.447v-.223c-.443 0-.664 0-.886.447 0 .223-.221 0-.221-.224h-.221s0-.223-.222-.223h-.221s0-.224-.222 0c-.221.223-.221.223-.221 0 0-.224.221-.448-.221 0h-.222c-.221-.448-.221-.448-.443 0 0 .223-.221.223-.221 0-.221-.671-.221-.671-.221 0 0 .223-.222.223-.222 0-.221-.671-.221 0-.443-.224-.221-.447 0-.895-.442-.895l.221.895c0 .224-.221.224-.221 0 0-.67-.443-1.789-.443-1.342l.221 1.342c0 .224-.221 0-.443-.224l-.442-1.788c0-.448 0 .894.221 1.565h-.221c0-.224-.222-1.79-.443-1.566-.222.224.443 1.79 0 1.566l-.222-1.566v1.566c-.443-.671 0-2.013-.221-2.236l-.221 1.788c.22 1.342 1.328 1.566 1.328 2.013l-.886-.447c.222.447.665.894.886 1.341-.221 0 0 .448.221.671-.221 0-.221.224.222.671.221 0 .221.224.221.224-.664-.224-.664-.224.222.67-.665 0-.665 0 0 .448 0 0 .221.223.221.447 0 .223 0 0-.221 0-.222 0-.222-.224-.443-.224-.222 0 0 .224.664.895.221.223.221.223.221.447-.885-.671-.885-.447.222.447.221.447.221.67.221.67-.885-.67-1.328-1.117 0 .224.222.224.222.448.222.448-1.55-1.118-.665-.448.221.67v.224c-1.328-1.118-1.55-.894 0 .67 0 .224.221.224 0 .448h-.221c-1.107-.894-.886-.67.221.894.221.224.221.448 0 .448-1.328-1.342-1.55-1.79 0 .447.221.224.221.447 0 .447-1.107-1.565-1.107-1.342 0 .224v.223c-1.107-1.341-1.328-1.565 0 .224.221.447.221.447 0 .224-1.328-1.566-1.328-1.342 0 .223.221.224.221.224 0 .224-1.55-1.566-1.55-1.566 0 .223 0 .447 0 .447-.221.224-.222-.224-.222-.224-.222-.447-.885-1.118-1.107-1.118 0 .447-.221.223-.221.223-.443 0-.885-1.118-1.107-1.118-.221 0h-.443c0-.224-.221-.224-.221-.447-.886-.895-1.107-.895-.222.223l-.885-.223c-.222 0-.222 0-.443-.224-.443-.67-.664-1.118-1.328-1.789 0 .224.664.671 1.106 1.342.222.447-.442.224-.664.224-.221-.448-.442-.448-.885-1.118-1.329-2.46-2.657-4.025-3.764-5.367zm0 .67v-.446c.886 1.118 2.435 3.13 3.542 4.248.443.67.443.67.665.895 0 .223 0 0-.222 0-.221-.224-.221-.224-.443-.671-1.328-1.342-2.656-2.907-3.542-4.025zm-.222.672c1.108 1.118 1.329 1.565 2.436 2.906l.886.895c.22.224.664.224.442 0-.221-.224 0 0-.221-.447-.886-1.118-2.435-2.907-3.321-4.025 0 .223-.222.447-.222.67zm-.22.67c.885 1.118 1.77 2.013 2.877 3.355h.443c0-.224-.886-.895-.886-1.119-.885-1.118-1.328-1.565-2.214-2.683 0 0 0 .224-.22.447zm-.222.671c.664.895 1.328 1.565 2.214 2.46.221.224.443.224.443 0a137.32 137.32 0 00-2.436-3.13c0 .223 0 .447-.221.67zm0 .895c.664.67 1.107.894 1.55 1.565h.442c-.664-.895-1.328-1.342-1.992-2.236v.67zm0 .67c.221.224.664.448.885.671h.443c-.443-.447-.886-.67-1.328-1.341v.67zm.664.895c-.443 0-.443 0-.443-.447l.443.447zm4.87-18.335c-.22.447 0 1.117.444 1.788 0-.223-.222-.447-.222-.894s0-.895-.221-.895zm.444 15.652c0-.448-.222-.671-.665-.895 0 0 .222.224.443.671.221 0 .221 0 .221.224zm.22.894s-.22-.224-.442-.67c-.221-.448-.664-.672-.664-.895.664.67 1.107 1.118 1.107 1.565zm0 1.118l-.442-.894c-.221-.448-.664-.895-.886-1.118.886.67 1.329 1.341 1.329 2.012zm.222.895c0-.895-.443-1.342-1.328-2.013 0 .224.664.67.886 1.342.22.447.22.67.442.67zm-1.77-17.665c0 .447.22 1.118.885 1.565l-.443-.894c-.221-.224-.443-.671-.443-.671z" fill="#fff"/><path d="M18.184 13.403c-.442-.223-.442 0-.442.447 5.535 8.05 14.17 19.677 24.132 33.54v.224l.886.448-.443-1.118-.221.223c-7.75-10.956-16.605-23.925-23.911-33.764zm-1.107.447c0 .224 0 .447-.22.224-.444-.447-.222-.894.22-1.565.222-.447.886-.447 1.329 0 .221.223.221.223-.221.223-.886 0-1.329.448-1.107 1.118zm-4.206-7.155c.886.894 1.55 2.012 2.435 3.13 0 .224 0 .224-.221.224-.886-1.118-1.55-2.236-2.214-3.354 0-.224-.222-.224 0 0z" fill="#E3B800"/><path d="M33.018 15.863c-.221 0-.221.224 0 0l.443-.447c.221-.447 0 .224.221 0 .222 0 .443-.67.443-.67l.443-.224c.221-.224.221-.224-.221-.224-.222.447-.665.895-.886 1.118l-.443.447zm-.885-.223v.223s-.222.224-.222 0v-.223h.222zm-11.513-.447c-.222 0-.222.223 0 .223h.443c.221 0 .221 0 .442.224.222.223.222.447.443.223 0 0-.443-.447-.221-.447h.221c.443.447.886.671.886.671l-.443-.67c0-.224.221 0 .221 0l.665.67c0 .224 0 0-.222-.447 0-.224.222-.224.222 0 .442.447.885 1.118.885.894v-.447c0-.224.222-.224.222 0l.442.447v-.223c0-.224 0-.224.222 0l.664.67c.221.224.221 0 .221 0l-.221-.223c0-.224 0-.224.221 0l.886.447c.221 0 .221 0 0-.224h.443c0 .224.221.224.443.448 0 0 .221 0 .221-.224l.886-.224c.221 0 .221-.223 0-.223-1.107.223-2.436-.224-3.764-1.118-1.771-.895-3.321-.895-4.428-.447zm1.328-1.118c0 .223 0 .223 0 0 .222 0 .443 0 .664.223 0-.447.222-.447.443.224 0-.447 0-.671.443.223 0-.447 0-.447.443.224 0 .224.221.224.221 0-.221-.67 0-.67.222 0 .221.224.221.224.221 0 0-.447.221-.447.664.224v.223c0-.447 0-.447.443.224.221 0 .664.223 1.107.67 0 0 .221.224.221 0-.221-.447 0-.223.443 0l.222-.223c-.886-.447-1.772-.67-2.214-1.118-.665-.447-.886-.447-1.772-.894-.664-.448-1.107-.224-1.77 0zm3.321 0c.664 0 1.329.223 1.771.67-.221-.223-.442-.223-.664-.223v.447c-.221-.447-.443-.447-.664-.447h-.221c-.222-.447-.222-.447-.443-.224 0-.223 0-.223.221-.223zm-9.52 4.919c.443-.671.664-.895.885-.447.443-.895.886-.895 1.107-.224.443 0 .665.895.665 2.012l-.443-1.341v.894c-.443-1.341-2.657-.447-2.214-.894zm2.878.224l.222.223v.447l-.222-.223v-.447zm-3.1 3.13c0-.224.222-.447.665-.447v.223l.664-.223v.223l.664-.447c-.221.67-.443.895-.221.895 0 0 .664-.671.885-.448-.443.448-.221.224.443-.223.222 0-.221.447-.221.447s.221-.224.664-.447c.221 0 .443-.448.443-.224s-.222.224-.222.447c-.221.448-.221.448.665 0 .221 0 .221-.223.442-.223-.442.67-.221.67.443 0 0 0 .222-.224.443-.224-1.107 1.118-.886 1.118.221.67-.664.672-.442.672.443 0h.222c-.222.448-.222.672 0 .672.221-.224.664-.224.885-.224-.443.447-.443.67.222.447.221 0 0 .224-.443.671 0 .224-.222 0-.222-.447 0 .223-.221.223-.221 0l-.443.894h-.221v-.67c0-.224-.222-.224-.222 0v.67l-.221-.223c0 .223-.221.447-.443.447-.221-.224-.221-.224-.443 0h-.221c0 .224-.221.224-.221.224-.222.223-.443.223-.665.447l-.221-.224-.443.447-.221-.223-.222.447-.443.223c0 .224.222.224.443 0 .443 0 1.329-.223 1.993-.447.664-.223 1.107-.223 1.771-.447.443-.223 1.107-.67 1.771-1.118.222.224 0 .447-1.107 1.342l-.664-.224.222.447c-.222.224-.222.224-.443.224l-.443-.224.221.447c-.442 0-.442-.447-.885-.223l.221.447h-.664v.447l-.664-.223v.223c-.222 0-.222 0-.443.224 1.55.224 3.1-.224 4.87-1.118 0 0 .222 0 .222.223-.221.671-.664 1.342-1.328 1.79l.221-.895c-.443.224-1.107 1.342-1.55 1.565l.443-1.118-1.328 1.118c0-.223 0-.447.443-.894-.443 0-1.107.894-1.107.894-.222-.223.221-.447.442-.67-.442 0-.664.223-.885.447 0-.224.221-.448.443-.671l-1.107.447c0-.224.442-.447.442-.67-.885.223-1.328.446-1.328.446l.443-.447-.886.447.443-.67-1.107.447.221-.447-.664.447.221-.671c-.442.224-.664.447-.885.447.221-.223.443-.447.221-.67-.443.223-.664.447-.885.447l.221-.448c-.221.224-.664.448-.885.671l.442-.67v-.224l-.664.67c.222-.223.222-.447.222-.67l-.443.223v-.223l-.665.67s0-.223.222-.447l-.664.448c0-.448.664-.895 1.328-1.119.886-.223 1.55-.223 2.214-.447.886-.223 1.55-.223 2.436-.67.442-.224.885-.224 1.328-.671h-1.328v-.448l-.443.448v-.448l-.443.895v-1.118l-.222 1.118-.22-1.118-.444 1.341v-1.341l-.221 1.341-.443-1.341-.221 1.341-.222-1.341-.221 1.341-.222-1.341v1.341l-.442-1.341v1.118l-.443-.895-.221 1.119v-1.119l-.222 1.119c-.443-.895-.443-1.566-.221-2.013.443-.447.885-.447 1.55-.447zm-3.542 6.037l-.221.447c.221 0 .221-.223.443-.223l-.222.447c.222 0 .664-.447.886-.67l-.222.446c.222 0 .443-.447.665-.67v.67c.22 0 .442-.447.664-.67v.447c.221 0 .443-.447.664-.447l.221.447c.222 0 .222-.224.443-.447v.447l.443-.447v.447l.443-.224.221.224.443-.224v.447l.443-.223v.223l.442-.223v.447l.443-.224v.448l.665-.448-.222.448.664-.448v.448l.665-.224-.443.67c.443 0 .664-.223.885-.446l-.221.67c.443 0 .886-.447 1.107-.894 0 .224 0 .447-.221.894.442-.223.664-.447.885-.894l-.221.67c.221 0 .664-.223.885-.67v.67c.222-.223.443-.446.443-.67.222.224.664 0 .664-.447.222-.447 0-.671-.221-.447-1.107.894-2.878 1.118-5.092.447-1.55-.447-3.1-.447-4.65-.447-.885-.448-1.55-.224-1.77.223zm9.299 2.013l.221-.224c0 .224 0 .224-.221.224 0 .223 0 .447-.221.447 0 0 .221-.224.221-.447zm.664 0c0-.224.222-.224.222-.224s0 .224-.222.224c0 .447 0 .447-.221.447 0 0 0-.224.221-.447zm.443-.448c.221-.223.443-.447.443-.223 0 0 0 .447-.222.67-.221.224-.442.448-.442.224 0 0 .221-.223.221-.67zm-1.771.448c.221 0 .443 0 .443.223 0 .224-.222.224-.443.224-.222 0-.443 0-.443-.224-.221 0 .221-.223.443-.223zM31.69 15.64c0-.224.664-.671 1.771-1.342.443-.447.886-.447 1.107-.447h.443c.221.224.221.224 0 .224-.222 0-.222-.224-.443 0-.221 0-.221.223-.443.223l-.221-.223c-.222.223-.443.894-.664 1.341v-.223c-.222 0-.222.447-.443.67 0-.223 0-.447-.221-.447-.443.224-.665.224-.886.224z" fill="#0091D1"/></g><path d="M196.955 40.382h.848V51h-.848V40.382zM188.864 51V40.382h.839v4.214h2.445c.461 0 .892.085 1.292.255a3.23 3.23 0 011.046.684c.296.285.529.625.699 1.02.17.39.255.804.255 1.243 0 .439-.085.856-.255 1.251-.17.39-.403.73-.699 1.02a3.421 3.421 0 01-1.046.684c-.4.165-.831.247-1.292.247h-3.284zm.839-5.647v4.89h2.445c.335 0 .65-.064.947-.19a2.427 2.427 0 001.3-1.3c.132-.302.198-.62.198-.955a2.3 2.3 0 00-.198-.947 2.394 2.394 0 00-1.292-1.3 2.328 2.328 0 00-.955-.198h-2.445zm-5.045 0c.384.148.721.34 1.012.576.258.204.491.472.7.807.208.335.313.744.313 1.227a2.897 2.897 0 01-.93 2.148 3.18 3.18 0 01-1.062.65c-.417.16-.878.239-1.383.239h-3.877V40.382h3.712c.461 0 .878.068 1.251.206.379.142.7.334.963.576.264.241.467.524.61.848.142.323.211.677.205 1.061 0 .428-.076.785-.23 1.07a2.879 2.879 0 01-.527.7 3.273 3.273 0 01-.757.51zm-4.387.42v4.47h3.037a2.64 2.64 0 001.803-.691c.225-.215.403-.459.535-.733a1.89 1.89 0 00.189-.856c0-.27-.063-.535-.189-.799a2.467 2.467 0 00-1.334-1.202 2.617 2.617 0 00-1.004-.189h-3.037zm0-.757h2.872c.675 0 1.208-.187 1.597-.56.395-.373.593-.834.593-1.383a1.8 1.8 0 00-.593-1.374c-.395-.373-.927-.56-1.597-.56h-2.872v3.877zm-8.264.592V51h-.84V40.382h.84v5.227l4.551-5.227h1.103l-4.642 5.227 4.98 5.39h-1.103l-4.889-5.39zm-7.326-4.551a3.49 3.49 0 00-1.506.337c-.478.225-.9.538-1.268.938a4.53 4.53 0 00-.872 1.457c-.214.566-.319 1.2-.313 1.902 0 .697.104 1.328.313 1.893.214.565.504 1.05.872 1.457.368.406.79.721 1.268.946.477.225.979.338 1.506.338.889 0 1.627-.266 2.214-.799.593-.532 1.034-1.22 1.325-2.066h.84a6.888 6.888 0 01-.659 1.457 4.767 4.767 0 01-.954 1.144 4.397 4.397 0 01-1.252.75 4.1 4.1 0 01-1.514.271 4.307 4.307 0 01-1.811-.395 4.966 4.966 0 01-1.539-1.103 5.31 5.31 0 01-1.062-1.704 5.895 5.895 0 01-.395-2.19c0-.795.132-1.525.395-2.189a5.31 5.31 0 011.062-1.704 4.83 4.83 0 011.539-1.103 4.307 4.307 0 011.811-.395c.549 0 1.054.088 1.514.264.461.18.873.43 1.235.749.362.318.672.702.93 1.152.264.444.469.93.618 1.457h-.84c-.258-.845-.678-1.534-1.259-2.066-.577-.532-1.309-.798-2.198-.798zm-6.322 4.633a5.78 5.78 0 01-.403 2.19 5.292 5.292 0 01-1.062 1.704c-.444.472-.954.84-1.531 1.103a4.302 4.302 0 01-1.81.395 4.304 4.304 0 01-1.811-.395 4.97 4.97 0 01-1.54-1.103 5.307 5.307 0 01-1.061-1.704 5.875 5.875 0 01-.395-2.19c0-.795.131-1.525.395-2.189a5.307 5.307 0 011.061-1.704c.445-.471.958-.84 1.54-1.103a4.304 4.304 0 011.811-.395c.631 0 1.234.132 1.81.395a4.853 4.853 0 011.531 1.103c.445.472.799 1.04 1.062 1.704a5.78 5.78 0 01.403 2.19zm-8.766 0c0 .698.105 1.329.313 1.894.214.565.505 1.05.873 1.457.367.406.79.721 1.267.946.478.225.98.338 1.507.338.526 0 1.028-.113 1.506-.338.477-.225.9-.54 1.267-.946a4.43 4.43 0 00.865-1.457c.214-.565.321-1.197.321-1.893 0-.697-.107-1.331-.321-1.902a4.606 4.606 0 00-.865-1.457 3.887 3.887 0 00-1.267-.938 3.496 3.496 0 00-1.506-.337c-.527 0-1.029.112-1.507.337a4.05 4.05 0 00-1.267.938 4.532 4.532 0 00-.873 1.457 5.518 5.518 0 00-.313 1.902zm-3.794-5.308h.757V51h-.839v-8.43L141.922 51h-.51l-3.795-8.429V51h-.839V40.382h.757l4.132 9.186 4.132-9.186zM131.798 51h-.922l-1.095-2.864h-4.889L123.797 51h-.93l4.132-10.618h.675L131.798 51zm-4.461-9.268l-2.198 5.646h4.387l-2.189-5.646zm-14.413 8.511h.511c.203-.149.392-.324.568-.527.148-.181.288-.4.419-.659.138-.258.228-.565.272-.922l.93-7.753h5.564v9.86h1.177v3.03h-.839V51h-7.754v2.272h-.848v-3.03zm2.618-2.108a3.435 3.435 0 01-.231.93 3.112 3.112 0 01-.345.65 3.302 3.302 0 01-.437.528h5.811v-9.104h-3.959l-.839 6.996zm-3.293-2.445a5.78 5.78 0 01-.403 2.19 5.326 5.326 0 01-1.062 1.704c-.445.472-.955.84-1.531 1.103a4.307 4.307 0 01-1.811.395 4.31 4.31 0 01-1.811-.395 4.966 4.966 0 01-1.539-1.103 5.326 5.326 0 01-1.062-1.704 5.895 5.895 0 01-.395-2.19c0-.795.132-1.525.395-2.189a5.326 5.326 0 011.062-1.704 4.86 4.86 0 011.539-1.103 4.31 4.31 0 011.811-.395c.631 0 1.235.132 1.811.395a4.876 4.876 0 011.531 1.103c.444.472.798 1.04 1.062 1.704a5.78 5.78 0 01.403 2.19zm-8.766 0c0 .698.104 1.329.313 1.894.214.565.505 1.05.872 1.457.368.406.79.721 1.268.946.477.225.979.338 1.506.338s1.029-.113 1.506-.338c.478-.225.9-.54 1.268-.946a4.41 4.41 0 00.864-1.457c.214-.565.321-1.197.321-1.893 0-.697-.107-1.331-.321-1.902a4.622 4.622 0 00-.864-1.457 3.89 3.89 0 00-1.268-.938 3.49 3.49 0 00-1.506-.337 3.49 3.49 0 00-1.506.337c-.478.225-.9.538-1.268.938a4.548 4.548 0 00-.872 1.457 5.495 5.495 0 00-.313 1.902zm-5.556-5.308a3.304 3.304 0 012.33.93c.296.285.529.626.699 1.02.171.396.256.813.256 1.252 0 .439-.085.853-.256 1.243-.17.395-.403.735-.699 1.02a3.416 3.416 0 01-1.046.683c-.4.17-.828.256-1.284.256h-2.535V51h-.84V40.382h3.375zm0 5.646c.335 0 .65-.066.947-.197a2.75 2.75 0 00.782-.519c.22-.22.392-.477.519-.773a2.34 2.34 0 00.197-.955c0-.335-.066-.653-.197-.955a2.63 2.63 0 00-.519-.774c-.22-.22-.48-.395-.782-.527a2.213 2.213 0 00-.947-.189h-2.535v4.89h2.535zm-5.564-.338a5.78 5.78 0 01-.403 2.19 5.307 5.307 0 01-1.062 1.704c-.444.472-.955.84-1.53 1.103a4.307 4.307 0 01-1.812.395 4.307 4.307 0 01-1.81-.395 4.964 4.964 0 01-1.54-1.103 5.307 5.307 0 01-1.061-1.704 5.887 5.887 0 01-.395-2.19c0-.795.131-1.525.395-2.189a5.307 5.307 0 011.061-1.704 4.84 4.84 0 011.54-1.103 4.307 4.307 0 011.81-.395 4.31 4.31 0 011.811.395 4.867 4.867 0 011.531 1.103c.445.472.799 1.04 1.062 1.704a5.78 5.78 0 01.403 2.19zm-8.766 0c0 .698.105 1.329.313 1.894.214.565.505 1.05.873 1.457.367.406.79.721 1.267.946.478.225.98.338 1.506.338.527 0 1.03-.113 1.507-.338.477-.225.9-.54 1.267-.946a4.43 4.43 0 00.865-1.457c.214-.565.32-1.197.32-1.893 0-.697-.106-1.331-.32-1.902a4.62 4.62 0 00-.865-1.457 3.892 3.892 0 00-1.267-.938 3.493 3.493 0 00-1.507-.337c-.526 0-1.028.112-1.506.337-.477.225-.9.538-1.267.938a4.536 4.536 0 00-.873 1.457 5.506 5.506 0 00-.313 1.902zm-6.494-4.55V51h-.84V40.382h5.902v.757h-5.062zM140.9 32V21.38h2.445v3.371h1.601c.551 0 1.056.096 1.517.287.461.18.86.438 1.197.775a3.548 3.548 0 011.079 2.563c0 .505-.096.977-.287 1.416a3.749 3.749 0 01-.792 1.163 3.788 3.788 0 01-1.197.775c-.461.18-.966.27-1.517.27H140.9zm2.445-4.889v2.529h1.601c.382 0 .702-.124.961-.371.258-.258.388-.556.388-.893 0-.338-.13-.63-.388-.877a1.306 1.306 0 00-.961-.388h-1.601zm8.85 4.889h-2.445V21.38h2.445V32zm-16.597-10.62c.55 0 1.056.095 1.517.287.461.18.86.438 1.197.775.337.326.601.708.792 1.146.191.438.287.91.287 1.416 0 .506-.096.978-.287 1.416a3.749 3.749 0 01-.792 1.163 3.786 3.786 0 01-1.197.776 4.14 4.14 0 01-1.517.27h-1.686v3.37h-2.444V21.38h4.13zm0 4.889c.382 0 .702-.124.961-.371.258-.259.387-.557.387-.894 0-.337-.129-.63-.387-.876a1.306 1.306 0 00-.961-.388h-1.686v2.529h1.686zm-5.056-4.889l-3.371 7.586c-.27.607-.529 1.118-.776 1.534-.247.404-.506.73-.775.977-.27.248-.568.422-.894.523a3.25 3.25 0 01-1.095.169c-.293 0-.551-.029-.776-.085a1.868 1.868 0 01-.32-.084v-2.192c.067.023.14.04.219.051.067.011.146.022.236.034h.303c.259 0 .472-.045.641-.135.18-.09.331-.197.455-.32a1.8 1.8 0 00.337-.472l-3.455-7.586h2.528l2.107 4.72 2.107-4.72h2.529zM118.061 32h-2.444v-8.26h-3.034v-2.36h8.512v2.36h-3.034V32zm-13.311 0V21.38h2.444v3.371h1.77a3.92 3.92 0 011.517.287c.461.18.86.438 1.197.775.337.326.602.708.793 1.147.191.438.286.91.286 1.416 0 .505-.095.977-.286 1.416a3.752 3.752 0 01-.793 1.163 3.788 3.788 0 01-1.197.775c-.46.18-.966.27-1.517.27h-4.214zm2.444-4.889v2.529h1.77c.382 0 .703-.124.961-.371.259-.258.388-.556.388-.893 0-.338-.129-.63-.388-.877a1.305 1.305 0 00-.961-.388h-1.77zm-4.459-5.731V32h-2.444v-8.26h-2.866l-.421 5.057c-.09 1.056-.41 1.871-.961 2.444-.551.562-1.27.843-2.158.843-.135 0-.264-.005-.388-.017a2.48 2.48 0 01-.32-.017 2.137 2.137 0 01-.303-.05v-2.107h.337c.382 0 .702-.14.96-.422.27-.28.428-.674.472-1.18l.59-6.911h7.502zm-9.101 0l-3.371 7.586c-.27.607-.528 1.118-.776 1.534-.247.404-.505.73-.775.977a2.34 2.34 0 01-.894.523c-.314.112-.68.169-1.095.169-.292 0-.55-.029-.776-.085a1.877 1.877 0 01-.32-.084v-2.192c.068.023.14.04.22.051.067.011.145.022.235.034h.304c.258 0 .472-.045.64-.135.18-.09.332-.197.455-.32.135-.135.248-.293.338-.472l-3.456-7.586h2.528L89 26.1l2.107-4.72h2.528zM81.742 32l-3.455-4.72V32h-2.445V21.38h2.445v4.551l3.202-4.551h2.782l-3.742 5.226L84.524 32h-2.782zm101.476-19h-2.444V4.74h-3.035V2.38h8.513v2.36h-3.034V13zm-6.665-10.62V13h-2.444V8.786h-4.046V13h-2.444V2.38h2.444v4.046h4.046V2.38h2.444zm-18.367 0h7.585v2.36h-5.141v1.686h4.72v2.36h-4.72v1.854h5.31V13h-7.754V2.38zm-4.215 0h2.191V13h-2.444V7.69L151.273 13h-1.517l-2.444-5.31V13h-2.444V2.38h2.191l3.456 7.501 3.456-7.501zm-13.905 6.49l-1.18-3.54-1.18 3.54h2.36zm-3.034 2.107L136.358 13h-2.529l3.793-10.62h2.529L143.943 13h-2.528l-.674-2.023h-3.709zM131.379 13h-2.444V4.74H125.9V2.38h8.513v2.36h-3.034V13zm-9.938-10.62c.55 0 1.056.095 1.517.286.46.18.859.439 1.197.776.337.326.601.708.792 1.146.191.438.286.91.286 1.416 0 .506-.095.978-.286 1.416a3.75 3.75 0 01-.792 1.163 3.81 3.81 0 01-1.197.776c-.461.18-.967.27-1.517.27h-1.686v3.37h-2.444V2.38h4.13zm0 4.888c.382 0 .702-.123.96-.37.259-.259.388-.557.388-.894 0-.337-.129-.63-.388-.876a1.302 1.302 0 00-.96-.388h-1.686v2.528h1.686zm-8.932 1.602l-1.18-3.54-1.18 3.54h2.36zm-3.035 2.107L108.8 13h-2.529l3.793-10.62h2.529L116.386 13h-2.529l-.674-2.023h-3.709zM105.34 2.38V13h-2.444V4.74h-4.13V13H96.32V2.38h9.019zm-18.451 0h7.585v2.36h-5.141v1.686h4.72v2.36h-4.72v1.854h5.31V13h-7.754V2.38zm-1.269 8.26v4.383h-2.445V13h-5.9v2.023h-2.444V10.64h.674a1.59 1.59 0 00.49-.337 2.09 2.09 0 00.353-.506c.124-.225.208-.506.253-.843l.759-6.574h7.08v8.26h1.18zm-3.625-5.9h-2.528l-.506 4.214a3.053 3.053 0 01-.22.843 2.547 2.547 0 01-.269.506c-.112.146-.23.258-.354.337h3.877v-5.9z" fill="#fff"/><defs><clipPath id="clip0_319_1851"><path fill="#fff" transform="translate(.251 2)" d="M0 0h60v72H0z"/></clipPath></defs></svg>