<svg width="309" height="148" fill="none" xmlns="http://www.w3.org/2000/svg"><g clip-path="url(#clip0_312_17687)" fill="#fff"><path d="M89.563 36.174c3.832 0 5.82-1.837 6.103-4.662H91.55c-.284.706-.71 1.413-1.987 1.413-1.277 0-1.845-.707-1.987-1.413H83.46c.284 2.825 2.27 4.662 6.103 4.662zm-3.69 17.237l5.82-7.206h.709v7.206h5.252V37.446h-4.542l-5.82 7.205h-.71v-7.205h-5.251V53.41h4.542zM70.259 40.836c1.42 0 2.413.707 2.697 2.12h-5.393c.425-1.413 1.135-2.12 2.697-2.12zm2.555 7.489c-.283.847-.993 1.271-2.413 1.271-1.987 0-2.98-1.13-3.264-3.39H78.35v-1.272c0-4.804-2.98-7.912-8.09-7.912-5.11 0-8.375 3.108-8.375 8.477 0 5.227 3.407 8.477 8.516 8.477 4.684 0 7.24-2.12 7.949-5.51h-5.536v-.142zM54.22 42.532c0 .848-.567 1.13-1.845 1.13h-2.413v3.39h2.555c1.278 0 1.987.284 1.987 1.131 0 .99-.993 1.413-2.555 1.413-1.419 0-2.696-.424-2.98-1.413h-4.826c.284 3.674 2.98 5.651 8.232 5.651 4.542 0 7.665-2.119 7.665-5.227 0-1.837-.852-2.684-1.987-3.108v-.848c.71-.424 1.561-1.13 1.561-2.967 0-2.684-2.697-4.662-7.097-4.662-4.116 0-7.38 1.695-7.806 5.651h4.825c.142-.848.994-1.413 2.413-1.413 1.42 0 2.271.424 2.271 1.272zm-15.897-5.086l-3.264 7.77h-.852l-3.69-7.77h-5.394l6.813 14.27-3.406 7.911h5.393l9.794-22.181h-5.394zm-23.987-6.08l-2.413 8.053h-.852l-2.413-8.053H0v22.04h5.252V38.572h.851l2.555 7.912h5.678l2.413-7.912h.993v14.834h5.252v-22.04h-8.658zm45.42 44.928h.852v8.618h5.252V68.806h-6.672l-2.838 6.358h-.994l-2.839-6.358h-6.67v15.965h5.25v-8.477h.852l1.846 4.097h4.116l1.845-4.097zm-25.265 4.521c-2.271 0-3.264-1.837-3.264-4.097 0-2.26.993-4.097 3.264-4.097s3.123 1.836 3.123 4.097c0 2.402-.994 4.097-3.123 4.097zm0-12.433c-5.11 0-8.658 3.25-8.658 8.477 0 5.228 3.406 8.477 8.658 8.477 5.11 0 8.516-3.25 8.516-8.477s-3.406-8.477-8.516-8.477zm-19.02 11.444H7.95c1.277-2.12 1.987-5.51 1.987-10.314v-1.695h5.535v12.01zm3.123 5.086v5.37h5.535V79.825h-3.122V62.872H4.684v6.782c0 4.803-1.136 8.194-2.413 10.172H0v10.455h5.536v-5.369h13.058zM29.38 109.92c0 1.554-.993 2.825-2.839 2.825-1.42 0-2.27-.706-2.27-1.836 0-1.13.993-1.837 2.554-1.837h2.555v.848zm-2.413-10.031c-4.116 0-7.097 2.119-7.097 5.227h5.394c.142-.848.71-1.413 2.129-1.413 1.42 0 2.129.565 2.129 1.978v.283h-3.69c-4.826 0-6.813 2.826-6.813 5.369 0 2.825 2.129 5.368 5.677 5.368 2.13 0 3.265-.565 4.258-1.695h.852v1.272h4.968v-10.173c-.142-4.662-3.265-6.216-7.807-6.216zm186.792 12.434c-2.271 0-3.265-1.837-3.265-4.098 0-2.26.994-4.097 3.265-4.097s3.122 1.837 3.122 4.097c.142 2.261-.851 4.098-3.122 4.098zm0-12.433c-5.11 0-8.658 3.249-8.658 8.477 0 5.227 3.406 8.477 8.658 8.477 5.11 0 8.516-3.25 8.516-8.477.142-5.228-3.264-8.477-8.516-8.477zm-11.497 16.389v-15.966h-5.394v5.652h-5.394v-5.652h-5.393v15.966h5.393v-6.076h5.394v6.076h5.394zm-36.62-5.934h2.555v6.075h4.967v-6.075h2.555l2.697 6.075h5.394l-3.833-8.195 3.691-7.77h-5.394l-2.555 5.651h-2.555v-5.651h-4.967v5.651h-2.555l-2.555-5.651h-5.394l3.69 7.77-3.832 8.195h5.394l2.697-6.075zm-17.743-6.641c1.42 0 2.413.707 2.697 2.12h-5.393c.425-1.413 1.135-2.12 2.696-2.12zm2.555 7.347c-.284.848-.993 1.272-2.413 1.272-1.987 0-2.98-1.131-3.264-3.391h11.213v-1.272c0-4.803-2.981-7.912-8.091-7.912-5.109 0-8.374 3.109-8.374 8.477 0 5.228 3.406 8.477 8.516 8.477 4.684 0 7.239-2.119 7.949-5.51h-5.536v-.141zm-21.432-6.782c2.271 0 3.122 1.837 3.122 4.098 0 2.119-.851 4.097-3.122 4.097s-3.265-1.837-3.265-4.097c0-2.261.994-4.098 3.265-4.098zm1.845 12.433c4.116 0 6.671-3.532 6.671-8.477s-2.413-8.477-6.671-8.477c-2.129 0-3.407.707-4.258 1.696h-.852v-1.413h-5.11v22.181h5.394v-7.488h.851c.852 1.272 1.988 1.978 3.975 1.978zm-21.291-12.998c1.419 0 2.413.707 2.697 2.12h-5.394c.284-1.413 1.136-2.12 2.697-2.12zm2.555 7.347c-.284.848-.994 1.272-2.413 1.272-1.987 0-2.981-1.131-3.265-3.391h11.213v-1.272c0-4.803-2.98-7.912-8.09-7.912-5.11 0-8.374 3.109-8.374 8.477 0 5.228 3.406 8.477 8.516 8.477 4.684 0 7.239-2.119 7.948-5.51h-5.535v-.141zm-21.575 1.272c-2.27 0-3.264-1.696-3.264-3.674s.993-3.673 3.264-3.673 3.123 1.695 3.123 3.673c.142 1.978-.852 3.674-3.123 3.674zm.852-11.303c-2.271 0-3.832.565-4.826 2.119h-.852c.426-2.684 1.704-3.39 3.549-3.673l5.535-.848c2.981-.424 3.265-2.826 3.265-4.803h-4.116c-.142.706-.426.988-1.703 1.13l-4.117.706c-5.11.848-6.387 6.075-6.387 11.02 0 6.641 3.265 10.031 8.658 10.031 5.11 0 8.517-3.249 8.517-7.77.283-4.663-2.981-7.912-7.523-7.912zm-17.317 8.901c0 1.554-.993 2.825-2.838 2.825-1.42 0-2.271-.706-2.271-1.836 0-1.131.993-1.837 2.554-1.837h2.555v.848zM71.536 99.89c-4.116 0-7.097 2.119-7.097 5.227h5.394c.142-.848.71-1.413 2.13-1.413 1.419 0 2.128.565 2.128 1.978v.283h-3.69c-4.826 0-6.813 2.826-6.813 5.369 0 2.825 2.129 5.368 5.677 5.368 2.13 0 3.265-.565 4.259-1.695h.851v1.272h4.968v-10.173c-.142-4.662-3.264-6.216-7.807-6.216zm-55.355 16.39v-15.966h-5.394v5.511H5.394v-5.511H0v15.966h5.394v-6.076h5.393v6.076h5.394zm217.167-17.229c3.832 0 5.819-1.837 6.103-4.662h-4.116c-.284.706-.71 1.413-1.987 1.413-1.278 0-1.846-.707-1.987-1.413h-4.259c.426 2.684 2.413 4.662 6.246 4.662zm-3.691 17.237l5.82-7.206h.709v7.206h5.252v-15.965h-4.542l-5.819 7.205h-.71v-7.205h-5.252v15.965h4.542zm-168.909-.008v-15.966h-5.393v5.511H49.96v-5.511h-5.394v15.966h5.394v-6.076h5.394v6.076h5.393zM16.181.002H0v22.04h16.181V.002zm247.824 141.711h-16.181v5.934h16.181v-5.934zm0-15.967h-16.181v5.934h16.181v-5.934zm22.427 0h-16.181v5.934h16.181v-5.934zm-89.99 0h-16.181v5.934h16.181v-5.934zm-67.562 0h-16.181v5.934h16.181v-5.934zm-112.699 0H0v5.934h16.181v-5.934zm292.819 0h-16.181v5.934H309v-5.934zM264.003.002h-16.181v22.04h16.181V.002zm.002 31.365h-16.181v22.04h16.181v-22.04zm-67.563 0h-16.181v22.04h16.181v-22.04zm67.563 31.505h-16.181v22.04h16.181v-22.04zM128.88.002h-16.181v22.04h16.181V.002zm157.552 31.364h-16.181v22.04h16.181v-22.04zM16.181 141.713H0v5.934h16.181v-5.934zM309 .002h-16.181v22.04H309V.002z"/></g><defs><clipPath id="clip0_312_17687"><path fill="#fff" d="M0 0h309v148H0z"/></clipPath></defs></svg>