<svg width="134" height="62" fill="none" xmlns="http://www.w3.org/2000/svg"><g clip-path="url(#clip0_319_1850)" fill="#fff"><path d="M4.695 61.997H.355C.24 61.597.207.748.325.006h4.37v61.99zM128.582 0h4.331c.108.404.142 61.185.032 61.986h-4.363V0zM21.958 10.4V8.395l4.432.013v1.99c.315 0 .566.003.817 0 1.238-.011 2.481-.015 3.683.329.669.192 1.34.43 1.953.757 1.608.86 2.586 2.229 2.986 4.02a8.086 8.086 0 01-.05 3.815c-.606 2.362-2.178 3.774-4.444 4.467-1.015.31-2.061.412-3.117.424-.57.007-1.142.001-1.79.001v2.202h-4.43c-.086-.7.002-1.404-.059-2.174-.213-.01-.425-.027-.636-.026-1.108.007-2.216.008-3.312-.196-.895-.167-1.753-.442-2.546-.9-1.415-.814-2.354-2.01-2.792-3.593a8.155 8.155 0 01-.077-4.142c.51-2.111 1.83-3.522 3.816-4.32 1.29-.517 2.644-.658 4.018-.663.494-.002.99 0 1.548 0zm4.486 10.025c.842 0 1.64.063 2.423-.013 1.68-.162 2.656-1.25 2.714-2.953a4.956 4.956 0 00-.087-1.05c-.191-1.042-.798-1.745-1.799-2.061-1.057-.334-2.143-.193-3.252-.186v6.263zm-4.499-6.267c-1.076-.002-2.105-.124-3.117.147-1.034.278-1.707.952-1.922 2.01a5.03 5.03 0 00-.063 1.49c.147 1.418.92 2.298 2.306 2.53.791.133 1.613.088 2.42.115.121.004.243-.033.376-.052v-6.24zm53.783 14.184v-6.176c.432 0 .854-.026 1.27.008.374.03.563-.127.73-.447.778-1.486 1.23-3.073 1.408-4.73.121-1.125.165-2.262.189-3.396.03-1.525.007-3.052.007-4.568.42-.116 11.948-.142 12.628-.027v13.145h2.284l.052 6.191h-4.369v-2.164h-9.76v2.164h-4.44zm11.876-6.208V12.91h-4.268c0 .253.008.473-.002.693-.065 1.392-.09 2.787-.215 4.174-.126 1.412-.452 2.787-1.097 4.066-.04.078-.063.164-.11.29h5.692zM50.115 35.881h6.386c.077.213.163.432.236.656.606 1.873 1.205 3.75 1.817 5.62.147.45.092.46.617.388l2.158-6.648h6.448V53.05c-1.345.06-2.678.012-4.066.029V41.054c-.46-.136-.465-.119-.62.342-.632 1.884-1.258 3.771-1.886 5.657-.058.174-.12.347-.188.546h-4.175c-.07-.195-.139-.384-.203-.575l-1.87-5.603c-.143-.428-.145-.428-.606-.381v12.005H50.14c-.106-.405-.133-16.437-.025-17.164zm59.582 17.182h-5.418c-.127-.409-.184-15.81-.067-17.116.391-.105 3.009-.14 4.032-.046.026 1.808.008 3.624.011 5.44.004 1.801.001 3.602.001 5.376.32.143.472.039.586-.2.215-.453.447-.898.67-1.347l4.362-8.78c.082-.165.172-.325.264-.498h5.5v17.156c-1.323.06-2.641.013-4.04.03-.008-1.83-.002-3.627-.003-5.424-.002-1.802 0-3.604 0-5.382-.407-.204-.537.03-.671.301-.839 1.699-1.684 3.393-2.528 5.089l-2.454 4.938c-.074.148-.155.293-.245.462zM73.02 46.186c-.108-.08-.18-.137-.255-.188-1.194-.796-1.87-1.934-2.107-3.336-.178-1.056-.154-2.115.172-3.147.61-1.93 2.003-2.977 3.89-3.414a9.225 9.225 0 011.973-.226c2.694-.027 5.389-.014 8.083-.015.091 0 .181.01.267.016.116.412.164 16.057.052 17.153h-4.39v-5.871c-.44-.127-2.8-.157-3.555-.054l-2.111 5.95h-4.44c.78-2.312 1.626-4.557 2.42-6.868zm7.632-6.364c-.096-.017-.165-.04-.235-.04-1.089-.002-2.178-.014-3.266.007a3.526 3.526 0 00-.976.17c-.723.227-1.038.704-1.053 1.515-.016.847.284 1.392.986 1.625.395.131.828.191 1.246.205.94.03 1.882.011 2.823.008.159 0 .318-.025.508-.04l-.001-3.17c0-.088-.02-.177-.032-.28zM55.21 17.403c.005 1.467-.19 2.749-.667 3.976-.93 2.39-2.607 3.976-5.065 4.684a9.995 9.995 0 01-5.524.024c-2.502-.695-4.245-2.285-5.147-4.738-.932-2.536-.942-5.115.003-7.647 1.089-2.914 3.266-4.507 6.281-4.981a9.976 9.976 0 013.96.151c3.088.759 4.988 2.748 5.815 5.81a9.88 9.88 0 01.344 2.72zm-4.516.157c-.05-.48-.078-.964-.155-1.439-.4-2.467-2.072-3.776-4.475-3.501-1.202.138-2.093.769-2.685 1.828-.387.693-.57 1.45-.645 2.232-.12 1.258-.031 2.496.516 3.653.69 1.457 1.864 2.15 3.458 2.139 1.597-.012 2.746-.73 3.421-2.195.396-.86.521-1.777.565-2.717zm7.464 8.547V9.032c.394-.12 3.804-.141 4.442-.017v6.246h6.292V8.978h4.44V26.11h-4.385c-.069-.544-.023-1.096-.03-1.644-.008-.577-.002-1.154-.002-1.73v-3.373H62.61c-.032 2.237.01 4.476-.023 6.745a5962.49 5962.49 0 00-4.429-.001zM28.587 53.052h-4.389V39.958c-.437-.145-5.097-.193-6.122-.072v13.158h-4.447V35.888h14.91c.113.408.16 16.08.048 17.165zm7.395-17.171h6.732l5.105 17.17h-4.43c-.41-1.459-.822-2.918-1.24-4.4h-5.721l-1.213 4.392H30.88c1.704-5.73 3.396-11.425 5.1-17.162zm5.176 9.19l-1.346-4.923h-1.05c-.452 1.638-.9 3.254-1.36 4.923h3.756zm60.805-9.167v3.906c-.551.056-1.097.02-1.64.025-.573.007-1.145.002-1.717.002h-1.709v13.13c-.44.132-3.428.17-4.466.066V39.838h-5.064v-3.934h14.596z"/></g><defs><clipPath id="clip0_319_1850"><path fill="#fff" transform="translate(.251)" d="M0 0h133v62H0z"/></clipPath></defs></svg>