<svg width="105" height="68" fill="none" xmlns="http://www.w3.org/2000/svg"><g clip-path="url(#clip0_319_1849)" fill="#fff"><path d="M24.38 50.082c-.482-.017-.706.172-.895.584-.895 1.973-1.842 3.913-2.771 5.87-.12.257-.172.6-.637.566-.396-.017-.43-.31-.568-.55-1.015-1.939-2.03-3.896-3.046-5.852-.207-.412-.413-.652-.964-.635-4.87.034-9.758.017-14.628 0-.465 0-.637.103-.637.6.017 5.493.017 10.985 0 16.477 0 .464.155.566.585.566a41.556 41.556 0 013.27 0c.688.035.792-.206.792-.823-.035-4 0-8.016-.018-12.015 0-.514.07-.737.672-.72 2.443.034 4.87.034 7.314 0 .516 0 .757.171.98.6 1.137 2.18 2.255 4.36 3.46 6.488.482.841.5 1.493.034 2.351-.722 1.305-1.308 2.695-1.979 4.102 1.394 0 2.65-.034 3.907.017.516.018.757-.188.964-.617 1.05-2.249 2.134-4.48 3.2-6.711 1.619-3.381 3.253-6.78 4.94-10.298-1.411 0-2.702.034-3.976 0zM.784 17.627c1.085-.035 2.186-.035 3.27-.035h.172c.603 0 .293-.463.293-.686.017-3.656.017-7.329.017-10.985 0-.223-.189-.583.19-.635.361-.051.327.326.395.55a728.012 728.012 0 011.893 5.663c.138.43.345.635.844.601a29.373 29.373 0 013.012 0c.533.017.74-.172.895-.652.602-1.871 1.239-3.725 1.875-5.578.086-.24.035-.652.448-.6.465.05.224.463.224.686.017 3.655.017 7.328 0 10.984 0 .498.086.704.636.67a35.216 35.216 0 013.012 0c.5.017.602-.155.602-.619-.017-5.44-.017-10.864 0-16.304 0-.601-.223-.704-.757-.687-1.755.034-3.493.034-5.249 0-.55-.017-.809.172-.964.687a354.832 354.832 0 01-1.824 5.612c-.069.206-.034.583-.413.55-.344-.018-.327-.344-.396-.584C8.34 4.377 7.72 2.472 7.101.584c-.104-.326-.207-.601-.672-.601C4.536.017 2.643 0 .75-.017.371.017.251.137.251.549c.017 5.527.017 11.036 0 16.563 0 .412.12.532.533.515zM4.14 5.611v-.085.085zm40.909 53.327c-.018 0-.018 0 0 0 0-2.712-.018-5.44.017-8.152 0-.567-.138-.721-.706-.721-4.078.017-8.14.034-12.219 0-.654 0-.723.223-.723.79.035 2.368.018 4.754 0 7.122 0 1.305 0 2.626-.344 3.913-.19.67-.533 1.184-1.325 1.27-.465.052-1.17-.017-1.342.24-.241.361-.087.979-.104 1.494v.257c0 2.867 0 2.867 2.874 2.403 1.825-.309 3.081-1.287 3.7-3.038.241-.67.414-1.356.534-2.077.413-2.505.293-5.011.293-7.534 0-.6.154-.772.757-.738 1.032.051 2.065.069 3.098 0 .74-.052.946.137.946.927-.051 3.947-.017 7.895-.034 11.842 0 .635.155.841.809.807a26.635 26.635 0 013.097 0c.568.034.723-.155.723-.721-.069-2.695-.051-5.39-.051-8.084zM.268 33.811c0 1.94.018 3.896-.017 5.836 0 .48.12.635.62.618a31.307 31.307 0 012.84 0c.567.034.877-.19 1.17-.636 1.17-1.784 2.392-3.552 3.58-5.337.103-.155.189-.412.43-.343.258.085.137.343.137.514a260.03 260.03 0 010 5.15c0 .463.086.652.603.634a46.641 46.641 0 013.097 0c.43.018.534-.137.534-.549-.017-3.947 0-7.895 0-11.842 0-.378-.138-.48-.5-.48a62.124 62.124 0 01-3.097 0c-.465-.018-.723.136-.964.514a210.126 210.126 0 01-3.493 5.183c-.155.24-.241.704-.637.567-.327-.103-.155-.498-.155-.773a231.72 231.72 0 010-4.891c0-.464-.103-.652-.602-.618a33.59 33.59 0 01-2.926 0c-.55-.034-.654.154-.654.67.052 1.939.034 3.861.034 5.783zm75.707-6.419c-.447-.017-.602.12-.585.567.017 3.913.017 7.826 0 11.74 0 .48.19.566.602.549a29.508 29.508 0 012.754 0c.62.034.98-.155 1.325-.687a204.393 204.393 0 013.442-5.115c.138-.206.207-.635.585-.497.293.103.138.446.138.686.017 1.63.034 3.261 0 4.892-.017.532.086.772.688.738a26.114 26.114 0 012.84 0c.55.034.654-.172.654-.67-.035-1.922-.017-3.827-.017-5.75 0-1.939-.017-3.878.017-5.835 0-.463-.103-.652-.602-.618-.947.035-1.894.052-2.84 0-.55-.034-.878.138-1.17.601-1.136 1.75-2.306 3.467-3.477 5.2-.137.207-.258.567-.516.498-.362-.103-.172-.48-.172-.738a240.06 240.06 0 010-4.977c0-.412-.052-.6-.55-.584-1.068.035-2.1.035-3.116 0zm-9.982-10.28c0 .412.12.532.534.515a46.642 46.642 0 013.097 0c.465.017.706-.172.964-.532a582.538 582.538 0 013.597-5.321c.12-.172.19-.48.482-.36.24.085.12.36.12.532 0 1.682.018 3.38 0 5.063 0 .463.104.652.603.618a29.473 29.473 0 012.753 0c.551.034.723-.138.723-.704-.034-1.888-.017-3.776-.017-5.664 0-1.94-.017-3.879.017-5.835 0-.515-.12-.704-.671-.687a21.37 21.37 0 01-2.581 0c-.551-.034-.878.137-1.188.6-1.17 1.803-2.375 3.554-3.58 5.339-.12.171-.189.48-.499.36-.223-.103-.103-.36-.103-.55 0-1.681-.017-3.38 0-5.062 0-.498-.103-.721-.671-.687-.964.052-1.945.034-2.926 0-.447-.017-.654.069-.654.6.017 3.948.017 7.861 0 11.775zm38.258 10.812c0-.412-.12-.532-.533-.532a27.67 27.67 0 01-2.668 0c-.585-.034-.929.155-1.256.652a198.564 198.564 0 01-3.39 5.046c-.155.24-.259.704-.637.567-.327-.12-.138-.567-.155-.858a148.617 148.617 0 010-4.806c.017-.48-.12-.635-.62-.618a33.27 33.27 0 01-2.925 0c-.62-.034-.689.223-.672.721.017 1.888.017 3.776.017 5.664 0 1.922.035 3.827-.017 5.75-.017.617.172.772.775.737a24.558 24.558 0 012.753 0c.517.018.826-.154 1.102-.583 1.17-1.734 2.358-3.45 3.528-5.166.155-.223.24-.635.568-.515.31.12.12.498.12.755.017 1.63.017 3.261 0 4.892 0 .463.086.669.603.635a39.063 39.063 0 012.839 0c.482.017.568-.172.568-.601-.017-3.913-.017-7.827 0-11.74zm-24.49 25.608a31.1 31.1 0 010-2.832c.018-.48-.137-.618-.62-.618a1386.3 1386.3 0 01-11.96 0c-.55 0-.671.154-.654.67.017 2.694.017 5.371.017 8.066 0 2.746.017 5.492-.017 8.238 0 .515.103.704.654.67a34.69 34.69 0 013.27 0c.62.034.74-.172.74-.755-.035-4.034 0-8.067-.035-12.1 0-.567.155-.704.706-.704 2.41.034 4.819 0 7.228.017.516.017.706-.103.671-.652zM25.48 15.636c.207.429.19.772.018 1.2-.723 1.649-1.411 3.313-2.134 4.944-.24.566-.327.875.5.806a22.404 22.404 0 012.839 0c.533.035.74-.188.93-.634.877-2.077 1.806-4.12 2.701-6.196 1.497-3.416 2.995-6.831 4.51-10.247.257-.583.206-.79-.5-.755-.964.052-1.945.034-2.926 0-.43-.017-.654.12-.826.55-.67 1.698-1.394 3.363-2.1 5.045-.12.275-.12.635-.55.652-.448.035-.5-.343-.62-.6-.808-1.7-1.617-3.399-2.375-5.115-.189-.412-.395-.549-.826-.532-1.204.034-2.41.017-3.734.017.223.498.378.893.55 1.27 1.515 3.21 3.012 6.402 4.544 9.595zm12.857 1.648c1.687.703 3.442.806 5.232.583 1.273-.154 2.46-.532 3.459-1.373 1.773-1.493 1.704-3.827-.12-5.218-.396-.291-.241-.497.051-.72.689-.481.964-1.168.998-1.991.052-1.614-.688-2.815-2.289-3.45-2.237-.893-4.526-.893-6.78-.017-1.48.583-2.392 1.699-2.754 3.26-.103.464-.051.67.516.653.913-.034 1.842 0 2.754-.017.206 0 .465.103.62-.172.55-1.047 1.514-.995 2.46-.892.62.068 1.257.223 1.205 1.03-.051.772-.705.755-1.29.84-.654.086-1.567-.343-1.928.19-.31.48-.069 1.32-.086 2.007v.086c-.052.395.12.463.482.463.774 0 1.549.018 2.323.086.396.035.706.258.792.67.069.343-.103.6-.362.824-.774.652-3.166.532-3.751-.292-.327-.464-.672-.515-1.136-.498-.379.017-.74 0-1.119 0-.396 0-.809.051-1.204-.017-.758-.103-.792.274-.654.84.344 1.477 1.187 2.54 2.581 3.124zM16.721 38.308c2.29 2.815 7.504 3.055 10.016.429.689-.72 1.102-1.58 1.308-2.557.086-.43.018-.55-.43-.55a99.015 99.015 0 01-3.27 0c-.327 0-.482.086-.637.395-.688 1.27-2.598 1.356-3.442.172-.808-1.116-.808-3.622 0-4.737.74-1.013 2.496-1.184 3.15-.223.344.497.688.583 1.187.549.396-.017.81 0 1.205 0 .55 0 1.102-.034 1.635.017.534.052.585-.189.482-.6-.258-1.03-.706-1.94-1.532-2.61-2.151-1.716-4.56-1.87-7.056-1.03-4.767 1.597-4.819 8.033-2.616 10.745zm24.731-10.916c-1.807.052-3.614.018-5.421.018-1.842 0-3.666.017-5.507-.018-.568-.017-.826.086-.775.738.069.704.052 1.425 0 2.146-.034.549.103.772.706.738.86-.052 1.72.034 2.581-.035.723-.068.826.224.81.859-.035 2.574 0 5.148-.018 7.723 0 .55.12.755.705.72a27.72 27.72 0 012.926 0c.62.035.757-.17.757-.754-.034-2.54.035-5.098-.034-7.638-.017-.824.241-.944.947-.91.86.052 1.72 0 2.581.018.396.017.568-.103.55-.515a19.312 19.312 0 010-2.232c.052-.652-.085-.892-.808-.858zM69.934 3.381c1.721.67 3.46.67 5.18-.017 1.274-.515 1.945-1.527 2.203-2.849.07-.36-.017-.515-.43-.498-.705.035-1.428.017-2.151 0-.413-.017-.637.086-.878.48-.464.79-1.979 1.03-2.444.275-.567-.892-1.29-.72-2.047-.755-.31 0-.637.035-.947-.017-.689-.103-.86.172-.689.807.345 1.236 1.033 2.128 2.203 2.574zM59.505 50.528c-.12-.412-.344-.446-.689-.446-1.944 0-3.906.017-5.85 0-.397 0-.603.086-.74.515-1.636 5.51-3.305 11.019-4.957 16.528-.12.412-.104.618.43.6a54.74 54.74 0 013.356 0c.482.018.637-.171.74-.6.275-1.133.654-2.248.912-3.381.12-.515.344-.618.826-.618 1.549.017 3.098.034 4.647 0 .464-.017.654.172.757.584.31 1.15.637 2.316.964 3.45.069.257.051.566.499.566 1.394-.017 2.788 0 4.165 0 .017-.103.051-.12.034-.155a6411.216 6411.216 0 01-5.094-17.043zm-5.163 8.977c-.344 0-.448-.103-.361-.447.395-1.39.808-2.78 1.17-4.17.12-.447.413-.378.723-.395.361-.034.516.12.602.446.413 1.51.826 3.004 1.24 4.583-1.154-.017-2.255-.035-3.374-.017zM72.31 37.656c1.239-2.626 1.221-5.32-.138-7.912-1.532-2.9-5.215-3.484-7.796-1.34-.138.121-.258.224-.448.138-.206-.086-.155-.309-.12-.446.12-.67-.224-.738-.775-.704-.912.035-1.841.052-2.753 0-.603-.034-.689.19-.689.721.017 2.712.017 5.424.017 8.135 0 2.747.018 5.493-.017 8.222 0 .566.155.738.723.703a41.604 41.604 0 012.926 0c.55.017.74-.12.723-.703-.052-1.597-.018-3.193 0-4.806 0-.189-.155-.48.189-.567.24-.051.361.138.482.292.43.532.998.858 1.652 1.013 2.427.618 4.957-.48 6.023-2.746zm-7.986-1.716c-.757-1.34-.774-2.73-.086-4.085.465-.91 1.273-1.27 2.272-1.219.998.052 1.635.6 2.013 1.476.207.48.276.978.293 1.51-.017.739-.052 1.477-.413 2.146-.413.772-1.033 1.201-1.91 1.236-.913.051-1.704-.24-2.169-1.064zm26.314 26.808V58.63c0-1.373-.62-2.42-1.756-3.14-2.1-1.34-6.16-1.254-8.192.17-.86.602-1.394 1.408-1.617 2.438-.103.463.017.67.55.652.981-.034 1.945-.017 2.926 0 .413 0 .706 0 .947-.48.361-.721 1.136-.67 1.824-.618.534.034.998.257 1.222.79.31.703.155.978-.603.995-1.462.034-2.925-.138-4.354.257-2.048.567-3.287 2.163-3.252 4.188.051 1.99 1.308 3.501 3.373 3.965 1.6.36 3.132.206 4.44-.927.224-.189.654-.463.637.069-.035.84.43.755.964.755.688-.017 1.376-.052 2.065 0 .62.051.843-.103.826-.773-.035-1.424 0-2.832 0-4.222zm-4.079.721c-.465 1.253-2.186 1.785-3.287 1.047-.86-.566-.792-1.75.138-2.248.395-.206.791-.275 1.927-.275h.258c1.136 0 1.377.378.964 1.476zM61.553 16.648c.981-.806 1.6-1.836 1.79-3.14-.275-.018-.499-.035-.723-.035h-3.27c-.223 0-.344.086-.516.24-1.446 1.356-3.545.756-4.113-1.132-.19-.618-.034-.772.602-.772 2.496.034 4.991 0 7.487.017.447 0 .636-.052.654-.584.12-4.068-1.962-6.419-5.99-6.745-2.925-.223-5.42 1.098-6.505 3.501-1.239 2.712-.688 6.316 1.274 8.221 2.185 2.146 6.918 2.369 9.31.43zm-4.801-9.044c.843-.052 1.583.137 2.048.943.258.447.292.704-.379.687-1.17-.034-2.34-.017-3.597-.017.31-1.047.947-1.562 1.928-1.613zm.344 26.225c0-4.137-2.65-6.745-6.867-6.745-4.13 0-6.832 2.643-6.85 6.693-.017 4.12 2.788 6.883 6.936 6.814 4.165-.069 6.78-2.678 6.78-6.762zm-9.362 0c0-2.146 1.032-3.33 2.788-3.176 1.497.138 2.306 1.39 2.22 3.485-.07 1.75-.981 2.849-2.41 2.883-1.652.034-2.598-1.116-2.598-3.192z"/></g><defs><clipPath id="clip0_319_1849"><path fill="#fff" transform="translate(.251)" d="M0 0h104v68H0z"/></clipPath></defs></svg>