<?xml version="1.0" encoding="utf-8"?><svg viewBox="0 0 44 53" xmlns="http://www.w3.org/2000/svg" xmlns:xlink="http://www.w3.org/1999/xlink"><style>:root>svg{display:none}:root>svg:target{display:block}</style><svg fill="none" viewBox="0 0 10 11" id="icon-arrow-more" xmlns="http://www.w3.org/2000/svg"><path d="M3.285 1.519L7.267 5.5 3.285 9.482" stroke="currentColor" stroke-width=".438" stroke-linecap="round" stroke-linejoin="round"/></svg><svg fill="none" viewBox="0 0 10 11" id="icon-arrow-prev" xmlns="http://www.w3.org/2000/svg"><path d="M5.994 9.488L2.006 5.5l3.988-3.988" stroke="currentColor" stroke-width=".439" stroke-linecap="round" stroke-linejoin="round"/></svg><svg fill="none" viewBox="0 0 12 12" id="icon-checkbox" xmlns="http://www.w3.org/2000/svg"><rect x=".5" y=".5" width="11" height="11" rx=".833" stroke="#fff"/></svg><svg fill="none" viewBox="0 0 12 12" id="icon-checkbox-active" xmlns="http://www.w3.org/2000/svg"><rect x=".5" y=".5" width="11" height="11" rx=".833" stroke="#fff"/><path d="M4 5.374l1.717 2.06L8.121 4" stroke="#fff" stroke-linecap="round" stroke-linejoin="round"/></svg><svg fill="none" viewBox="0 0 24 24" id="icon-close" xmlns="http://www.w3.org/2000/svg"><path d="M2.205 2.204l19.59 19.59M2.205 21.793l19.59-19.59" stroke="currentColor" stroke-width=".563"/></svg><svg fill="none" viewBox="0 0 16 16" id="icon-eye" xmlns="http://www.w3.org/2000/svg"><path fill-rule="evenodd" clip-rule="evenodd" d="M9.19 6.59c1.967.296 3.85 1.303 5.328 3.025l.759-.651C11.335 4.367 4.766 4.37.634 8.808l.732.681c1.524-1.636 3.401-2.603 5.33-2.896A3.137 3.137 0 109.19 6.59zm.893 2.88a2.136 2.136 0 11-4.273 0 2.136 2.136 0 014.273 0z" fill="currentColor"/></svg><svg fill="none" viewBox="0 0 44 53" id="icon-play" xmlns="http://www.w3.org/2000/svg"><path d="M1 1.826L43.013 26.5 1 51.174V1.826z" stroke="currentColor"/></svg><svg fill="none" viewBox="0 0 24 24" id="icon-search" xmlns="http://www.w3.org/2000/svg"><path fill-rule="evenodd" clip-rule="evenodd" d="M16 11.145a4.5 4.5 0 11-9 0 4.5 4.5 0 019 0zm-.893 4.152a5.5 5.5 0 11.692-.722l2.654 2.653-.707.707-2.639-2.638z" fill="currentColor"/></svg></svg>